<svg width="1792" height="391" viewBox="0 0 1792 391" fill="none" xmlns="http://www.w3.org/2000/svg">
<g opacity="0.25">
<path d="M-112.648 389.228C-32.1192 270.476 133.041 217.365 267.694 266.915C329.867 289.794 383.901 331.254 446.155 353.911C564.487 396.972 707.185 361.994 792.188 269.088C874.759 178.843 941.423 -42.3122 1116.44 8.48373C1205.53 34.343 1229.37 163.718 1316.39 195.889C1363.64 213.357 1416.04 199.094 1466.39 200.561C1575.5 203.74 1676.15 291.689 1693.92 399.388" stroke="url(#paint0_linear_455_48960)" stroke-width="0.5" stroke-miterlimit="10"/>
<path d="M-113.059 387.89C-29.0269 273.359 133.313 217.262 270.491 265.869C324.461 284.993 372.616 318.244 425.62 341.534C558.156 399.96 709.571 358.797 798.527 264.243C882.316 175.069 948.391 -37.8569 1120.54 13.9141C1208.44 40.3942 1232.89 168.147 1319.74 199.52C1366.68 216.538 1418.72 202.319 1468.8 203.366C1576.95 205.817 1676.95 290.852 1695.96 395.26" stroke="url(#paint1_linear_455_48960)" stroke-width="0.5" stroke-miterlimit="10"/>
<path d="M-111.934 387.315C-24.3995 277.004 135.1 217.936 274.823 265.586C328.97 284.051 377.595 316.841 431.404 340.026C563.693 397.372 714.877 354.753 806.398 260.164C891.403 172.09 956.969 -32.6005 1126.18 20.1128C1213.03 47.2598 1237.84 173.314 1324.63 203.917C1371.26 220.485 1422.93 206.307 1472.75 206.939C1579.93 208.662 1679.3 290.782 1699.54 391.9" stroke="url(#paint2_linear_455_48960)" stroke-width="0.5" stroke-miterlimit="10"/>
<path d="M-109.404 387.473C-18.3678 281.384 138.277 219.359 280.562 266.036C334.878 283.854 383.979 316.172 438.597 339.25C571.881 396.067 722.126 350.809 815.677 256.816C902.096 169.667 966.969 -26.5949 1133.23 27.0432C1218.97 54.8417 1244.24 179.23 1330.93 209.048C1377.24 225.166 1428.56 210.905 1478.1 211.243C1584.32 211.969 1683.05 291.445 1704.51 389.272" stroke="url(#paint3_linear_455_48960)" stroke-width="0.5" stroke-miterlimit="10"/>
<path d="M-105.617 387.827C-11.0782 285.959 142.696 220.994 287.556 266.681C342.034 283.863 391.667 315.583 447.045 338.668C582.069 394.95 730.983 346.659 826.211 253.661C914.053 167.461 978.249 -20.3751 1141.53 34.166C1225.91 62.5307 1251.85 185.098 1338.47 214.372C1384.52 229.932 1435.43 215.45 1484.71 215.741C1589.97 216.361 1688.05 292.3 1710.75 386.836" stroke="url(#paint4_linear_455_48960)" stroke-width="0.5" stroke-miterlimit="10"/>
<path d="M-100.711 387.932C-2.66959 290.284 148.216 222.396 295.67 267.079C350.305 283.635 400.434 314.838 456.612 337.84C591.536 393.08 739.449 343.657 837.866 250.262C926.952 165.216 990.597 -14.3998 1150.95 41.0441C1234.55 70.1719 1260.29 190.804 1347.15 219.451C1392.88 234.534 1443.43 220.413 1492.44 219.993C1596.73 219.099 1694.18 292.91 1718.11 384.156" stroke="url(#paint5_linear_455_48960)" stroke-width="0.5" stroke-miterlimit="10"/>
<path d="M-94.8145 388.649C6.72931 295.223 154.716 224.429 304.773 268.087C359.559 284.027 410.191 314.704 467.168 337.621C601.772 391.76 748.415 341.596 850.507 247.472C940.892 163.554 1003.94 -7.79962 1161.36 48.5298C1243.7 78.2587 1270.17 197.277 1356.8 225.135C1402.23 239.744 1452.41 225.653 1501.15 224.851C1604.48 223.152 1701.29 294.125 1726.45 382.081" stroke="url(#paint6_linear_455_48960)" stroke-width="0.5" stroke-miterlimit="10"/>
<path d="M-88.0762 389.936C189.539 154.185 374.391 296.809 478.569 337.975C614.033 391.503 759.469 339.234 863.994 245.252C955.658 162.836 1017.94 -0.681708 1172.62 56.5878C1253.84 86.9704 1280.72 204.271 1367.3 231.394C1412.43 245.53 1462.24 231.468 1510.71 230.283C1613.07 227.784 1709.25 295.915 1735.63 380.581" stroke="url(#paint7_linear_455_48960)" stroke-width="0.5" stroke-miterlimit="10"/>
<path d="M-80.6289 391.757C211.388 163.134 371.161 292.459 490.678 338.863C626.588 391.628 770.298 337.813 878.191 243.569C971.02 162.485 1032.8 7.04488 1184.58 65.1823C1264.66 96.2034 1291.99 211.811 1378.52 238.189C1423.34 251.853 1472.77 237.822 1520.99 236.254C1622.37 232.957 1717.92 298.244 1745.53 379.617" stroke="url(#paint8_linear_455_48960)" stroke-width="0.5" stroke-miterlimit="10"/>
<path d="M-72.6133 394.108C233.035 173.805 361.209 286.049 503.355 340.277C640.471 392.588 782.319 336.27 892.953 242.413C986.801 162.795 1048.57 15.0816 1197.11 74.3034C1276.29 105.871 1303.45 219.772 1390.29 245.511C1434.81 258.703 1483.88 244.702 1531.82 242.749C1632.24 238.659 1727.15 301.097 1756 379.18" stroke="url(#paint9_linear_455_48960)" stroke-width="0.5" stroke-miterlimit="10"/>
<path d="M-64.168 396.88C252.221 187.306 348.282 279.064 516.461 342.116C585.46 367.984 654.922 366.86 720.847 347.304C787.964 327.394 851.425 288.401 908.145 241.678C1001.59 164.706 1064.18 23.6586 1210.07 83.8468C1287.9 115.954 1315.94 228.342 1402.5 253.253C1446.71 265.975 1495.41 252.004 1543.09 249.665C1642.53 244.785 1736.81 304.37 1766.89 379.162" stroke="url(#paint10_linear_455_48960)" stroke-width="0.5" stroke-miterlimit="10"/>
<path d="M-55.4277 400.07C63.6303 327.748 196.934 242.697 360.199 280.968C506.095 315.166 639.81 468.268 923.632 241.363C1018.23 165.736 1080.37 32.7839 1223.33 93.8072C1300.21 126.625 1328.29 237.214 1415 261.414C1458.9 273.666 1507.23 259.728 1554.65 257C1653.12 251.333 1746.77 308.064 1778.08 379.564" stroke="url(#paint11_linear_455_48960)" stroke-width="0.5" stroke-miterlimit="10"/>
<path d="M-46.5312 403.64C76.0292 335.538 206.368 247.697 372.305 284.829C524.128 318.804 645.635 469.2 939.278 241.425C1035.83 166.534 1096.93 42.4039 1236.74 104.146C1312.42 137.566 1341.13 246.558 1427.67 269.954C1471.26 281.738 1519.22 267.833 1566.37 264.713C1663.87 258.266 1756.89 312.136 1789.43 380.345" stroke="url(#paint12_linear_455_48960)" stroke-width="0.5" stroke-miterlimit="10"/>
<path d="M-37.6191 407.551C88.4437 343.67 215.81 253.056 384.424 289.033C549.094 324.169 650.465 470.894 954.937 241.831C1053.94 167.345 1113.45 52.3775 1250.17 114.831C1325.05 149.037 1353.55 256.143 1440.34 278.838C1483.62 290.157 1531.21 276.283 1578.11 272.774C1674.63 265.548 1767.02 316.554 1800.79 381.473" stroke="url(#paint13_linear_455_48960)" stroke-width="0.5" stroke-miterlimit="10"/>
<path d="M-28.8281 411.766C100.737 352.107 225.121 258.738 396.422 293.539C573.362 329.486 654.632 472.912 970.475 242.54C1069.94 169.993 1129.76 62.6333 1263.47 125.817C1337.86 160.968 1365.68 266.001 1452.89 288.023C1495.87 298.876 1543.09 285.037 1589.72 281.132C1685.26 273.132 1777.02 321.27 1812.02 382.899" stroke="url(#paint14_linear_455_48960)" stroke-width="0.5" stroke-miterlimit="10"/>
<path d="M-20.3027 416.255C112.765 360.815 234.16 264.715 408.155 298.32C548.984 325.52 619.43 411.882 783.608 355.684C838.51 336.891 903.668 301.543 985.749 243.523C1086.91 172.015 1145.85 73.2126 1276.52 137.078C1349.9 172.944 1378 276.259 1465.18 297.485C1507.84 307.872 1554.69 294.068 1601.07 289.768C1695.64 280.998 1786.77 326.263 1823 384.602" stroke="url(#paint15_linear_455_48960)" stroke-width="0.5" stroke-miterlimit="10"/>
<path d="M-12.1699 420.978C124.4 369.76 242.802 270.949 419.495 303.334C573.577 331.577 635.278 419.983 808.112 354.126C860.631 334.113 921.32 299.043 1000.63 244.74C1103.4 174.372 1161.67 84.1229 1289.16 148.572C1361.01 184.893 1390.27 286.837 1477.08 307.18C1519.43 317.103 1565.91 303.334 1612.02 298.636C1705.61 289.102 1796.12 331.489 1833.58 386.537" stroke="url(#paint16_linear_455_48960)" stroke-width="0.5" stroke-miterlimit="10"/>
<path d="M-4.57422 425.9C135.498 378.902 250.901 277.4 430.3 308.55C486.485 318.305 542.861 342.706 608.683 364.595C763.593 416.112 887.044 330.966 1014.97 246.156C1118.35 177.625 1176.74 95.1518 1301.28 160.264C1372.45 197.476 1401.44 297.492 1488.44 317.072C1530.48 326.534 1576.59 312.798 1622.44 307.702C1715.06 297.406 1804.93 336.912 1843.63 388.668" stroke="url(#paint17_linear_455_48960)" stroke-width="0.5" stroke-miterlimit="10"/>
<path d="M2.3418 430.993C145.917 388.216 258.318 284.044 440.423 313.933C496.72 323.172 553.631 346.963 620.26 368.752C777.136 420.05 897.98 331.565 1028.64 247.741C1132.55 181.073 1191.08 106.355 1312.71 172.127C1383.58 210.452 1411.7 308.277 1499.12 327.134C1540.85 336.135 1586.59 322.435 1632.18 316.937C1723.82 305.885 1813.07 342.505 1852.99 390.971" stroke="url(#paint18_linear_455_48960)" stroke-width="0.5" stroke-miterlimit="10"/>
<path d="M8.45312 436.226C155.53 397.669 264.923 290.849 449.742 319.459C506.15 328.191 563.594 351.368 631.032 373.051C791.065 424.512 910.659 330.657 1041.49 249.468C1146.28 184.443 1204.68 117.771 1323.33 184.131C1393.25 223.239 1421.62 319.317 1508.99 337.338C1550.41 345.88 1595.79 332.218 1641.11 326.317C1731.77 314.514 1820.4 348.244 1861.55 393.419" stroke="url(#paint19_linear_455_48960)" stroke-width="0.5" stroke-miterlimit="10"/>
<path d="M14.2539 442.169C164.834 407.833 271.216 298.386 458.75 325.693C515.267 333.922 573.247 356.478 641.492 378.061C806.097 430.112 927.715 327.685 1054.04 251.906C1159.27 188.78 1217.9 129.881 1333.65 196.847C1402.21 236.51 1431.49 331.13 1518.55 348.255C1559.66 356.34 1604.67 342.713 1649.73 336.408C1739.42 323.856 1827.42 354.692 1869.8 396.576" stroke="url(#paint20_linear_455_48960)" stroke-width="0.5" stroke-miterlimit="10"/>
<path d="M19.5469 448.391C173.629 418.277 276.996 306.222 467.252 332.208C523.879 339.943 582.395 361.873 651.448 383.349C821.195 436.139 947.778 323.187 1066.08 254.623C1171.63 193.454 1230.34 142.151 1343.46 209.842C1411.11 250.327 1440.62 343.183 1527.61 359.451C1568.4 367.079 1613.05 353.491 1657.85 346.777C1746.56 333.482 1833.93 361.419 1877.54 400.013" stroke="url(#paint21_linear_455_48960)" stroke-width="0.5" stroke-miterlimit="10"/>
<path d="M24.2266 454.772C181.811 428.878 282.161 314.239 475.139 338.88C531.873 346.125 590.925 367.426 660.789 388.795C833.531 441.628 962.408 321.906 1077.51 257.496C1182.67 198.652 1241.92 154.439 1352.65 222.99C1419.39 264.304 1449.11 355.391 1536.05 370.8C1576.53 377.973 1620.81 364.425 1665.35 357.299C1753.08 343.266 1839.83 368.299 1884.67 403.603" stroke="url(#paint22_linear_455_48960)" stroke-width="0.5" stroke-miterlimit="10"/>
<path d="M28.3047 461.333C189.394 439.661 286.725 322.457 482.425 345.732C539.268 352.492 598.855 373.159 669.528 394.42C844.232 446.974 971.519 323.622 1088.34 260.55C1193.23 203.915 1252.82 166.875 1361.25 236.322C1426.74 278.27 1457.19 367.822 1543.9 382.33C1584.06 389.049 1627.97 375.54 1672.25 368.004C1759.01 353.237 1845.12 375.36 1891.2 407.374" stroke="url(#paint23_linear_455_48960)" stroke-width="0.5" stroke-miterlimit="10"/>
<path d="M31.7852 468.102C196.377 450.649 290.688 330.905 489.112 352.794C546.063 359.077 606.185 379.106 677.668 400.256C965.244 485.343 1130.47 91.6147 1369.24 249.864C1434.44 293.08 1464.31 380.415 1551.14 394.073C1590.98 400.341 1634.53 386.871 1678.55 378.92C1764.33 363.426 1849.82 382.634 1897.12 411.358" stroke="url(#paint24_linear_455_48960)" stroke-width="0.5" stroke-miterlimit="10"/>
<path d="M34.6719 475.112C202.766 461.88 294.056 339.613 495.206 360.094C552.264 365.903 612.922 385.288 685.216 406.329C974.04 490.387 1130.25 94.6427 1376.64 263.642C1440.34 307.33 1471.37 393.336 1557.78 406.051C1597.31 411.869 1640.5 398.441 1684.26 390.074C1769.06 373.856 1853.92 390.148 1902.46 415.579" stroke="url(#paint25_linear_455_48960)" stroke-width="0.5" stroke-miterlimit="10"/>
<path d="M36.9727 482.696C208.569 473.684 296.84 348.918 500.717 367.971C557.881 373.315 619.075 392.053 692.18 412.98C981.721 495.871 1130.97 98.738 1383.46 278C1446.29 322.606 1477.55 406.793 1563.85 418.61C1642.72 429.406 1759.58 354.701 1907.21 420.376" stroke="url(#paint26_linear_455_48960)" stroke-width="0.5" stroke-miterlimit="10"/>
<path d="M38.6992 490.027C213.798 485.237 299.048 357.989 505.651 375.593C562.922 380.473 624.652 398.56 698.568 419.375C990.407 501.559 1129.17 100.614 1389.7 292.099C1451.84 337.766 1483.17 420.007 1569.34 430.908C1649.54 441.054 1756.52 367.672 1911.38 424.915" stroke="url(#paint27_linear_455_48960)" stroke-width="0.5" stroke-miterlimit="10"/>
<path d="M39.8555 497.943C218.457 497.374 300.687 367.667 510.014 383.802C567.395 388.224 629.658 405.658 704.385 426.357C997.226 507.481 1129.36 104.334 1395.37 306.788C1456.77 353.52 1488.28 433.824 1574.26 443.797C1655.71 453.247 1752.88 381.753 1914.99 430.046" stroke="url(#paint28_linear_455_48960)" stroke-width="0.5" stroke-miterlimit="10"/>
<path d="M40.4453 506.091C222.549 509.742 301.76 377.6 513.811 392.241C571.299 396.211 634.098 412.984 709.634 433.57C1005.25 514.132 1127.76 106.74 1400.47 321.705C1461.13 369.515 1492.88 447.882 1578.61 456.915C1659.63 465.453 1749.48 396.725 1918.03 435.405" stroke="url(#paint29_linear_455_48960)" stroke-width="0.5" stroke-miterlimit="10"/>
<path d="M40.4785 514.382C226.085 522.255 302.278 387.694 517.052 400.825C574.649 404.347 637.981 420.459 714.328 440.927C903.996 491.778 1026.74 338.771 1147.74 289.056C1238.07 251.941 1293.66 245.828 1405.03 336.769C1464.98 385.726 1496.98 462.097 1582.41 470.178C1659.44 477.464 1749.37 412.816 1920.51 440.908" stroke="url(#paint30_linear_455_48960)" stroke-width="0.5" stroke-miterlimit="10"/>
<path d="M39.9648 522.787C229.073 534.879 302.252 397.922 519.747 409.52C577.454 412.599 641.318 428.047 718.478 448.399C910.162 498.959 1032.2 341.884 1153.98 293.954C1241.54 259.492 1293.97 254.581 1409.03 351.945C1468.22 402.037 1500.59 476.433 1585.66 483.554C1663.4 490.061 1743.23 428.303 1922.44 446.527" stroke="url(#paint31_linear_455_48960)" stroke-width="0.5" stroke-miterlimit="10"/>
<path d="M38.9062 531.284C231.517 547.598 301.683 408.264 521.896 418.31C579.714 420.947 644.109 435.728 722.08 455.962C915.727 506.214 1037.15 345.078 1159.67 298.946C1244.16 267.131 1292.26 261.751 1412.49 367.212C1470.89 418.45 1503.72 490.872 1588.37 497.022C1665.21 502.606 1736.67 444.39 1923.84 452.237" stroke="url(#paint32_linear_455_48960)" stroke-width="0.5" stroke-miterlimit="10"/>
<path d="M37.3027 539.848C233.416 560.383 300.57 418.693 523.5 427.165C581.427 429.366 646.353 443.477 725.138 463.59C920.67 513.51 1041.65 348.31 1164.81 304.003C1260.51 269.576 1304.4 281.587 1415.4 382.547C1474.09 435.932 1506.32 505.381 1590.52 510.558C1665.93 515.195 1730.84 460.987 1924.68 458.013" stroke="url(#paint33_linear_455_48960)" stroke-width="0.5" stroke-miterlimit="10"/>
<path d="M35.1758 548.461C234.792 573.216 298.937 429.191 524.58 436.071C582.621 437.84 648.074 451.277 727.67 471.27C925.451 520.949 1044.91 351.851 1169.43 309.11C1269.04 274.916 1308.98 295.268 1417.78 397.931C1476.17 453.026 1508.57 519.948 1592.16 524.141C1666.05 527.849 1722.25 478.076 1925 463.837" stroke="url(#paint34_linear_455_48960)" stroke-width="0.5" stroke-miterlimit="10"/>
<path d="M32.5273 557.105C235.645 586.082 296.787 439.741 525.141 445.006C583.296 446.346 649.278 459.107 729.685 478.978C929.513 528.362 1048.14 355.246 1173.53 314.247C1276.95 280.432 1313.12 309.028 1419.65 413.346C1478.44 470.907 1510.46 534.551 1593.27 537.757C1664.79 540.524 1715.35 495.435 1924.8 469.693" stroke="url(#paint35_linear_455_48960)" stroke-width="0.5" stroke-miterlimit="10"/>
<path d="M29.3594 565.766C235.98 598.962 294.12 450.326 525.18 453.959C583.449 454.875 649.958 466.957 731.178 486.705C932.58 535.676 1051.45 358.476 1177.11 319.403C1284.1 286.136 1316.49 322.538 1421 428.78C1478.3 487.033 1511.79 549.167 1593.87 551.391C1663.95 553.291 1705.22 513.538 1924.08 475.569" stroke="url(#paint36_linear_455_48960)" stroke-width="0.5" stroke-miterlimit="10"/>
<path d="M25.6836 574.534C292.49 622.047 264.943 382.763 732.163 494.539C935.673 543.225 1053.41 362.081 1180.18 324.663C1290.98 291.963 1320.51 337.328 1421.84 444.318C1478.96 504.63 1512.87 563.885 1593.96 565.129C1660.74 566.152 1696.35 531.854 1922.86 481.548" stroke="url(#paint37_linear_455_48960)" stroke-width="0.5" stroke-miterlimit="10"/>
<path d="M21.5078 583.199C291.812 635.883 264.082 391.976 732.649 502.269C938.165 550.645 1055.05 365.526 1182.75 329.822C1297.11 297.85 1324.13 352.17 1422.18 459.753C1480.34 523.57 1512.72 577.339 1593.55 578.765C1654.78 579.845 1688.87 549.871 1921.13 487.424" stroke="url(#paint38_linear_455_48960)" stroke-width="0.5" stroke-miterlimit="10"/>
<path d="M16.8301 591.872C286.533 648.835 263.687 402.313 732.632 510.009C939.511 558.324 1056.43 368.644 1184.82 334.991C1302.38 303.677 1327.81 367.717 1422.02 475.199C1576.7 651.675 1562.01 605.328 1918.9 493.31" stroke="url(#paint39_linear_455_48960)" stroke-width="0.5" stroke-miterlimit="10"/>
<path d="M11.668 600.366C285.886 662.609 269.618 412.952 732.131 517.567C940.955 565.503 1057.2 371.924 1186.41 339.976C1306.95 309.725 1330.37 382.451 1421.37 490.462C1567.14 663.484 1571.32 622.211 1916.18 499.014" stroke="url(#paint40_linear_455_48960)" stroke-width="0.5" stroke-miterlimit="10"/>
<path d="M6.02539 608.94C283.671 676.206 266.791 421.752 731.15 525.208C942.038 572.788 1057.35 375.33 1187.52 345.046C1310.89 315.958 1332.53 397.431 1420.24 505.809C1558.41 676.54 1579.44 637.902 1912.99 504.804" stroke="url(#paint41_linear_455_48960)" stroke-width="0.5" stroke-miterlimit="10"/>
<path d="M-0.09375 616.017C283.116 688.826 261.597 428.622 729.692 531.349C942.097 578.448 1057.19 377.199 1188.14 348.616C1314.54 320.71 1334.42 411.653 1418.64 519.657C1550.36 689.839 1588.26 650.149 1909.32 509.093" stroke="url(#paint42_linear_455_48960)" stroke-width="0.5" stroke-miterlimit="10"/>
<path d="M-6.68359 622.725C280.339 700.637 257.187 435.392 727.763 537.124C942.239 583.86 1056.46 378.726 1188.3 351.817C1317.09 325.287 1335.52 424.705 1416.56 533.134C1544.43 705.218 1600.47 658.737 1905.18 513.011" stroke="url(#paint43_linear_455_48960)" stroke-width="0.5" stroke-miterlimit="10"/>
<path d="M-13.7324 629.388C275.696 711.988 253.538 442.363 725.375 542.853C942.11 589.264 1055.06 380.249 1188 354.976C1319.01 329.899 1336.05 437.63 1414.03 546.57C1538.15 720.683 1608.79 667.403 1900.58 516.887" stroke="url(#paint44_linear_455_48960)" stroke-width="0.5" stroke-miterlimit="10"/>
<path d="M-21.2363 635.991C272.621 723.829 248.692 449.099 722.532 548.52C941.339 594.559 1053.42 381.67 1187.24 358.069C1320.46 334.49 1336.26 450.743 1411.04 559.941C1533.93 739.76 1625.01 670.066 1895.52 520.7" stroke="url(#paint45_linear_455_48960)" stroke-width="0.5" stroke-miterlimit="10"/>
<path d="M-29.1875 642.543C268.201 735.341 242.577 455.599 719.242 554.138C940.19 599.814 1051.26 383.058 1186.04 361.117C1355.42 333.541 1335.57 535.846 1475.57 650.649C1574.05 731.404 1724.14 621.882 1890.02 524.466" stroke="url(#paint46_linear_455_48960)" stroke-width="0.5" stroke-miterlimit="10"/>
<path d="M-30.3359 641.671C266.499 732.502 243.751 456.203 717.147 553.969C937.286 599.402 1048.76 385.693 1183.68 364.344C1352.52 337.379 1334.38 537.458 1474.27 650.801C1573.03 730.508 1722.84 621.964 1888.38 525" stroke="url(#paint47_linear_455_48960)" stroke-width="0.5" stroke-miterlimit="10"/>
<path d="M-31.5664 640.854C264.715 729.719 244.842 456.861 714.97 553.853C934.3 599.045 1046.18 388.382 1181.23 367.626C1349.53 341.268 1333.1 539.122 1472.89 651.007C1571.92 729.667 1721.47 622.102 1886.66 525.589" stroke="url(#paint48_linear_455_48960)" stroke-width="0.5" stroke-miterlimit="10"/>
<path d="M-32.877 640.002C262.852 726.9 245.856 457.485 712.713 553.701C931.233 598.651 1043.56 391.322 1178.71 370.872C1346.51 345.478 1331.44 541.143 1471.42 651.176C1570.52 729.067 1720 622.204 1884.86 526.141" stroke="url(#paint49_linear_455_48960)" stroke-width="0.5" stroke-miterlimit="10"/>
<path d="M-34.2656 639.266C260.91 724.196 246.789 458.224 710.378 553.666C928.089 598.373 1040.84 394.184 1176.1 374.234C1343.38 349.562 1329.91 543.017 1469.88 651.463C1569.18 728.398 1718.47 622.423 1882.98 526.81" stroke="url(#paint50_linear_455_48960)" stroke-width="0.5" stroke-miterlimit="10"/>
<path d="M-35.7227 638.581C258.9 721.546 247.654 459.016 707.974 553.684C924.877 598.15 1038.04 397.098 1173.43 377.649C1340.18 353.696 1328.32 544.943 1468.27 651.804C1567.78 727.783 1716.86 622.694 1881.03 527.534" stroke="url(#paint51_linear_455_48960)" stroke-width="0.5" stroke-miterlimit="10"/>
<path d="M-37.2617 637.945C256.805 718.942 248.436 459.856 705.488 553.75C921.582 597.974 1035.16 400.059 1170.68 381.11C1336.89 357.872 1326.65 546.915 1466.58 652.189C1566.31 727.213 1715.17 623.011 1879 528.301" stroke="url(#paint52_linear_455_48960)" stroke-width="0.5" stroke-miterlimit="10"/>
<path d="M-38.8691 637.359C254.645 716.389 249.153 460.746 702.934 553.866C918.219 597.849 1032.21 403.067 1167.86 384.624C1333.53 362.099 1324.92 548.935 1464.82 652.626C1564.76 726.695 1713.42 623.38 1876.9 529.121" stroke="url(#paint53_linear_455_48960)" stroke-width="0.5" stroke-miterlimit="10"/>
<path d="M-40.541 636.82C252.42 713.884 249.803 461.684 700.316 554.028C914.792 597.768 1029.2 406.119 1164.98 388.183C1330.11 366.369 1323.12 551.002 1463 653.11C1563.15 726.221 1711.6 623.796 1874.74 529.987" stroke="url(#paint54_linear_455_48960)" stroke-width="0.5" stroke-miterlimit="10"/>
<path d="M-42.2852 636.323C250.123 711.419 250.381 462.662 697.625 554.232C911.292 597.733 1026.11 409.215 1162.02 391.786C1326.62 370.677 1321.26 553.109 1461.1 653.636C1561.47 725.792 1709.7 624.252 1872.5 530.896" stroke="url(#paint55_linear_455_48960)" stroke-width="0.5" stroke-miterlimit="10"/>
<path d="M-44.0859 635.872C247.769 709.001 250.902 463.688 694.877 554.484C907.735 597.741 1022.96 412.354 1159 395.434C1323.07 375.03 1319.34 555.262 1459.15 654.209C1559.74 725.405 1707.75 624.757 1870.21 531.851" stroke="url(#paint56_linear_455_48960)" stroke-width="0.5" stroke-miterlimit="10"/>
</g>
<defs>
<linearGradient id="paint0_linear_455_48960" x1="790.638" y1="1" x2="790.638" y2="399.388" gradientUnits="userSpaceOnUse">
<stop stop-color="#3898EC"/>
<stop offset="0.53" stop-color="#6299BC"/>
<stop offset="1" stop-color="#FA9E0B"/>
</linearGradient>
<linearGradient id="paint1_linear_455_48960" x1="791.452" y1="5.91064" x2="791.452" y2="395.26" gradientUnits="userSpaceOnUse">
<stop stop-color="#3898EC"/>
<stop offset="0.53" stop-color="#6299BC"/>
<stop offset="1" stop-color="#FA9E0B"/>
</linearGradient>
<linearGradient id="paint2_linear_455_48960" x1="793.801" y1="11.562" x2="793.801" y2="391.9" gradientUnits="userSpaceOnUse">
<stop stop-color="#3898EC"/>
<stop offset="0.53" stop-color="#6299BC"/>
<stop offset="1" stop-color="#FA9E0B"/>
</linearGradient>
<linearGradient id="paint3_linear_455_48960" x1="797.555" y1="17.9038" x2="797.555" y2="389.272" gradientUnits="userSpaceOnUse">
<stop stop-color="#3898EC"/>
<stop offset="0.53" stop-color="#6299BC"/>
<stop offset="1" stop-color="#FA9E0B"/>
</linearGradient>
<linearGradient id="paint4_linear_455_48960" x1="802.567" y1="24.4009" x2="802.567" y2="387.827" gradientUnits="userSpaceOnUse">
<stop stop-color="#3898EC"/>
<stop offset="0.53" stop-color="#6299BC"/>
<stop offset="1" stop-color="#FA9E0B"/>
</linearGradient>
<linearGradient id="paint5_linear_455_48960" x1="808.698" y1="30.6143" x2="808.698" y2="387.932" gradientUnits="userSpaceOnUse">
<stop stop-color="#3898EC"/>
<stop offset="0.53" stop-color="#6299BC"/>
<stop offset="1" stop-color="#FA9E0B"/>
</linearGradient>
<linearGradient id="paint6_linear_455_48960" x1="815.816" y1="37.3882" x2="815.816" y2="388.649" gradientUnits="userSpaceOnUse">
<stop stop-color="#3898EC"/>
<stop offset="0.53" stop-color="#6299BC"/>
<stop offset="1" stop-color="#FA9E0B"/>
</linearGradient>
<linearGradient id="paint7_linear_455_48960" x1="823.779" y1="44.6807" x2="823.779" y2="389.936" gradientUnits="userSpaceOnUse">
<stop stop-color="#3898EC"/>
<stop offset="0.53" stop-color="#6299BC"/>
<stop offset="1" stop-color="#FA9E0B"/>
</linearGradient>
<linearGradient id="paint8_linear_455_48960" x1="832.453" y1="52.4639" x2="832.453" y2="391.757" gradientUnits="userSpaceOnUse">
<stop stop-color="#3898EC"/>
<stop offset="0.53" stop-color="#6299BC"/>
<stop offset="1" stop-color="#FA9E0B"/>
</linearGradient>
<linearGradient id="paint9_linear_455_48960" x1="841.693" y1="60.6431" x2="841.693" y2="394.108" gradientUnits="userSpaceOnUse">
<stop stop-color="#3898EC"/>
<stop offset="0.53" stop-color="#6299BC"/>
<stop offset="1" stop-color="#FA9E0B"/>
</linearGradient>
<linearGradient id="paint10_linear_455_48960" x1="851.361" y1="69.293" x2="851.361" y2="396.88" gradientUnits="userSpaceOnUse">
<stop stop-color="#3898EC"/>
<stop offset="0.53" stop-color="#6299BC"/>
<stop offset="1" stop-color="#FA9E0B"/>
</linearGradient>
<linearGradient id="paint11_linear_455_48960" x1="861.326" y1="78.2412" x2="861.326" y2="400.07" gradientUnits="userSpaceOnUse">
<stop stop-color="#3898EC"/>
<stop offset="0.53" stop-color="#6299BC"/>
<stop offset="1" stop-color="#FA9E0B"/>
</linearGradient>
<linearGradient id="paint12_linear_455_48960" x1="871.448" y1="87.4697" x2="871.448" y2="403.64" gradientUnits="userSpaceOnUse">
<stop stop-color="#3898EC"/>
<stop offset="0.53" stop-color="#6299BC"/>
<stop offset="1" stop-color="#FA9E0B"/>
</linearGradient>
<linearGradient id="paint13_linear_455_48960" x1="881.584" y1="96.9058" x2="881.584" y2="407.551" gradientUnits="userSpaceOnUse">
<stop stop-color="#3898EC"/>
<stop offset="0.53" stop-color="#6299BC"/>
<stop offset="1" stop-color="#FA9E0B"/>
</linearGradient>
<linearGradient id="paint14_linear_455_48960" x1="891.598" y1="106.67" x2="891.598" y2="411.766" gradientUnits="userSpaceOnUse">
<stop stop-color="#3898EC"/>
<stop offset="0.53" stop-color="#6299BC"/>
<stop offset="1" stop-color="#FA9E0B"/>
</linearGradient>
<linearGradient id="paint15_linear_455_48960" x1="901.348" y1="116.51" x2="901.348" y2="416.255" gradientUnits="userSpaceOnUse">
<stop stop-color="#3898EC"/>
<stop offset="0.53" stop-color="#6299BC"/>
<stop offset="1" stop-color="#FA9E0B"/>
</linearGradient>
<linearGradient id="paint16_linear_455_48960" x1="910.704" y1="126.487" x2="910.704" y2="420.978" gradientUnits="userSpaceOnUse">
<stop stop-color="#3898EC"/>
<stop offset="0.53" stop-color="#6299BC"/>
<stop offset="1" stop-color="#FA9E0B"/>
</linearGradient>
<linearGradient id="paint17_linear_455_48960" x1="919.526" y1="136.564" x2="919.526" y2="425.9" gradientUnits="userSpaceOnUse">
<stop stop-color="#3898EC"/>
<stop offset="0.53" stop-color="#6299BC"/>
<stop offset="1" stop-color="#FA9E0B"/>
</linearGradient>
<linearGradient id="paint18_linear_455_48960" x1="927.665" y1="146.649" x2="927.665" y2="430.993" gradientUnits="userSpaceOnUse">
<stop stop-color="#3898EC"/>
<stop offset="0.53" stop-color="#6299BC"/>
<stop offset="1" stop-color="#FA9E0B"/>
</linearGradient>
<linearGradient id="paint19_linear_455_48960" x1="935.001" y1="156.675" x2="935.001" y2="436.226" gradientUnits="userSpaceOnUse">
<stop stop-color="#3898EC"/>
<stop offset="0.53" stop-color="#6299BC"/>
<stop offset="1" stop-color="#FA9E0B"/>
</linearGradient>
<linearGradient id="paint20_linear_455_48960" x1="942.026" y1="167.229" x2="942.026" y2="442.169" gradientUnits="userSpaceOnUse">
<stop stop-color="#3898EC"/>
<stop offset="0.53" stop-color="#6299BC"/>
<stop offset="1" stop-color="#FA9E0B"/>
</linearGradient>
<linearGradient id="paint21_linear_455_48960" x1="948.545" y1="177.771" x2="948.545" y2="448.391" gradientUnits="userSpaceOnUse">
<stop stop-color="#3898EC"/>
<stop offset="0.53" stop-color="#6299BC"/>
<stop offset="1" stop-color="#FA9E0B"/>
</linearGradient>
<linearGradient id="paint22_linear_455_48960" x1="954.448" y1="188.219" x2="954.448" y2="454.772" gradientUnits="userSpaceOnUse">
<stop stop-color="#3898EC"/>
<stop offset="0.53" stop-color="#6299BC"/>
<stop offset="1" stop-color="#FA9E0B"/>
</linearGradient>
<linearGradient id="paint23_linear_455_48960" x1="959.751" y1="198.503" x2="959.751" y2="461.333" gradientUnits="userSpaceOnUse">
<stop stop-color="#3898EC"/>
<stop offset="0.53" stop-color="#6299BC"/>
<stop offset="1" stop-color="#FA9E0B"/>
</linearGradient>
<linearGradient id="paint24_linear_455_48960" x1="964.455" y1="211.949" x2="964.455" y2="468.102" gradientUnits="userSpaceOnUse">
<stop stop-color="#3898EC"/>
<stop offset="0.53" stop-color="#6299BC"/>
<stop offset="1" stop-color="#FA9E0B"/>
</linearGradient>
<linearGradient id="paint25_linear_455_48960" x1="968.565" y1="221.183" x2="968.565" y2="475.112" gradientUnits="userSpaceOnUse">
<stop stop-color="#3898EC"/>
<stop offset="0.53" stop-color="#6299BC"/>
<stop offset="1" stop-color="#FA9E0B"/>
</linearGradient>
<linearGradient id="paint26_linear_455_48960" x1="972.09" y1="230.993" x2="972.09" y2="482.696" gradientUnits="userSpaceOnUse">
<stop stop-color="#3898EC"/>
<stop offset="0.53" stop-color="#6299BC"/>
<stop offset="1" stop-color="#FA9E0B"/>
</linearGradient>
<linearGradient id="paint27_linear_455_48960" x1="975.042" y1="239.683" x2="975.042" y2="490.027" gradientUnits="userSpaceOnUse">
<stop stop-color="#3898EC"/>
<stop offset="0.53" stop-color="#6299BC"/>
<stop offset="1" stop-color="#FA9E0B"/>
</linearGradient>
<linearGradient id="paint28_linear_455_48960" x1="977.422" y1="249.241" x2="977.422" y2="497.943" gradientUnits="userSpaceOnUse">
<stop stop-color="#3898EC"/>
<stop offset="0.53" stop-color="#6299BC"/>
<stop offset="1" stop-color="#FA9E0B"/>
</linearGradient>
<linearGradient id="paint29_linear_455_48960" x1="979.235" y1="258.32" x2="979.235" y2="506.166" gradientUnits="userSpaceOnUse">
<stop stop-color="#3898EC"/>
<stop offset="0.53" stop-color="#6299BC"/>
<stop offset="1" stop-color="#FA9E0B"/>
</linearGradient>
<linearGradient id="paint30_linear_455_48960" x1="980.493" y1="263.587" x2="980.493" y2="514.715" gradientUnits="userSpaceOnUse">
<stop stop-color="#3898EC"/>
<stop offset="0.53" stop-color="#6299BC"/>
<stop offset="1" stop-color="#FA9E0B"/>
</linearGradient>
<linearGradient id="paint31_linear_455_48960" x1="981.205" y1="271.43" x2="981.205" y2="523.544" gradientUnits="userSpaceOnUse">
<stop stop-color="#3898EC"/>
<stop offset="0.53" stop-color="#6299BC"/>
<stop offset="1" stop-color="#FA9E0B"/>
</linearGradient>
<linearGradient id="paint32_linear_455_48960" x1="981.371" y1="278.757" x2="981.371" y2="532.614" gradientUnits="userSpaceOnUse">
<stop stop-color="#3898EC"/>
<stop offset="0.53" stop-color="#6299BC"/>
<stop offset="1" stop-color="#FA9E0B"/>
</linearGradient>
<linearGradient id="paint33_linear_455_48960" x1="980.992" y1="286.61" x2="980.992" y2="541.885" gradientUnits="userSpaceOnUse">
<stop stop-color="#3898EC"/>
<stop offset="0.53" stop-color="#6299BC"/>
<stop offset="1" stop-color="#FA9E0B"/>
</linearGradient>
<linearGradient id="paint34_linear_455_48960" x1="980.087" y1="293.8" x2="980.087" y2="551.325" gradientUnits="userSpaceOnUse">
<stop stop-color="#3898EC"/>
<stop offset="0.53" stop-color="#6299BC"/>
<stop offset="1" stop-color="#FA9E0B"/>
</linearGradient>
<linearGradient id="paint35_linear_455_48960" x1="978.664" y1="300.76" x2="978.664" y2="560.907" gradientUnits="userSpaceOnUse">
<stop stop-color="#3898EC"/>
<stop offset="0.53" stop-color="#6299BC"/>
<stop offset="1" stop-color="#FA9E0B"/>
</linearGradient>
<linearGradient id="paint36_linear_455_48960" x1="976.721" y1="307.492" x2="976.721" y2="570.604" gradientUnits="userSpaceOnUse">
<stop stop-color="#3898EC"/>
<stop offset="0.53" stop-color="#6299BC"/>
<stop offset="1" stop-color="#FA9E0B"/>
</linearGradient>
<linearGradient id="paint37_linear_455_48960" x1="974.269" y1="314.233" x2="974.269" y2="580.862" gradientUnits="userSpaceOnUse">
<stop stop-color="#3898EC"/>
<stop offset="0.53" stop-color="#6299BC"/>
<stop offset="1" stop-color="#FA9E0B"/>
</linearGradient>
<linearGradient id="paint38_linear_455_48960" x1="971.318" y1="320.716" x2="971.318" y2="590.757" gradientUnits="userSpaceOnUse">
<stop stop-color="#3898EC"/>
<stop offset="0.53" stop-color="#6299BC"/>
<stop offset="1" stop-color="#FA9E0B"/>
</linearGradient>
<linearGradient id="paint39_linear_455_48960" x1="967.864" y1="327.032" x2="967.864" y2="600.54" gradientUnits="userSpaceOnUse">
<stop stop-color="#3898EC"/>
<stop offset="0.53" stop-color="#6299BC"/>
<stop offset="1" stop-color="#FA9E0B"/>
</linearGradient>
<linearGradient id="paint40_linear_455_48960" x1="963.925" y1="333.079" x2="963.925" y2="610.48" gradientUnits="userSpaceOnUse">
<stop stop-color="#3898EC"/>
<stop offset="0.53" stop-color="#6299BC"/>
<stop offset="1" stop-color="#FA9E0B"/>
</linearGradient>
<linearGradient id="paint41_linear_455_48960" x1="959.508" y1="339.1" x2="959.508" y2="620.432" gradientUnits="userSpaceOnUse">
<stop stop-color="#3898EC"/>
<stop offset="0.53" stop-color="#6299BC"/>
<stop offset="1" stop-color="#FA9E0B"/>
</linearGradient>
<linearGradient id="paint42_linear_455_48960" x1="954.612" y1="343.523" x2="954.612" y2="631.843" gradientUnits="userSpaceOnUse">
<stop stop-color="#3898EC"/>
<stop offset="0.53" stop-color="#6299BC"/>
<stop offset="1" stop-color="#FA9E0B"/>
</linearGradient>
<linearGradient id="paint43_linear_455_48960" x1="949.247" y1="347.478" x2="949.247" y2="643.543" gradientUnits="userSpaceOnUse">
<stop stop-color="#3898EC"/>
<stop offset="0.53" stop-color="#6299BC"/>
<stop offset="1" stop-color="#FA9E0B"/>
</linearGradient>
<linearGradient id="paint44_linear_455_48960" x1="943.423" y1="351.305" x2="943.423" y2="655.419" gradientUnits="userSpaceOnUse">
<stop stop-color="#3898EC"/>
<stop offset="0.53" stop-color="#6299BC"/>
<stop offset="1" stop-color="#FA9E0B"/>
</linearGradient>
<linearGradient id="paint45_linear_455_48960" x1="937.143" y1="354.993" x2="937.143" y2="667.054" gradientUnits="userSpaceOnUse">
<stop stop-color="#3898EC"/>
<stop offset="0.53" stop-color="#6299BC"/>
<stop offset="1" stop-color="#FA9E0B"/>
</linearGradient>
<linearGradient id="paint46_linear_455_48960" x1="930.416" y1="358.562" x2="930.416" y2="678.717" gradientUnits="userSpaceOnUse">
<stop stop-color="#3898EC"/>
<stop offset="0.53" stop-color="#6299BC"/>
<stop offset="1" stop-color="#FA9E0B"/>
</linearGradient>
<linearGradient id="paint47_linear_455_48960" x1="929.022" y1="361.872" x2="929.022" y2="678.427" gradientUnits="userSpaceOnUse">
<stop stop-color="#3898EC"/>
<stop offset="0.53" stop-color="#6299BC"/>
<stop offset="1" stop-color="#FA9E0B"/>
</linearGradient>
<linearGradient id="paint48_linear_455_48960" x1="927.546" y1="365.235" x2="927.546" y2="678.192" gradientUnits="userSpaceOnUse">
<stop stop-color="#3898EC"/>
<stop offset="0.53" stop-color="#6299BC"/>
<stop offset="1" stop-color="#FA9E0B"/>
</linearGradient>
<linearGradient id="paint49_linear_455_48960" x1="925.991" y1="368.622" x2="925.991" y2="678.037" gradientUnits="userSpaceOnUse">
<stop stop-color="#3898EC"/>
<stop offset="0.53" stop-color="#6299BC"/>
<stop offset="1" stop-color="#FA9E0B"/>
</linearGradient>
<linearGradient id="paint50_linear_455_48960" x1="924.356" y1="372.083" x2="924.356" y2="677.921" gradientUnits="userSpaceOnUse">
<stop stop-color="#3898EC"/>
<stop offset="0.53" stop-color="#6299BC"/>
<stop offset="1" stop-color="#FA9E0B"/>
</linearGradient>
<linearGradient id="paint51_linear_455_48960" x1="922.653" y1="375.595" x2="922.653" y2="677.861" gradientUnits="userSpaceOnUse">
<stop stop-color="#3898EC"/>
<stop offset="0.53" stop-color="#6299BC"/>
<stop offset="1" stop-color="#FA9E0B"/>
</linearGradient>
<linearGradient id="paint52_linear_455_48960" x1="920.869" y1="379.151" x2="920.869" y2="677.845" gradientUnits="userSpaceOnUse">
<stop stop-color="#3898EC"/>
<stop offset="0.53" stop-color="#6299BC"/>
<stop offset="1" stop-color="#FA9E0B"/>
</linearGradient>
<linearGradient id="paint53_linear_455_48960" x1="919.016" y1="382.758" x2="919.016" y2="677.882" gradientUnits="userSpaceOnUse">
<stop stop-color="#3898EC"/>
<stop offset="0.53" stop-color="#6299BC"/>
<stop offset="1" stop-color="#FA9E0B"/>
</linearGradient>
<linearGradient id="paint54_linear_455_48960" x1="917.098" y1="386.409" x2="917.098" y2="677.964" gradientUnits="userSpaceOnUse">
<stop stop-color="#3898EC"/>
<stop offset="0.53" stop-color="#6299BC"/>
<stop offset="1" stop-color="#FA9E0B"/>
</linearGradient>
<linearGradient id="paint55_linear_455_48960" x1="915.108" y1="390.102" x2="915.108" y2="678.091" gradientUnits="userSpaceOnUse">
<stop stop-color="#3898EC"/>
<stop offset="0.53" stop-color="#6299BC"/>
<stop offset="1" stop-color="#FA9E0B"/>
</linearGradient>
<linearGradient id="paint56_linear_455_48960" x1="913.061" y1="393.839" x2="913.061" y2="678.263" gradientUnits="userSpaceOnUse">
<stop stop-color="#3898EC"/>
<stop offset="0.53" stop-color="#6299BC"/>
<stop offset="1" stop-color="#FA9E0B"/>
</linearGradient>
</defs>
</svg>
