<svg width="239" height="44" viewBox="0 0 239 44" fill="none" xmlns="http://www.w3.org/2000/svg">
<g clip-path="url(#clip0_284_2266)">
<path fill-rule="evenodd" clip-rule="evenodd" d="M0 15.5V31.5H5C5.52527 31.5 6.04541 31.6035 6.53076 31.8045C7.01599 32.0055 7.45703 32.3001 7.82837 32.6716C8.19983 33.043 8.49451 33.484 8.69556 33.9693C8.89648 34.4546 9 34.9747 9 35.5V40.5H21L36 25.5V9.5H31C30.4747 9.5 29.9546 9.39655 29.4692 9.19553C28.984 8.99451 28.543 8.69986 28.1716 8.32843C27.8002 7.957 27.5055 7.51602 27.3044 7.03073C27.1035 6.54544 27 6.0253 27 5.5V0.5H15L0 15.5ZM17 30.5H10V19.5L19 10.5H26V21.5L17 30.5Z" fill="white"/>
<path d="M230.568 12.7461C233.094 12.7461 235.125 13.5261 236.66 15.0861C238.22 16.6214 239 18.7757 239 21.549V33.6206H233.8V22.2548C233.8 20.6452 233.391 19.4195 232.574 18.5776C231.757 17.7109 230.643 17.2776 229.231 17.2776C227.82 17.2776 226.693 17.7109 225.851 18.5776C225.034 19.4195 224.626 20.6452 224.626 22.2548V33.6206H219.426V22.2548C219.426 20.6452 219.017 19.4195 218.2 18.5776C217.383 17.7109 216.268 17.2776 214.857 17.2776C213.421 17.2776 212.282 17.7109 211.44 18.5776C210.623 19.4195 210.214 20.6452 210.214 22.2548V33.6206H205.014V13.0432H210.214V15.5318C210.883 14.6652 211.737 13.9842 212.777 13.489C213.842 12.9937 215.005 12.7461 216.268 12.7461C217.878 12.7461 219.314 13.0928 220.577 13.7861C221.84 14.4547 222.818 15.4204 223.511 16.6833C224.18 15.4947 225.146 14.5413 226.408 13.8232C227.696 13.1051 229.083 12.7461 230.568 12.7461Z" fill="white"/>
<path d="M201.183 13.043V33.6204H195.946V31.0203C195.278 31.9118 194.398 32.6175 193.309 33.1375C192.244 33.6327 191.08 33.8804 189.817 33.8804C188.208 33.8804 186.784 33.5461 185.546 32.8775C184.308 32.1842 183.33 31.1813 182.612 29.8689C181.918 28.5317 181.572 26.947 181.572 25.1146V13.043H186.772V24.3717C186.772 26.006 187.18 27.2689 187.997 28.1603C188.815 29.027 189.929 29.4603 191.34 29.4603C192.777 29.4603 193.903 29.027 194.72 28.1603C195.538 27.2689 195.946 26.006 195.946 24.3717V13.043H201.183Z" fill="white"/>
<path d="M170.692 33.955C169.008 33.955 167.497 33.6578 166.16 33.0635C164.823 32.4445 163.758 31.6149 162.966 30.5749C162.198 29.5349 161.777 28.3835 161.703 27.1206H166.94C167.039 27.913 167.423 28.5692 168.092 29.0892C168.785 29.6092 169.639 29.8692 170.654 29.8692C171.645 29.8692 172.413 29.6711 172.957 29.2749C173.527 28.8787 173.812 28.3711 173.812 27.7521C173.812 27.0835 173.465 26.5882 172.772 26.2663C172.103 25.9197 171.026 25.5482 169.54 25.152C168.005 24.7806 166.742 24.3968 165.752 24.0006C164.786 23.6044 163.944 22.9977 163.226 22.1806C162.532 21.3634 162.186 20.2615 162.186 18.8748C162.186 17.7358 162.508 16.6958 163.152 15.7548C163.82 14.8138 164.761 14.071 165.974 13.5262C167.213 12.9814 168.661 12.709 170.32 12.709C172.772 12.709 174.728 13.3281 176.189 14.5662C177.65 15.7796 178.455 17.4262 178.603 19.5063H173.626C173.552 18.6891 173.205 18.0453 172.586 17.5748C171.992 17.0796 171.187 16.8319 170.172 16.8319C169.231 16.8319 168.5 17.0053 167.98 17.352C167.485 17.6986 167.237 18.1815 167.237 18.8005C167.237 19.4939 167.584 20.0263 168.277 20.3977C168.971 20.7444 170.048 21.1034 171.509 21.4748C172.994 21.8463 174.22 22.2301 175.186 22.6263C176.152 23.0225 176.981 23.6415 177.675 24.4834C178.393 25.3006 178.764 26.3901 178.789 27.7521C178.789 28.9406 178.455 30.0054 177.786 30.9464C177.142 31.8873 176.201 32.6302 174.963 33.175C173.75 33.695 172.326 33.955 170.692 33.955Z" fill="white"/>
<path d="M144.144 16.0148C144.813 15.0738 145.729 14.2938 146.893 13.6748C148.081 13.031 149.431 12.709 150.941 12.709C152.699 12.709 154.284 13.1424 155.696 14.0091C157.132 14.8757 158.258 16.1138 159.076 17.7234C159.918 19.3082 160.338 21.1529 160.338 23.2577C160.338 25.3625 159.918 27.232 159.076 28.8663C158.258 30.4759 157.132 31.7264 155.696 32.6178C154.284 33.5092 152.699 33.955 150.941 33.955C149.431 33.955 148.094 33.6454 146.93 33.0264C145.791 32.4073 144.862 31.6273 144.144 30.6864V43.4265H138.944V13.0433H144.144V16.0148ZM155.027 23.2577C155.027 22.0196 154.767 20.9548 154.247 20.0634C153.752 19.1472 153.083 18.4539 152.241 17.9834C151.424 17.5129 150.533 17.2777 149.567 17.2777C148.626 17.2777 147.735 17.5253 146.893 18.0205C146.075 18.491 145.407 19.1843 144.887 20.1005C144.392 21.0167 144.144 22.0939 144.144 23.332C144.144 24.5701 144.392 25.6473 144.887 26.5635C145.407 27.4797 146.075 28.1854 146.893 28.6806C147.735 29.1511 148.626 29.3864 149.567 29.3864C150.533 29.3864 151.424 29.1387 152.241 28.6435C153.083 28.1482 153.752 27.4425 154.247 26.5263C154.767 25.6101 155.027 24.5206 155.027 23.2577Z" fill="white"/>
<path d="M132.543 10.5915C131.627 10.5915 130.86 10.3067 130.241 9.73719C129.646 9.1429 129.349 8.41242 129.349 7.54574C129.349 6.67907 129.646 5.96097 130.241 5.39144C130.86 4.79715 131.627 4.5 132.543 4.5C133.46 4.5 134.215 4.79715 134.809 5.39144C135.428 5.96097 135.738 6.67907 135.738 7.54574C135.738 8.41242 135.428 9.1429 134.809 9.73719C134.215 10.3067 133.46 10.5915 132.543 10.5915ZM135.106 13.0429V33.6203H129.906V13.0429H135.106Z" fill="white"/>
<path d="M116.657 33.955C114.676 33.955 112.894 33.5216 111.309 32.655C109.724 31.7635 108.474 30.513 107.557 28.9035C106.666 27.294 106.22 25.4368 106.22 23.332C106.22 21.2272 106.678 19.3701 107.594 17.7605C108.535 16.151 109.811 14.9129 111.42 14.0462C113.03 13.1548 114.825 12.709 116.806 12.709C118.787 12.709 120.582 13.1548 122.192 14.0462C123.801 14.9129 125.064 16.151 125.98 17.7605C126.921 19.3701 127.392 21.2272 127.392 23.332C127.392 25.4368 126.909 27.294 125.943 28.9035C125.002 30.513 123.715 31.7635 122.08 32.655C120.471 33.5216 118.663 33.955 116.657 33.955ZM116.657 29.4235C117.598 29.4235 118.477 29.2006 119.295 28.7549C120.137 28.2844 120.805 27.5911 121.3 26.6749C121.796 25.7587 122.043 24.6444 122.043 23.332C122.043 21.3758 121.523 19.8777 120.483 18.8377C119.468 17.7729 118.217 17.2405 116.732 17.2405C115.246 17.2405 113.996 17.7729 112.98 18.8377C111.99 19.8777 111.495 21.3758 111.495 23.332C111.495 25.2882 111.977 26.7987 112.943 27.8635C113.934 28.9035 115.172 29.4235 116.657 29.4235Z" fill="white"/>
<path d="M94.2712 33.955C92.2902 33.955 90.5074 33.5216 88.9226 32.655C87.3378 31.7635 86.0873 30.513 85.1711 28.9035C84.2797 27.294 83.834 25.4368 83.834 23.332C83.834 21.2272 84.2921 19.3701 85.2083 17.7605C86.1492 16.151 87.4245 14.9129 89.034 14.0462C90.6436 13.1548 92.4388 12.709 94.4198 12.709C96.4008 12.709 98.196 13.1548 99.8056 14.0462C101.415 14.9129 102.678 16.151 103.594 17.7605C104.535 19.3701 105.006 21.2272 105.006 23.332C105.006 25.4368 104.523 27.294 103.557 28.9035C102.616 30.513 101.329 31.7635 99.6941 32.655C98.0846 33.5216 96.277 33.955 94.2712 33.955ZM94.2712 29.4235C95.2122 29.4235 96.0912 29.2006 96.9084 28.7549C97.7503 28.2844 98.4189 27.5911 98.9141 26.6749C99.4094 25.7587 99.657 24.6444 99.657 23.332C99.657 21.3758 99.137 19.8777 98.097 18.8377C97.0817 17.7729 95.8312 17.2405 94.3455 17.2405C92.8598 17.2405 91.6093 17.7729 90.594 18.8377C89.6036 19.8777 89.1083 21.3758 89.1083 23.332C89.1083 25.2882 89.5912 26.7987 90.5569 27.8635C91.5474 28.9035 92.7855 29.4235 94.2712 29.4235Z" fill="white"/>
<path d="M71.8854 33.955C69.9044 33.955 68.1216 33.5216 66.5368 32.655C64.952 31.7635 63.7015 30.513 62.7853 28.9035C61.8939 27.294 61.4482 25.4368 61.4482 23.332C61.4482 21.2272 61.9063 19.3701 62.8225 17.7605C63.7634 16.151 65.0387 14.9129 66.6482 14.0462C68.2577 13.1548 70.053 12.709 72.034 12.709C74.0149 12.709 75.8102 13.1548 77.4197 14.0462C79.0293 14.9129 80.2921 16.151 81.2083 17.7605C82.1493 19.3701 82.6198 21.2272 82.6198 23.332C82.6198 25.4368 82.1369 27.294 81.1712 28.9035C80.2302 30.513 78.9426 31.7635 77.3083 32.655C75.6988 33.5216 73.8911 33.955 71.8854 33.955ZM71.8854 29.4235C72.8264 29.4235 73.7054 29.2006 74.5226 28.7549C75.3645 28.2844 76.0331 27.5911 76.5283 26.6749C77.0235 25.7587 77.2712 24.6444 77.2712 23.332C77.2712 21.3758 76.7512 19.8777 75.7111 18.8377C74.6959 17.7729 73.4454 17.2405 71.9597 17.2405C70.474 17.2405 69.2235 17.7729 68.2082 18.8377C67.2177 19.8777 66.7225 21.3758 66.7225 23.332C66.7225 25.2882 67.2054 26.7987 68.1711 27.8635C69.1616 28.9035 70.3997 29.4235 71.8854 29.4235Z" fill="white"/>
<path d="M52.2 29.4975H60.743V33.6203H47V7.69434H52.2V29.4975Z" fill="white"/>
<path d="M85.2061 36.3846C86.5233 40.3018 90.2255 43.1234 94.5866 43.1234H95.1293C100.594 43.1234 105.024 38.6935 105.024 33.229V32.6699H99.6595V33.229C99.6595 35.731 97.6313 37.7592 95.1293 37.7592H94.5866C93.3115 37.7592 92.1594 37.2324 91.3362 36.3846H85.2061Z" fill="white"/>
</g>
<defs>
<clipPath id="clip0_284_2266">
<rect width="239" height="43" fill="white" transform="translate(0 0.5)"/>
</clipPath>
</defs>
</svg>
