<svg width="194" height="73" viewBox="0 0 194 73" fill="none" xmlns="http://www.w3.org/2000/svg">
<path d="M31.098 72.97L13.1753 53.5217L19.0936 47.4735L31.1088 60.165L58.6772 28.8097L58.2228 41.8852L31.098 72.97Z" fill="#FFA124"/>
<path d="M89.5295 28.9124H82.4968L81.1119 34.1383H75.6479L83.7302 8.58777H88.453L96.4108 34.1924H90.8928L89.5295 28.9124ZM83.622 24.5846H88.3989L86.0456 15.4582L83.622 24.5846Z" fill="#00060F"/>
<path d="M106.191 34.5603C105.011 34.5753 103.838 34.3679 102.735 33.949C101.766 33.5739 100.896 32.9816 100.192 32.2178C99.478 31.4237 98.9446 30.4843 98.6285 29.4642C98.2527 28.2674 98.0701 27.0183 98.0876 25.7639V24.2005C98.0739 22.8274 98.256 21.4594 98.6285 20.1377C98.9275 19.0708 99.4391 18.0753 100.132 17.211C100.774 16.4312 101.597 15.8202 102.529 15.4312C103.555 15.0216 104.654 14.8229 105.759 14.8469C108.171 14.8469 109.975 15.6331 111.168 17.2056C112.362 18.778 112.956 21.0862 112.948 24.1301V26.3969L103.054 26.3644C103.068 27.0131 103.168 27.6571 103.351 28.2795C103.49 28.7407 103.726 29.1668 104.044 29.5291C104.34 29.847 104.712 30.0835 105.126 30.2162C105.581 30.3648 106.058 30.4379 106.538 30.4326C107.342 30.4491 108.141 30.3 108.886 29.9944C109.568 29.6993 110.187 29.2749 110.709 28.7447L112.645 31.7526C112.367 32.1284 112.042 32.4666 111.677 32.7588C111.244 33.1127 110.772 33.4159 110.27 33.6622C109.686 33.9425 109.073 34.1601 108.442 34.3114C107.705 34.4851 106.949 34.5687 106.191 34.5603ZM105.699 18.9746C105.331 18.9463 104.961 19.0172 104.629 19.1799C104.297 19.3425 104.015 19.5911 103.811 19.8997C103.336 20.8227 103.095 21.848 103.108 22.8859H108.079V22.4315C108.117 21.5379 107.931 20.6491 107.539 19.8456C107.341 19.5462 107.065 19.3068 106.74 19.1532C106.416 18.9997 106.056 18.9379 105.699 18.9746Z" fill="#00060F"/>
<path d="M115.172 24.1573C115.172 21.0412 115.742 18.7186 116.881 17.1894C117.418 16.4446 118.132 15.8456 118.958 15.4469C119.785 15.0482 120.698 14.8624 121.615 14.9065C122.433 14.8828 123.243 15.0691 123.968 15.4475C124.618 15.8191 125.173 16.3356 125.591 16.9568L125.786 15.269H130.271L130.2 34.279C130.222 35.4259 130.024 36.5664 129.616 37.6385C129.266 38.5294 128.71 39.3247 127.993 39.9593C127.268 40.5824 126.418 41.0418 125.499 41.3064C124.444 41.6085 123.35 41.7525 122.253 41.7337C121.76 41.7263 121.267 41.6774 120.782 41.5877C120.232 41.4873 119.689 41.3481 119.159 41.1711C118.64 40.9912 118.138 40.7649 117.66 40.4949C117.204 40.2373 116.793 39.9065 116.443 39.5157L118.126 36.0751C118.365 36.3331 118.633 36.5619 118.926 36.7567C119.555 37.1711 120.253 37.4697 120.987 37.6385C121.342 37.7254 121.705 37.7725 122.069 37.7792C122.522 37.7856 122.973 37.731 123.411 37.6169C123.783 37.5224 124.125 37.3364 124.406 37.0759C124.697 36.7718 124.907 36.3999 125.018 35.9939C125.167 35.4514 125.236 34.8902 125.223 34.3277V32.7643C124.797 33.3323 124.252 33.8011 123.627 34.1384C122.972 34.4689 122.246 34.6325 121.512 34.6144C120.575 34.6282 119.649 34.4206 118.807 34.0085C118.005 33.5962 117.319 32.99 116.811 32.2449C116.226 31.3677 115.803 30.393 115.561 29.3669C115.257 28.0677 115.115 26.7357 115.139 25.4015L115.172 24.1573ZM120.138 25.4232C120.138 27.1759 120.362 28.4563 120.809 29.2641C121.019 29.6488 121.334 29.9665 121.717 30.1808C122.099 30.3951 122.535 30.4973 122.973 30.4759C123.443 30.4892 123.911 30.3909 124.336 30.1892C124.7 29.9973 125.009 29.7162 125.234 29.3723L125.266 20.2947C125.04 19.9217 124.724 19.6112 124.347 19.3912C123.948 19.1714 123.498 19.0613 123.043 19.0721C122.606 19.0527 122.172 19.1552 121.79 19.3683C121.408 19.5813 121.092 19.8964 120.879 20.2784C120.398 21.0845 120.16 22.3829 120.154 24.1735L120.138 25.4232Z" fill="#00060F"/>
<path d="M133.89 10.3784C133.883 10.0084 133.949 9.6407 134.084 9.29645C134.212 8.98208 134.406 8.69871 134.652 8.46541C134.898 8.23212 135.192 8.05432 135.513 7.94399C136.235 7.68778 137.024 7.68778 137.747 7.94399C138.063 8.06563 138.352 8.2496 138.596 8.48497C138.831 8.72359 139.015 9.00692 139.137 9.31809C139.397 10.003 139.397 10.7593 139.137 11.4441C139.017 11.7595 138.832 12.0468 138.596 12.2881C138.355 12.5296 138.063 12.7144 137.741 12.8291C137.386 12.9641 137.007 13.0284 136.627 13.0184C136.248 13.0304 135.87 12.9717 135.513 12.8453C135.193 12.7299 134.903 12.5452 134.663 12.3043C134.427 12.0632 134.243 11.7759 134.122 11.4604C133.971 11.1196 133.892 10.7512 133.89 10.3784ZM139.018 34.3222H134.03L134.101 15.3176H139.089L139.018 34.3222Z" fill="#00060F"/>
<path d="M151.32 29.275C151.325 29.0373 151.264 28.8029 151.142 28.5987C150.988 28.3595 150.792 28.1505 150.563 27.982C150.241 27.7402 149.897 27.53 149.535 27.3545C149.118 27.1381 148.615 26.9055 148.031 26.6458C147.245 26.3297 146.477 25.9684 145.732 25.5638C145.114 25.2295 144.548 24.8087 144.049 24.3142C143.604 23.8654 143.252 23.332 143.016 22.7453C142.773 22.1031 142.657 21.4195 142.675 20.7329C142.67 19.9629 142.825 19.2003 143.13 18.4932C143.431 17.8036 143.874 17.1845 144.428 16.6755C145.028 16.1332 145.731 15.7174 146.495 15.4529C147.385 15.1432 148.323 14.9948 149.265 15.0147C150.24 15.0033 151.21 15.1513 152.137 15.4529C152.931 15.715 153.667 16.1304 154.301 16.6755C154.893 17.1908 155.359 17.8348 155.664 18.5581C155.986 19.3286 156.145 20.1576 156.13 20.9925H151.158C151.196 20.3915 151.045 19.7936 150.725 19.283C150.546 19.0659 150.316 18.8961 150.056 18.7885C149.795 18.681 149.512 18.639 149.232 18.6663C148.994 18.6568 148.757 18.6949 148.534 18.7786C148.311 18.8622 148.107 18.9896 147.934 19.1532C147.757 19.3329 147.621 19.5475 147.532 19.7832C147.444 20.0189 147.405 20.2705 147.42 20.5219C147.414 20.7525 147.47 20.9804 147.582 21.1819C147.722 21.4077 147.906 21.6028 148.123 21.7553C148.438 21.9762 148.771 22.1699 149.118 22.3342C149.524 22.5397 150.027 22.767 150.622 23.0266C151.471 23.3372 152.295 23.7097 153.089 24.1411C153.725 24.4865 154.307 24.924 154.815 25.4394C155.261 25.9042 155.606 26.4569 155.827 27.0623C156.06 27.7276 156.17 28.4297 156.151 29.1343C156.161 29.9285 155.991 30.7146 155.654 31.4335C155.327 32.1222 154.848 32.7273 154.252 33.2025C153.6 33.7177 152.857 34.1066 152.061 34.3494C151.132 34.6309 150.165 34.7659 149.194 34.7497C148.148 34.7684 147.108 34.5847 146.132 34.2087C145.305 33.8832 144.551 33.3958 143.914 32.7751C143.346 32.2163 142.895 31.5503 142.587 30.8157C142.279 30.0811 142.119 29.2926 142.118 28.4959H146.846C146.842 28.9283 146.911 29.3583 147.052 29.7673C147.159 30.0701 147.335 30.3441 147.566 30.5679C147.784 30.7698 148.051 30.9131 148.339 30.9845C148.658 31.0646 148.985 31.1046 149.313 31.1035C150.651 31.0927 151.32 30.4832 151.32 29.275Z" fill="#00060F"/>
<path d="M173.16 34.4467H167.993L168.085 8.86914H173.246L173.16 34.4467Z" fill="#00060F"/>
<path d="M193.625 13.2456H187.306L187.23 34.517H182.048L182.124 13.2402H175.902V8.91235L193.625 8.97186V13.2456Z" fill="#00060F"/>
<path d="M85.9533 56.0643C85.9624 55.7195 85.9055 55.3761 85.7856 55.0526C85.6516 54.736 85.4394 54.4587 85.1689 54.2466C84.8049 53.962 84.4024 53.7307 83.9733 53.5595C83.3504 53.3004 82.7127 53.0782 82.0636 52.8941C81.3248 52.6771 80.6018 52.4096 79.8997 52.0935C79.2989 51.8274 78.7366 51.4817 78.2281 51.0656C77.7798 50.7032 77.4114 50.2519 77.1461 49.7402C76.8953 49.2097 76.7712 48.6282 76.7836 48.0415C76.7779 47.4281 76.9169 46.8221 77.1894 46.2725C77.4602 45.7244 77.848 45.2424 78.3254 44.8606C78.8461 44.443 79.4407 44.1274 80.0782 43.9301C80.8165 43.6982 81.5874 43.5868 82.3612 43.6001C83.2006 43.5881 84.0351 43.7311 84.8226 44.022C85.4899 44.2645 86.1049 44.6317 86.6349 45.104C87.1134 45.5493 87.4915 46.0915 87.7439 46.6945C87.9946 47.281 88.1234 47.9123 88.1226 48.55H85.9587C85.9635 48.1185 85.8902 47.6896 85.7423 47.2841C85.6005 46.899 85.373 46.5513 85.0769 46.2671C84.7564 45.9666 84.3742 45.7395 83.9571 45.6017C83.4346 45.4258 82.8852 45.3434 82.3341 45.3583C81.8238 45.3484 81.3149 45.4158 80.8248 45.5584C80.4393 45.6633 80.08 45.8475 79.7699 46.0994C79.4979 46.3224 79.2843 46.6084 79.1477 46.9325C79.0057 47.2752 78.9358 47.6435 78.9422 48.0145C78.9374 48.3428 79.0117 48.6675 79.1586 48.9612C79.3296 49.2684 79.566 49.5343 79.851 49.7402C80.2164 50.0109 80.6144 50.2345 81.0358 50.4056C81.5999 50.6383 82.178 50.8353 82.7669 50.9953C83.5913 51.2313 84.3947 51.5353 85.1689 51.9041C85.7724 52.1786 86.3306 52.5435 86.8243 52.9861C87.241 53.3671 87.5728 53.8316 87.798 54.3494C88.0171 54.8921 88.1239 55.4737 88.1118 56.0589C88.1194 56.6869 87.9785 57.3079 87.7006 57.8711C87.4266 58.4128 87.0302 58.8833 86.5429 59.2452C86.0039 59.6497 85.3924 59.9471 84.7415 60.1216C83.9796 60.3363 83.1904 60.4384 82.399 60.4246C81.8942 60.4245 81.3905 60.3756 80.8951 60.2785C80.4006 60.1844 79.9168 60.0412 79.4507 59.8511C78.999 59.6677 78.5704 59.4316 78.174 59.1479C77.7861 58.8767 77.4398 58.5505 77.1461 58.1795C76.8513 57.8075 76.6209 57.3888 76.4645 56.9407C76.2969 56.4574 76.2163 55.9482 76.2264 55.4367H78.3904C78.3708 55.9383 78.4827 56.4362 78.7149 56.8811C78.9289 57.2775 79.2305 57.6198 79.5968 57.882C79.9871 58.1494 80.4209 58.3471 80.8789 58.4662C81.376 58.5907 81.8865 58.6543 82.399 58.6556C83.3251 58.7187 84.2465 58.4774 85.0228 57.9685C85.321 57.7506 85.5615 57.4633 85.7237 57.1315C85.8858 56.7997 85.9646 56.4334 85.9533 56.0643Z" fill="#455D75"/>
<path d="M92.7753 54.0302C92.7718 53.1972 92.9052 52.3693 93.1702 51.5795C93.4056 50.865 93.7725 50.2008 94.2521 49.6212C94.7333 49.0688 95.3273 48.6261 95.9941 48.3228C96.7156 48.0022 97.4985 47.8434 98.2879 47.8576C99.087 47.8499 99.8785 48.0141 100.609 48.339C101.277 48.6449 101.871 49.0915 102.351 49.6482C102.837 50.2273 103.205 50.8964 103.433 51.6174C103.692 52.4098 103.82 53.2395 103.811 54.0734V54.3169C103.82 55.1516 103.688 55.9818 103.422 56.7729C103.185 57.4908 102.808 58.1545 102.313 58.7259C101.83 59.2762 101.234 59.7154 100.565 60.0134C99.8365 60.3192 99.054 60.4766 98.2635 60.4766C97.4731 60.4766 96.6906 60.3192 95.9617 60.0134C95.2949 59.7101 94.7008 59.2674 94.2197 58.7151C93.7356 58.1365 93.3682 57.4696 93.1377 56.7513C92.8753 55.9595 92.7473 55.1293 92.759 54.2952L92.7753 54.0302ZM94.8635 54.2898C94.8602 54.8699 94.9311 55.448 95.0744 56.0101C95.2014 56.5184 95.4176 57.0001 95.7128 57.4329C95.9951 57.8352 96.365 58.1682 96.7948 58.4067C97.2622 58.6451 97.7794 58.7694 98.3041 58.7694C98.8288 58.7694 99.346 58.6451 99.8134 58.4067C100.243 58.171 100.614 57.8397 100.895 57.4383C101.193 57.0074 101.413 56.5277 101.545 56.021C101.699 55.4606 101.775 54.8818 101.772 54.3006V54.068C101.779 53.4895 101.708 52.9126 101.561 52.3531C101.429 51.843 101.209 51.3598 100.912 50.9249C100.632 50.5191 100.261 50.1839 99.8297 49.9457C99.3655 49.7031 98.8495 49.5763 98.3257 49.5763C97.802 49.5763 97.286 49.7031 96.8218 49.9457C96.3911 50.1828 96.0208 50.5161 95.7398 50.9195C95.4369 51.35 95.2151 51.8322 95.0853 52.3423C94.9405 52.9024 94.8678 53.4787 94.8689 54.0572L94.8635 54.2898Z" fill="#455D75"/>
<path d="M111.461 60.2893H109.378L109.443 43.0266H111.52L111.461 60.2893Z" fill="#455D75"/>
<path d="M125.061 59.1371C124.666 59.5932 124.169 59.9507 123.611 60.1812C122.938 60.4458 122.219 60.5727 121.496 60.5545C120.945 60.5555 120.397 60.4679 119.873 60.2948C119.397 60.1296 118.966 59.8533 118.618 59.4887C118.244 59.0875 117.967 58.6065 117.807 58.0822C117.603 57.411 117.51 56.7113 117.531 56.0102V48.1498H119.608V56.0265C119.593 56.4866 119.657 56.9458 119.797 57.3843C119.898 57.7005 120.07 57.9892 120.3 58.2283C120.499 58.4286 120.744 58.5757 121.015 58.6556C121.285 58.7352 121.566 58.777 121.848 58.7801C122.559 58.8139 123.265 58.6491 123.887 58.304C124.387 57.9971 124.783 57.5465 125.023 57.0111L125.056 48.166H127.133L127.09 60.3273H125.11L125.061 59.1371Z" fill="#455D75"/>
<path d="M135.875 45.2718V48.2147H138.142V49.8376H135.875V57.3789C135.864 57.6359 135.901 57.8926 135.983 58.1363C136.044 58.3067 136.146 58.4592 136.281 58.5799C136.403 58.6849 136.55 58.7575 136.708 58.7909C136.872 58.8239 137.039 58.8402 137.206 58.8396C137.387 58.843 137.568 58.8285 137.747 58.7963L138.19 58.7097V60.3976C138.023 60.4409 137.812 60.4896 137.547 60.5383C137.233 60.5977 136.914 60.6231 136.595 60.614C136.228 60.6158 135.863 60.5611 135.513 60.4517C135.178 60.3436 134.875 60.1583 134.625 59.9107C134.352 59.6237 134.145 59.2802 134.02 58.9045C133.86 58.4085 133.787 57.8888 133.803 57.3681V49.8376H131.563V48.2147H133.782V45.2664L135.875 45.2718Z" fill="#455D75"/>
<path d="M143.346 45.0175C143.337 44.7029 143.45 44.397 143.66 44.1628C143.778 44.0425 143.921 43.9497 144.079 43.8908C144.237 43.8319 144.406 43.8084 144.574 43.822C144.744 43.8101 144.914 43.8354 145.073 43.8962C145.232 43.9569 145.375 44.0516 145.494 44.1736C145.705 44.4072 145.817 44.7136 145.808 45.0283C145.816 45.3391 145.702 45.6406 145.488 45.8669C145.368 45.9851 145.223 46.0762 145.065 46.134C144.906 46.1918 144.737 46.2151 144.569 46.2023C144.401 46.2154 144.232 46.1918 144.074 46.1329C143.916 46.074 143.773 45.9814 143.654 45.8615C143.445 45.6315 143.334 45.3284 143.346 45.0175ZM145.51 60.4139H143.433L143.476 48.2526H145.553L145.51 60.4139Z" fill="#455D75"/>
<path d="M151.098 54.2412C151.094 53.4064 151.228 52.5766 151.493 51.7851C151.729 51.0706 152.095 50.4064 152.575 49.8268C153.056 49.2744 153.65 48.8317 154.317 48.5284C155.039 48.2097 155.822 48.0527 156.611 48.0686C157.41 48.057 158.202 48.2195 158.932 48.5447C159.6 48.8509 160.194 49.2974 160.674 49.8538C161.16 50.4331 161.527 51.1021 161.756 51.823C162.011 52.6164 162.137 53.4457 162.129 54.2791V54.5279C162.137 55.3608 162.005 56.1891 161.739 56.9786C161.515 57.6958 161.151 58.3615 160.668 58.9369C160.188 59.4876 159.594 59.927 158.926 60.2244C158.198 60.5406 157.41 60.6973 156.616 60.6843C155.824 60.6932 155.04 60.5308 154.317 60.2082C153.65 59.9049 153.056 59.4622 152.575 58.9099C152.091 58.3332 151.724 57.6681 151.493 56.9515C151.231 56.1577 151.103 55.3259 151.114 54.49L151.098 54.2412ZM153.186 54.4955C153.183 55.0755 153.254 55.6537 153.397 56.2158C153.523 56.7244 153.74 57.2063 154.036 57.6386C154.317 58.042 154.687 58.3752 155.118 58.6123C155.585 58.8507 156.102 58.975 156.627 58.975C157.152 58.975 157.669 58.8507 158.136 58.6123C158.568 58.3782 158.938 58.0466 159.218 57.644C159.51 57.2132 159.726 56.7357 159.857 56.232C160.006 55.6709 160.081 55.0924 160.079 54.5117V54.2682C160.087 53.6897 160.016 53.1127 159.868 52.5533C159.737 52.0412 159.517 51.5559 159.218 51.1197C158.936 50.7161 158.566 50.3814 158.136 50.1406C157.669 49.8895 157.146 49.761 156.616 49.7673C156.095 49.7548 155.58 49.8798 155.123 50.1297C154.695 50.37 154.325 50.7027 154.041 51.1035C153.738 51.534 153.516 52.0162 153.387 52.5263C153.242 53.0865 153.169 53.6627 153.17 54.2412L153.186 54.4955Z" fill="#455D75"/>
<path d="M169.53 48.3337L169.589 49.8647C170.016 49.327 170.555 48.8893 171.169 48.5825C171.814 48.2683 172.523 48.1107 173.241 48.1227C173.792 48.1175 174.34 48.2015 174.864 48.3716C175.33 48.5248 175.75 48.7927 176.086 49.1506C176.443 49.5462 176.709 50.0152 176.865 50.5247C177.059 51.183 177.148 51.8674 177.13 52.5533L177.103 60.522H175.004L175.031 52.5317C175.04 52.1225 174.989 51.7143 174.88 51.3199C174.793 51.0157 174.633 50.7372 174.415 50.5084C174.203 50.2927 173.941 50.1328 173.652 50.0432C173.312 49.9387 172.958 49.8876 172.602 49.8917C171.967 49.8813 171.344 50.0705 170.822 50.4327C170.31 50.7935 169.898 51.2796 169.627 51.8447L169.6 60.5004H167.517L167.56 48.3391L169.53 48.3337Z" fill="#455D75"/>
<path d="M190.071 57.3465C190.075 57.1297 190.042 56.9138 189.974 56.7081C189.89 56.4973 189.754 56.3112 189.579 56.1671C189.325 55.9572 189.038 55.7909 188.729 55.6748C188.259 55.4928 187.774 55.3516 187.279 55.2529C186.663 55.1256 186.055 54.9557 185.462 54.7444C184.974 54.5712 184.512 54.3328 184.088 54.0357C183.729 53.7812 183.433 53.4482 183.222 53.0619C183.013 52.6542 182.91 52.2 182.925 51.7419C182.924 51.2683 183.035 50.8012 183.249 50.3786C183.468 49.941 183.778 49.5554 184.158 49.248C184.579 48.9049 185.059 48.6426 185.575 48.4744C186.174 48.2786 186.801 48.1853 187.431 48.1985C188.093 48.1893 188.751 48.2917 189.378 48.5014C189.913 48.6805 190.409 48.9595 190.839 49.3237C191.233 49.646 191.553 50.0503 191.775 50.5085C191.986 50.9737 192.092 51.4799 192.083 51.9908H189.995C189.994 51.731 189.936 51.4746 189.828 51.2388C189.712 50.9816 189.544 50.7513 189.335 50.5626C189.101 50.3543 188.832 50.1894 188.54 50.0757C188.194 49.9476 187.827 49.8835 187.458 49.8863C187.092 49.8795 186.726 49.9307 186.376 50.0378C186.103 50.12 185.849 50.2561 185.629 50.4381C185.441 50.5917 185.293 50.7884 185.197 51.0116C185.11 51.2189 185.064 51.4413 185.061 51.6662C185.059 51.8732 185.095 52.0789 185.17 52.2721C185.261 52.4744 185.41 52.6455 185.597 52.7644C185.864 52.9375 186.154 53.0739 186.457 53.1701C186.918 53.3258 187.388 53.4541 187.864 53.5542C188.521 53.7033 189.167 53.9004 189.795 54.1439C190.281 54.3327 190.739 54.5895 191.153 54.9067C191.492 55.1756 191.766 55.5177 191.954 55.9075C192.134 56.318 192.222 56.7629 192.213 57.2112C192.217 57.7145 192.102 58.2116 191.878 58.662C191.653 59.1123 191.325 59.5031 190.92 59.8025C190.474 60.1329 189.972 60.3802 189.438 60.5329C188.812 60.7124 188.163 60.7998 187.512 60.7925C186.785 60.8013 186.062 60.6842 185.375 60.4463C184.804 60.2479 184.275 59.9432 183.817 59.5483C183.413 59.1961 183.09 58.7605 182.87 58.2716C182.658 57.8121 182.547 57.3119 182.546 56.8055H184.629C184.633 57.1865 184.737 57.5598 184.932 57.8875C185.107 58.1686 185.342 58.4085 185.619 58.5907C185.896 58.7731 186.204 58.905 186.528 58.9802C187.223 59.1425 187.947 59.1425 188.643 58.9802C188.934 58.9049 189.21 58.7805 189.46 58.6124C189.668 58.4742 189.84 58.2888 189.963 58.0714C190.061 57.8432 190.098 57.5934 190.071 57.3465Z" fill="#455D75"/>
<path d="M59.1803 0.148494L54.6577 0.987015C54.5441 1.01406 41.8257 3.26455 30.3406 3.38356C18.861 3.26455 6.14254 1.01406 6.02893 0.987015L1.14387 -0.0300293L0.92207 4.95241C0.267483 20.4028 2.58288 38.8503 8.31187 48.1606L15.204 41.6255C11.1953 34.3926 10.0538 21.1927 9.96728 10.3676C16.643 11.4326 23.3865 12.0165 30.1459 12.115H30.5624C37.3236 12.0167 44.069 11.4328 50.7464 10.3676V24.6063L58.8125 15.9073L59.1803 0.148494Z" fill="url(#paint0_linear_2002_7837)"/>
<path d="M59.0344 5.05518L58.7748 18.3525L39.0776 40.8952" fill="url(#paint1_linear_2002_7837)"/>
<defs>
<linearGradient id="paint0_linear_2002_7837" x1="42.4586" y1="32.867" x2="5.3527" y2="-4.23886" gradientUnits="userSpaceOnUse">
<stop stop-color="#1875D2" stop-opacity="0"/>
<stop offset="0.48" stop-color="#1875D2"/>
<stop offset="0.98" stop-color="#18396C"/>
</linearGradient>
<linearGradient id="paint1_linear_2002_7837" x1="35.1074" y1="36.9256" x2="63.0059" y2="9.02159" gradientUnits="userSpaceOnUse">
<stop stop-color="#1875D2"/>
<stop offset="0.98" stop-color="#18396C"/>
</linearGradient>
</defs>
</svg>
