<svg width="1075" height="539" viewBox="0 0 1075 539" fill="none" xmlns="http://www.w3.org/2000/svg">
<g filter="url(#filter0_di_2126_9576)">
<path d="M1037 534C1037 406.827 988.541 284.432 901.484 191.726L537 534H1037Z" fill="url(#paint0_linear_2126_9576)"/>
</g>
<g filter="url(#filter1_di_2126_9576)">
<path d="M887.455 177.375C796.748 88.2378 675.485 37.014 548.344 34.1287L537 534L887.455 177.375Z" fill="url(#paint1_linear_2126_9576)"/>
</g>
<g filter="url(#filter2_di_2126_9576)">
<path d="M523.912 34.1714C396.782 37.5004 275.698 89.1471 185.303 178.6L537 534L523.912 34.1714Z" fill="url(#paint2_linear_2126_9576)"/>
</g>
<g filter="url(#filter3_di_2126_9576)">
<path d="M171.323 193.001C84.5911 286.01 36.5591 408.573 37.003 535.745L537 534L171.323 193.001Z" fill="url(#paint3_linear_2126_9576)"/>
</g>
<path d="M689 533.5C689 513.473 685.055 493.643 677.392 475.141C669.728 456.639 658.495 439.827 644.334 425.666C630.173 411.505 613.361 400.272 594.859 392.608C576.357 384.945 556.527 381 536.5 381C516.473 381 496.643 384.945 478.141 392.608C459.639 400.272 442.827 411.505 428.666 425.666C414.505 439.827 403.272 456.639 395.608 475.141C387.945 493.643 384 513.473 384 533.5L536.5 533.5H689Z" fill="#00060F"/>
<path d="M454.738 473V456.396H448.55V453.204H464.398V456.396H458.21V473H454.738ZM471.681 473.196C470.169 473.196 468.863 472.888 467.761 472.272C466.679 471.656 465.839 470.779 465.241 469.64C464.663 468.501 464.373 467.167 464.373 465.636C464.373 464.087 464.672 462.752 465.269 461.632C465.867 460.493 466.707 459.607 467.789 458.972C468.872 458.337 470.169 458.02 471.681 458.02C473.175 458.02 474.463 458.337 475.545 458.972C476.628 459.607 477.459 460.503 478.037 461.66C478.616 462.799 478.905 464.143 478.905 465.692C478.905 467.204 478.616 468.529 478.037 469.668C477.477 470.788 476.656 471.656 475.573 472.272C474.491 472.888 473.193 473.196 471.681 473.196ZM471.653 470.088C472.587 470.088 473.333 469.883 473.893 469.472C474.472 469.061 474.892 468.52 475.153 467.848C475.415 467.176 475.545 466.448 475.545 465.664C475.545 464.88 475.415 464.143 475.153 463.452C474.892 462.761 474.472 462.211 473.893 461.8C473.333 461.371 472.587 461.156 471.653 461.156C470.72 461.156 469.964 461.371 469.385 461.8C468.807 462.211 468.387 462.761 468.125 463.452C467.864 464.124 467.733 464.861 467.733 465.664C467.733 466.448 467.864 467.185 468.125 467.876C468.405 468.548 468.825 469.089 469.385 469.5C469.964 469.892 470.72 470.088 471.653 470.088ZM481.64 478.432V458.244H484.832L485 460.232C485.579 459.467 486.27 458.907 487.072 458.552C487.875 458.197 488.762 458.02 489.732 458.02C491.188 458.02 492.392 458.356 493.344 459.028C494.296 459.7 495.006 460.605 495.472 461.744C495.939 462.883 496.172 464.171 496.172 465.608C496.172 467.045 495.93 468.343 495.444 469.5C494.959 470.639 494.222 471.544 493.232 472.216C492.262 472.869 491.039 473.196 489.564 473.196C488.874 473.196 488.239 473.121 487.66 472.972C487.1 472.823 486.596 472.608 486.148 472.328C485.719 472.048 485.355 471.731 485.056 471.376V478.432H481.64ZM489.032 470.116C489.984 470.116 490.731 469.911 491.272 469.5C491.814 469.071 492.206 468.52 492.448 467.848C492.691 467.157 492.812 466.429 492.812 465.664C492.812 464.861 492.682 464.115 492.42 463.424C492.178 462.733 491.776 462.173 491.216 461.744C490.656 461.315 489.91 461.1 488.976 461.1C488.118 461.1 487.39 461.315 486.792 461.744C486.214 462.155 485.775 462.705 485.476 463.396C485.178 464.087 485.028 464.833 485.028 465.636C485.028 466.457 485.168 467.213 485.448 467.904C485.728 468.576 486.167 469.117 486.764 469.528C487.362 469.92 488.118 470.116 489.032 470.116ZM514.639 473.224C513.313 473.224 512.063 473.028 510.887 472.636C509.729 472.225 508.759 471.581 507.975 470.704C507.191 469.808 506.677 468.641 506.435 467.204H509.991C510.215 467.932 510.569 468.501 511.055 468.912C511.559 469.323 512.147 469.612 512.819 469.78C513.491 469.929 514.172 470.004 514.863 470.004C515.479 470.004 516.057 469.929 516.599 469.78C517.159 469.612 517.616 469.341 517.971 468.968C518.344 468.595 518.531 468.1 518.531 467.484C518.531 467.017 518.428 466.644 518.223 466.364C518.036 466.065 517.765 465.823 517.411 465.636C517.075 465.431 516.664 465.272 516.179 465.16C515.712 465.011 515.208 464.88 514.667 464.768C514.125 464.656 513.593 464.535 513.071 464.404C512.548 464.273 512.053 464.105 511.587 463.9C510.989 463.695 510.411 463.461 509.851 463.2C509.309 462.92 508.833 462.584 508.423 462.192C508.031 461.8 507.713 461.315 507.471 460.736C507.228 460.157 507.107 459.467 507.107 458.664C507.107 457.749 507.256 456.965 507.555 456.312C507.872 455.64 508.283 455.089 508.787 454.66C509.309 454.231 509.888 453.895 510.523 453.652C511.176 453.409 511.848 453.232 512.539 453.12C513.248 453.008 513.92 452.952 514.555 452.952C515.787 452.952 516.907 453.157 517.915 453.568C518.941 453.979 519.781 454.613 520.435 455.472C521.088 456.331 521.461 457.432 521.555 458.776H518.167C518.092 458.141 517.868 457.637 517.495 457.264C517.121 456.872 516.655 456.592 516.095 456.424C515.535 456.237 514.928 456.144 514.275 456.144C513.827 456.144 513.379 456.181 512.931 456.256C512.501 456.331 512.109 456.461 511.755 456.648C511.419 456.835 511.139 457.087 510.915 457.404C510.709 457.703 510.607 458.085 510.607 458.552C510.607 458.963 510.709 459.327 510.915 459.644C511.12 459.943 511.4 460.195 511.755 460.4C512.128 460.605 512.567 460.792 513.071 460.96C513.724 461.221 514.433 461.417 515.199 461.548C515.983 461.679 516.72 461.856 517.411 462.08C518.083 462.267 518.699 462.5 519.259 462.78C519.837 463.041 520.332 463.368 520.743 463.76C521.153 464.133 521.471 464.6 521.695 465.16C521.937 465.701 522.059 466.355 522.059 467.12C522.059 468.24 521.853 469.192 521.443 469.976C521.051 470.741 520.5 471.367 519.791 471.852C519.1 472.337 518.307 472.692 517.411 472.916C516.533 473.121 515.609 473.224 514.639 473.224ZM531.725 473.196C530.194 473.196 528.888 472.879 527.805 472.244C526.741 471.609 525.929 470.732 525.369 469.612C524.828 468.473 524.557 467.157 524.557 465.664C524.557 464.171 524.837 462.855 525.397 461.716C525.976 460.559 526.797 459.653 527.861 459C528.944 458.347 530.241 458.02 531.753 458.02C532.873 458.02 533.853 458.225 534.693 458.636C535.533 459.028 536.233 459.569 536.793 460.26C537.372 460.951 537.801 461.735 538.081 462.612C538.361 463.489 538.492 464.413 538.473 465.384C538.454 465.608 538.436 465.832 538.417 466.056C538.398 466.261 538.37 466.485 538.333 466.728H527.973C528.029 467.381 528.197 467.979 528.477 468.52C528.776 469.061 529.186 469.491 529.709 469.808C530.25 470.125 530.922 470.284 531.725 470.284C532.192 470.284 532.64 470.228 533.069 470.116C533.498 469.985 533.872 469.799 534.189 469.556C534.525 469.313 534.749 469.005 534.861 468.632H538.277C538.034 469.696 537.586 470.564 536.933 471.236C536.28 471.908 535.496 472.403 534.581 472.72C533.685 473.037 532.733 473.196 531.725 473.196ZM528.029 464.18H535.141C535.141 463.564 535.001 463.004 534.721 462.5C534.441 461.996 534.04 461.604 533.517 461.324C533.013 461.025 532.397 460.876 531.669 460.876C530.885 460.876 530.232 461.035 529.709 461.352C529.186 461.669 528.785 462.08 528.505 462.584C528.225 463.088 528.066 463.62 528.029 464.18ZM547.964 473.196C546.434 473.196 545.146 472.888 544.1 472.272C543.055 471.637 542.262 470.751 541.72 469.612C541.179 468.473 540.908 467.157 540.908 465.664C540.908 464.171 541.188 462.855 541.748 461.716C542.308 460.559 543.13 459.653 544.212 459C545.295 458.347 546.611 458.02 548.16 458.02C549.299 458.02 550.307 458.216 551.184 458.608C552.08 459 552.799 459.579 553.34 460.344C553.9 461.091 554.255 462.024 554.404 463.144H551.044C550.82 462.435 550.447 461.921 549.924 461.604C549.42 461.268 548.814 461.1 548.104 461.1C547.152 461.1 546.396 461.333 545.836 461.8C545.295 462.248 544.903 462.817 544.66 463.508C544.418 464.199 544.296 464.917 544.296 465.664C544.296 466.448 544.427 467.185 544.688 467.876C544.95 468.548 545.351 469.089 545.892 469.5C546.452 469.911 547.171 470.116 548.048 470.116C548.758 470.116 549.392 469.957 549.952 469.64C550.531 469.323 550.904 468.809 551.072 468.1H554.544C554.414 469.239 554.031 470.191 553.396 470.956C552.78 471.703 551.996 472.263 551.044 472.636C550.092 473.009 549.066 473.196 547.964 473.196ZM563.633 473.196C561.505 473.196 559.872 472.645 558.733 471.544C557.613 470.443 557.053 468.763 557.053 466.504V458.244H560.469V466.28C560.469 467.064 560.572 467.745 560.777 468.324C561.001 468.903 561.346 469.351 561.813 469.668C562.298 469.967 562.905 470.116 563.633 470.116C564.417 470.116 565.033 469.957 565.481 469.64C565.948 469.304 566.274 468.847 566.461 468.268C566.648 467.689 566.741 467.027 566.741 466.28V458.244H570.157V466.504C570.157 468.819 569.578 470.517 568.421 471.6C567.282 472.664 565.686 473.196 563.633 473.196ZM573.406 473V458.244H576.514L576.71 460.176C577.083 459.616 577.503 459.187 577.97 458.888C578.455 458.571 578.969 458.347 579.51 458.216C580.07 458.085 580.63 458.02 581.19 458.02C581.395 458.02 581.582 458.02 581.75 458.02C581.937 458.02 582.086 458.029 582.198 458.048V461.296H581.302C580.331 461.296 579.51 461.483 578.838 461.856C578.166 462.229 577.662 462.761 577.326 463.452C576.99 464.143 576.822 464.992 576.822 466V473H573.406ZM584.207 473V458.244H587.623V473H584.207ZM585.915 456.536C585.261 456.536 584.739 456.34 584.347 455.948C583.955 455.556 583.759 455.043 583.759 454.408C583.759 453.792 583.964 453.288 584.375 452.896C584.785 452.485 585.299 452.28 585.915 452.28C586.512 452.28 587.025 452.476 587.455 452.868C587.884 453.26 588.099 453.773 588.099 454.408C588.099 455.043 587.893 455.556 587.483 455.948C587.072 456.34 586.549 456.536 585.915 456.536ZM596.813 473.168C595.189 473.168 594.004 472.72 593.257 471.824C592.511 470.928 592.137 469.687 592.137 468.1V461.268H589.869V458.244H592.137V454.1H595.553V458.244H600.033V461.268H595.553V467.456C595.553 467.941 595.609 468.38 595.721 468.772C595.833 469.164 596.039 469.472 596.337 469.696C596.636 469.92 597.047 470.041 597.569 470.06C598.017 470.06 598.4 469.985 598.717 469.836C599.035 469.687 599.296 469.519 599.501 469.332L600.649 471.936C600.295 472.235 599.893 472.477 599.445 472.664C599.016 472.851 598.577 472.981 598.129 473.056C597.681 473.131 597.243 473.168 596.813 473.168ZM609.024 479.748C607.885 479.748 606.774 479.589 605.692 479.272C604.628 478.973 603.638 478.46 602.724 477.732L603.956 474.988C604.59 475.492 605.3 475.884 606.084 476.164C606.868 476.463 607.726 476.612 608.66 476.612C610.134 476.612 611.208 476.239 611.88 475.492C612.57 474.745 612.916 473.728 612.916 472.44V471.348C612.58 471.777 612.169 472.132 611.684 472.412C611.198 472.692 610.676 472.897 610.116 473.028C609.556 473.159 608.986 473.224 608.408 473.224C606.97 473.224 605.822 472.935 604.964 472.356C604.124 471.759 603.517 470.947 603.144 469.92C602.77 468.875 602.584 467.689 602.584 466.364V458.244H605.972V465.608C605.972 466.131 606.009 466.663 606.084 467.204C606.158 467.745 606.308 468.24 606.532 468.688C606.756 469.136 607.082 469.5 607.512 469.78C607.96 470.041 608.548 470.172 609.276 470.172C610.228 470.172 610.965 469.939 611.488 469.472C612.01 469.005 612.365 468.399 612.552 467.652C612.757 466.905 612.86 466.112 612.86 465.272V458.244H616.276V471.6C616.276 472.851 616.145 473.971 615.884 474.96C615.622 475.968 615.202 476.827 614.624 477.536C614.045 478.245 613.298 478.787 612.384 479.16C611.469 479.552 610.349 479.748 609.024 479.748ZM504.403 507V487.204H512.215C513.223 487.204 514.175 487.307 515.071 487.512C515.967 487.699 516.761 488.035 517.451 488.52C518.142 488.987 518.683 489.631 519.075 490.452C519.467 491.273 519.663 492.291 519.663 493.504C519.663 494.512 519.486 495.399 519.131 496.164C518.777 496.929 518.282 497.573 517.647 498.096C517.031 498.619 516.294 499.02 515.435 499.3L519.775 507H515.855L511.963 499.86H507.903V507H504.403ZM507.903 496.752H511.739C512.374 496.752 512.953 496.705 513.475 496.612C514.017 496.5 514.483 496.323 514.875 496.08C515.286 495.837 515.594 495.511 515.799 495.1C516.023 494.671 516.145 494.129 516.163 493.476C516.163 492.692 515.995 492.076 515.659 491.628C515.342 491.18 514.875 490.863 514.259 490.676C513.662 490.489 512.943 490.396 512.103 490.396H507.903V496.752ZM522.847 507V492.244H526.263V507H522.847ZM524.555 490.536C523.902 490.536 523.379 490.34 522.987 489.948C522.595 489.556 522.399 489.043 522.399 488.408C522.399 487.792 522.605 487.288 523.015 486.896C523.426 486.485 523.939 486.28 524.555 486.28C525.153 486.28 525.666 486.476 526.095 486.868C526.525 487.26 526.739 487.773 526.739 488.408C526.739 489.043 526.534 489.556 526.123 489.948C525.713 490.34 525.19 490.536 524.555 490.536ZM535.23 507.196C534.521 507.196 533.811 507.121 533.102 506.972C532.411 506.823 531.758 506.58 531.142 506.244C530.526 505.889 530.013 505.413 529.602 504.816C529.191 504.219 528.921 503.472 528.79 502.576H532.234C532.383 502.987 532.617 503.323 532.934 503.584C533.27 503.827 533.653 504.013 534.082 504.144C534.53 504.256 534.969 504.312 535.398 504.312C535.659 504.312 535.939 504.293 536.238 504.256C536.555 504.219 536.845 504.144 537.106 504.032C537.386 503.92 537.61 503.761 537.778 503.556C537.946 503.332 538.03 503.043 538.03 502.688C538.03 502.352 537.937 502.091 537.75 501.904C537.563 501.699 537.311 501.54 536.994 501.428C536.677 501.297 536.294 501.195 535.846 501.12C535.043 500.952 534.185 500.775 533.27 500.588C532.355 500.383 531.562 500.065 530.89 499.636C530.61 499.468 530.367 499.272 530.162 499.048C529.957 498.824 529.779 498.581 529.63 498.32C529.499 498.04 529.397 497.741 529.322 497.424C529.266 497.107 529.238 496.761 529.238 496.388C529.238 495.604 529.397 494.941 529.714 494.4C530.05 493.84 530.489 493.392 531.03 493.056C531.59 492.701 532.225 492.44 532.934 492.272C533.643 492.104 534.371 492.02 535.118 492.02C536.126 492.02 537.041 492.179 537.862 492.496C538.683 492.813 539.365 493.299 539.906 493.952C540.466 494.605 540.802 495.436 540.914 496.444H537.666C537.573 495.977 537.283 495.604 536.798 495.324C536.331 495.044 535.734 494.904 535.006 494.904C534.745 494.904 534.474 494.932 534.194 494.988C533.914 495.025 533.643 495.1 533.382 495.212C533.139 495.305 532.934 495.455 532.766 495.66C532.617 495.865 532.542 496.117 532.542 496.416C532.542 496.696 532.607 496.939 532.738 497.144C532.887 497.349 533.102 497.527 533.382 497.676C533.681 497.807 534.026 497.919 534.418 498.012C535.053 498.143 535.715 498.273 536.406 498.404C537.097 498.535 537.694 498.665 538.198 498.796C538.795 498.964 539.337 499.207 539.822 499.524C540.307 499.823 540.681 500.224 540.942 500.728C541.222 501.213 541.362 501.839 541.362 502.604C541.362 503.5 541.175 504.247 540.802 504.844C540.447 505.441 539.971 505.908 539.374 506.244C538.777 506.58 538.114 506.823 537.386 506.972C536.658 507.121 535.939 507.196 535.23 507.196ZM543.875 507V487.204H547.291V498.152H549.419L553.311 492.244H557.147L552.359 499.272L557.539 507H553.563L549.615 501.148H547.291V507H543.875ZM564.816 507.196C564.106 507.196 563.397 507.121 562.688 506.972C561.997 506.823 561.344 506.58 560.728 506.244C560.112 505.889 559.598 505.413 559.188 504.816C558.777 504.219 558.506 503.472 558.376 502.576H561.82C561.969 502.987 562.202 503.323 562.52 503.584C562.856 503.827 563.238 504.013 563.668 504.144C564.116 504.256 564.554 504.312 564.984 504.312C565.245 504.312 565.525 504.293 565.824 504.256C566.141 504.219 566.43 504.144 566.692 504.032C566.972 503.92 567.196 503.761 567.364 503.556C567.532 503.332 567.616 503.043 567.616 502.688C567.616 502.352 567.522 502.091 567.336 501.904C567.149 501.699 566.897 501.54 566.58 501.428C566.262 501.297 565.88 501.195 565.432 501.12C564.629 500.952 563.77 500.775 562.856 500.588C561.941 500.383 561.148 500.065 560.476 499.636C560.196 499.468 559.953 499.272 559.748 499.048C559.542 498.824 559.365 498.581 559.216 498.32C559.085 498.04 558.982 497.741 558.908 497.424C558.852 497.107 558.824 496.761 558.824 496.388C558.824 495.604 558.982 494.941 559.3 494.4C559.636 493.84 560.074 493.392 560.616 493.056C561.176 492.701 561.81 492.44 562.52 492.272C563.229 492.104 563.957 492.02 564.704 492.02C565.712 492.02 566.626 492.179 567.448 492.496C568.269 492.813 568.95 493.299 569.492 493.952C570.052 494.605 570.388 495.436 570.5 496.444H567.252C567.158 495.977 566.869 495.604 566.384 495.324C565.917 495.044 565.32 494.904 564.592 494.904C564.33 494.904 564.06 494.932 563.78 494.988C563.5 495.025 563.229 495.1 562.968 495.212C562.725 495.305 562.52 495.455 562.352 495.66C562.202 495.865 562.128 496.117 562.128 496.416C562.128 496.696 562.193 496.939 562.324 497.144C562.473 497.349 562.688 497.527 562.968 497.676C563.266 497.807 563.612 497.919 564.004 498.012C564.638 498.143 565.301 498.273 565.992 498.404C566.682 498.535 567.28 498.665 567.784 498.796C568.381 498.964 568.922 499.207 569.408 499.524C569.893 499.823 570.266 500.224 570.528 500.728C570.808 501.213 570.948 501.839 570.948 502.604C570.948 503.5 570.761 504.247 570.388 504.844C570.033 505.441 569.557 505.908 568.96 506.244C568.362 506.58 567.7 506.823 566.972 506.972C566.244 507.121 565.525 507.196 564.816 507.196Z" fill="#FA9E0B"/>
<g filter="url(#filter4_ii_2126_9576)">
<path d="M1075 537.5C1075 466.914 1061.1 397.02 1034.09 331.808C1007.07 266.595 967.481 207.342 917.57 157.43C867.658 107.519 808.405 67.9266 743.192 40.9147C677.98 13.9028 608.086 -3.08539e-06 537.5 0C466.914 3.08539e-06 397.02 13.9029 331.808 40.9148C266.595 67.9267 207.342 107.519 157.43 157.43C107.519 207.342 67.9266 266.595 40.9147 331.808C13.9028 397.02 -6.17078e-06 466.915 0 537.5H21.5C21.5 469.738 34.8467 402.639 60.7781 340.035C86.7096 277.431 124.718 220.548 172.633 172.633C220.548 124.718 277.431 86.7096 340.035 60.7782C402.639 34.8467 469.738 21.5 537.5 21.5C605.262 21.5 672.361 34.8467 734.965 60.7782C797.569 86.7096 854.452 124.718 902.367 172.633C950.282 220.548 988.29 277.431 1014.22 340.035C1040.15 402.639 1053.5 469.738 1053.5 537.5H1075Z" fill="url(#paint4_linear_2126_9576)"/>
</g>
<defs>
<filter id="filter0_di_2126_9576" x="527" y="177.727" width="520" height="362.273" filterUnits="userSpaceOnUse" color-interpolation-filters="sRGB">
<feFlood flood-opacity="0" result="BackgroundImageFix"/>
<feColorMatrix in="SourceAlpha" type="matrix" values="0 0 0 0 0 0 0 0 0 0 0 0 0 0 0 0 0 0 127 0" result="hardAlpha"/>
<feOffset dy="-4"/>
<feGaussianBlur stdDeviation="5"/>
<feComposite in2="hardAlpha" operator="out"/>
<feColorMatrix type="matrix" values="0 0 0 0 0 0 0 0 0 0 0 0 0 0 0 0 0 0 0.25 0"/>
<feBlend mode="normal" in2="BackgroundImageFix" result="effect1_dropShadow_2126_9576"/>
<feBlend mode="normal" in="SourceGraphic" in2="effect1_dropShadow_2126_9576" result="shape"/>
<feColorMatrix in="SourceAlpha" type="matrix" values="0 0 0 0 0 0 0 0 0 0 0 0 0 0 0 0 0 0 127 0" result="hardAlpha"/>
<feOffset dx="-5" dy="2"/>
<feGaussianBlur stdDeviation="7.5"/>
<feComposite in2="hardAlpha" operator="arithmetic" k2="-1" k3="1"/>
<feColorMatrix type="matrix" values="0 0 0 0 1 0 0 0 0 1 0 0 0 0 1 0 0 0 0.5 0"/>
<feBlend mode="normal" in2="shape" result="effect2_innerShadow_2126_9576"/>
</filter>
<filter id="filter1_di_2126_9576" x="527" y="20.1289" width="370.455" height="519.871" filterUnits="userSpaceOnUse" color-interpolation-filters="sRGB">
<feFlood flood-opacity="0" result="BackgroundImageFix"/>
<feColorMatrix in="SourceAlpha" type="matrix" values="0 0 0 0 0 0 0 0 0 0 0 0 0 0 0 0 0 0 127 0" result="hardAlpha"/>
<feOffset dy="-4"/>
<feGaussianBlur stdDeviation="5"/>
<feComposite in2="hardAlpha" operator="out"/>
<feColorMatrix type="matrix" values="0 0 0 0 0 0 0 0 0 0 0 0 0 0 0 0 0 0 0.25 0"/>
<feBlend mode="normal" in2="BackgroundImageFix" result="effect1_dropShadow_2126_9576"/>
<feBlend mode="normal" in="SourceGraphic" in2="effect1_dropShadow_2126_9576" result="shape"/>
<feColorMatrix in="SourceAlpha" type="matrix" values="0 0 0 0 0 0 0 0 0 0 0 0 0 0 0 0 0 0 127 0" result="hardAlpha"/>
<feOffset dx="-2" dy="5"/>
<feGaussianBlur stdDeviation="7.5"/>
<feComposite in2="hardAlpha" operator="arithmetic" k2="-1" k3="1"/>
<feColorMatrix type="matrix" values="0 0 0 0 1 0 0 0 0 1 0 0 0 0 1 0 0 0 0.5 0"/>
<feBlend mode="normal" in2="shape" result="effect2_innerShadow_2126_9576"/>
</filter>
<filter id="filter2_di_2126_9576" x="175.303" y="20.1714" width="371.697" height="519.829" filterUnits="userSpaceOnUse" color-interpolation-filters="sRGB">
<feFlood flood-opacity="0" result="BackgroundImageFix"/>
<feColorMatrix in="SourceAlpha" type="matrix" values="0 0 0 0 0 0 0 0 0 0 0 0 0 0 0 0 0 0 127 0" result="hardAlpha"/>
<feOffset dy="-4"/>
<feGaussianBlur stdDeviation="5"/>
<feComposite in2="hardAlpha" operator="out"/>
<feColorMatrix type="matrix" values="0 0 0 0 0 0 0 0 0 0 0 0 0 0 0 0 0 0 0.25 0"/>
<feBlend mode="normal" in2="BackgroundImageFix" result="effect1_dropShadow_2126_9576"/>
<feBlend mode="normal" in="SourceGraphic" in2="effect1_dropShadow_2126_9576" result="shape"/>
<feColorMatrix in="SourceAlpha" type="matrix" values="0 0 0 0 0 0 0 0 0 0 0 0 0 0 0 0 0 0 127 0" result="hardAlpha"/>
<feOffset dx="2" dy="5"/>
<feGaussianBlur stdDeviation="7.5"/>
<feComposite in2="hardAlpha" operator="arithmetic" k2="-1" k3="1"/>
<feColorMatrix type="matrix" values="0 0 0 0 1 0 0 0 0 1 0 0 0 0 1 0 0 0 0.5 0"/>
<feBlend mode="normal" in2="shape" result="effect2_innerShadow_2126_9576"/>
</filter>
<filter id="filter3_di_2126_9576" x="27" y="179.001" width="520" height="362.744" filterUnits="userSpaceOnUse" color-interpolation-filters="sRGB">
<feFlood flood-opacity="0" result="BackgroundImageFix"/>
<feColorMatrix in="SourceAlpha" type="matrix" values="0 0 0 0 0 0 0 0 0 0 0 0 0 0 0 0 0 0 127 0" result="hardAlpha"/>
<feOffset dy="-4"/>
<feGaussianBlur stdDeviation="5"/>
<feComposite in2="hardAlpha" operator="out"/>
<feColorMatrix type="matrix" values="0 0 0 0 0 0 0 0 0 0 0 0 0 0 0 0 0 0 0.25 0"/>
<feBlend mode="normal" in2="BackgroundImageFix" result="effect1_dropShadow_2126_9576"/>
<feBlend mode="normal" in="SourceGraphic" in2="effect1_dropShadow_2126_9576" result="shape"/>
<feColorMatrix in="SourceAlpha" type="matrix" values="0 0 0 0 0 0 0 0 0 0 0 0 0 0 0 0 0 0 127 0" result="hardAlpha"/>
<feOffset dx="5" dy="2"/>
<feGaussianBlur stdDeviation="7.5"/>
<feComposite in2="hardAlpha" operator="arithmetic" k2="-1" k3="1"/>
<feColorMatrix type="matrix" values="0 0 0 0 1 0 0 0 0 1 0 0 0 0 1 0 0 0 0.5 0"/>
<feBlend mode="normal" in2="shape" result="effect2_innerShadow_2126_9576"/>
</filter>
<filter id="filter4_ii_2126_9576" x="0" y="-2" width="1075" height="541.5" filterUnits="userSpaceOnUse" color-interpolation-filters="sRGB">
<feFlood flood-opacity="0" result="BackgroundImageFix"/>
<feBlend mode="normal" in="SourceGraphic" in2="BackgroundImageFix" result="shape"/>
<feColorMatrix in="SourceAlpha" type="matrix" values="0 0 0 0 0 0 0 0 0 0 0 0 0 0 0 0 0 0 127 0" result="hardAlpha"/>
<feOffset dy="-2"/>
<feGaussianBlur stdDeviation="2.5"/>
<feComposite in2="hardAlpha" operator="arithmetic" k2="-1" k3="1"/>
<feColorMatrix type="matrix" values="0 0 0 0 1 0 0 0 0 1 0 0 0 0 1 0 0 0 0.5 0"/>
<feBlend mode="normal" in2="shape" result="effect1_innerShadow_2126_9576"/>
<feColorMatrix in="SourceAlpha" type="matrix" values="0 0 0 0 0 0 0 0 0 0 0 0 0 0 0 0 0 0 127 0" result="hardAlpha"/>
<feOffset dy="2"/>
<feGaussianBlur stdDeviation="2.5"/>
<feComposite in2="hardAlpha" operator="arithmetic" k2="-1" k3="1"/>
<feColorMatrix type="matrix" values="0 0 0 0 1 0 0 0 0 1 0 0 0 0 1 0 0 0 0.5 0"/>
<feBlend mode="normal" in2="effect1_innerShadow_2126_9576" result="effect2_innerShadow_2126_9576"/>
</filter>
<linearGradient id="paint0_linear_2126_9576" x1="926.5" y1="221" x2="675" y2="568" gradientUnits="userSpaceOnUse">
<stop stop-color="#00060F"/>
<stop offset="1" stop-color="#002F75"/>
</linearGradient>
<linearGradient id="paint1_linear_2126_9576" x1="593.5" y1="34" x2="640" y2="471" gradientUnits="userSpaceOnUse">
<stop stop-color="#00060F"/>
<stop offset="1" stop-color="#002F75"/>
</linearGradient>
<linearGradient id="paint2_linear_2126_9576" x1="212.5" y1="156.5" x2="573" y2="419.5" gradientUnits="userSpaceOnUse">
<stop stop-color="#00060F"/>
<stop offset="1" stop-color="#002F75"/>
</linearGradient>
<linearGradient id="paint3_linear_2126_9576" x1="46.5" y1="507.5" x2="460" y2="431" gradientUnits="userSpaceOnUse">
<stop stop-color="#00060F"/>
<stop offset="1" stop-color="#002F75"/>
</linearGradient>
<linearGradient id="paint4_linear_2126_9576" x1="576.2" y1="-77.6932" x2="576.2" y2="414.413" gradientUnits="userSpaceOnUse">
<stop stop-color="#00060F"/>
<stop offset="1" stop-color="#002F75"/>
</linearGradient>
</defs>
</svg>
