<svg width="1259" opacity="0.5" height="496" viewBox="0 0 1259 496" fill="none" xmlns="http://www.w3.org/2000/svg">
<path d="M546.166 458.038L546.16 452.093L531.198 452.109L531.204 458.054L546.166 458.038Z" stroke="#C7DAE0" stroke-width="1.2" stroke-miterlimit="10"/>
<path d="M576.53 458.004L576.523 452.059L561.561 452.074L561.567 458.02L576.53 458.004Z" stroke="#C7DAE0" stroke-width="1.2" stroke-miterlimit="10"/>
<path d="M606.873 457.996L606.867 452.051L591.905 452.067L591.911 458.012L606.873 457.996Z" stroke="#C7DAE0" stroke-width="1.2" stroke-miterlimit="10"/>
<path d="M637.248 457.975L637.242 452.03L622.28 452.046L622.286 457.991L637.248 457.975Z" stroke="#C7DAE0" stroke-width="1.2" stroke-miterlimit="10"/>
<path d="M667.58 457.928L667.574 451.982L652.612 451.998L652.618 457.943L667.58 457.928Z" stroke="#C7DAE0" stroke-width="1.2" stroke-miterlimit="10"/>
<path d="M752.708 455.058H531.148" stroke="#C7DAE0" stroke-width="1.2" stroke-miterlimit="10"/>
<path d="M1237.28 52.0807L961.374 52.3575L894.465 119.336L794.321 119.428L733.613 180.211L570.941 180.369L530.487 220.864L86.9727 221.312" stroke="#C7DAE0" stroke-width="1.2" stroke-miterlimit="10"/>
<path d="M82.5144 225.768C84.9817 225.768 86.9741 223.764 86.9741 221.313C86.9741 218.847 84.9685 216.857 82.5144 216.857C80.047 216.857 78.0547 218.861 78.0547 221.313C78.0547 223.764 80.0602 225.768 82.5144 225.768Z" stroke="#C7DAE0" stroke-width="1.2" stroke-miterlimit="10"/>
<path d="M1237.31 81.1341L980.878 81.3844L913.969 148.363L813.838 148.468L753.117 209.251L580.773 209.409L540.319 249.918L106.477 250.339" stroke="#C7DAE0" stroke-width="1.2" stroke-miterlimit="10"/>
<path d="M102.03 254.808C104.497 254.808 106.49 252.805 106.49 250.353C106.49 247.888 104.484 245.897 102.03 245.897C99.5627 245.897 97.5703 247.901 97.5703 250.353C97.5703 252.818 99.5758 254.808 102.03 254.808Z" stroke="#C7DAE0" stroke-width="1.2" stroke-miterlimit="10"/>
<path d="M1237.33 110.187L1000.39 110.425L933.481 177.403L833.336 177.495L772.616 238.278L609.956 238.436L569.502 278.931L125.988 279.38" stroke="#C7DAE0" stroke-width="1.2" stroke-miterlimit="10"/>
<path d="M121.53 283.835C123.997 283.835 125.99 281.832 125.99 279.38C125.99 276.915 123.984 274.924 121.53 274.924C119.063 274.924 117.07 276.928 117.07 279.38C117.07 281.845 119.076 283.835 121.53 283.835Z" stroke="#C7DAE0" stroke-width="1.2" stroke-miterlimit="10"/>
<path d="M1237.36 139.241L1019.89 139.452L952.981 206.43L852.836 206.535L792.129 267.305L639.642 267.463L599.188 307.958L145.488 308.406" stroke="#C7DAE0" stroke-width="1.2" stroke-miterlimit="10"/>
<path d="M141.03 312.862C143.497 312.862 145.49 310.858 145.49 308.407C145.49 305.941 143.484 303.951 141.03 303.951C138.563 303.951 136.57 305.955 136.57 308.407C136.57 310.872 138.576 312.862 141.03 312.862Z" stroke="#C7DAE0" stroke-width="1.2" stroke-miterlimit="10"/>
<path d="M1237.39 168.281L1039.41 168.479L972.497 235.457L872.352 235.562L811.632 296.345L667.378 296.49L626.924 336.985L165.004 337.434" stroke="#C7DAE0" stroke-width="1.2" stroke-miterlimit="10"/>
<path d="M160.546 341.902C163.013 341.902 165.005 339.899 165.005 337.447C165.005 334.982 163 332.991 160.546 332.991C158.078 332.991 156.086 334.995 156.086 337.447C156.086 339.912 158.091 341.902 160.546 341.902Z" stroke="#C7DAE0" stroke-width="1.2" stroke-miterlimit="10"/>
<path d="M1237.43 197.334L1058.91 197.519L991.998 264.497L891.853 264.589L831.133 325.372L668.473 325.53L628.019 366.026L215.512 366.434" stroke="#C7DAE0" stroke-width="1.2" stroke-miterlimit="10"/>
<path d="M211.065 370.903C213.532 370.903 215.525 368.899 215.525 366.448C215.525 363.982 213.519 361.992 211.065 361.992C208.598 361.992 206.605 363.996 206.605 366.448C206.605 368.913 208.611 370.903 211.065 370.903Z" stroke="#C7DAE0" stroke-width="1.2" stroke-miterlimit="10"/>
<path d="M609.352 336.999L609.378 366.329" stroke="#C7DAE0" stroke-width="1.2" stroke-miterlimit="10"/>
<path d="M596.922 337.012L596.948 366.342" stroke="#C7DAE0" stroke-width="1.2" stroke-miterlimit="10"/>
<path d="M584.492 337.025L584.532 366.355" stroke="#C7DAE0" stroke-width="1.2" stroke-miterlimit="10"/>
<path d="M572.078 337.038L572.104 366.368" stroke="#C7DAE0" stroke-width="1.2" stroke-miterlimit="10"/>
<path d="M559.648 337.051L559.675 366.382" stroke="#C7DAE0" stroke-width="1.2" stroke-miterlimit="10"/>
<path d="M547.234 337.065L547.261 366.395" stroke="#C7DAE0" stroke-width="1.2" stroke-miterlimit="10"/>
<path d="M534.805 337.078L534.831 366.408" stroke="#C7DAE0" stroke-width="1.2" stroke-miterlimit="10"/>
<path d="M522.375 337.078L522.415 366.421" stroke="#C7DAE0" stroke-width="1.2" stroke-miterlimit="10"/>
<path d="M509.957 337.091L509.983 366.434" stroke="#C7DAE0" stroke-width="1.2" stroke-miterlimit="10"/>
<path d="M497.531 337.104L497.558 366.448" stroke="#C7DAE0" stroke-width="1.2" stroke-miterlimit="10"/>
<path d="M485.102 337.117L485.141 366.461" stroke="#C7DAE0" stroke-width="1.2" stroke-miterlimit="10"/>
<path d="M472.684 337.131L472.71 366.461" stroke="#C7DAE0" stroke-width="1.2" stroke-miterlimit="10"/>
<path d="M460.254 337.144L460.28 366.474" stroke="#C7DAE0" stroke-width="1.2" stroke-miterlimit="10"/>
<path d="M447.828 337.157L447.868 366.487" stroke="#C7DAE0" stroke-width="1.2" stroke-miterlimit="10"/>
<path d="M435.41 337.17L435.437 366.5" stroke="#C7DAE0" stroke-width="1.2" stroke-miterlimit="10"/>
<path d="M422.98 337.183L423.007 366.513" stroke="#C7DAE0" stroke-width="1.2" stroke-miterlimit="10"/>
<path d="M410.566 337.196L410.593 366.527" stroke="#C7DAE0" stroke-width="1.2" stroke-miterlimit="10"/>
<path d="M398.137 337.21L398.163 366.54" stroke="#C7DAE0" stroke-width="1.2" stroke-miterlimit="10"/>
<path d="M385.707 337.223L385.733 366.553" stroke="#C7DAE0" stroke-width="1.2" stroke-miterlimit="10"/>
<path d="M373.293 337.236L373.319 366.566" stroke="#C7DAE0" stroke-width="1.2" stroke-miterlimit="10"/>
<path d="M360.859 337.249L360.886 366.579" stroke="#C7DAE0" stroke-width="1.2" stroke-miterlimit="10"/>
<path d="M348.434 337.262L348.473 366.593" stroke="#C7DAE0" stroke-width="1.2" stroke-miterlimit="10"/>
<path d="M749.055 128.524L749.081 151.368" stroke="#C7DAE0" stroke-width="1.2" stroke-miterlimit="10"/>
<path d="M742.102 128.537L742.128 151.382" stroke="#C7DAE0" stroke-width="1.2" stroke-miterlimit="10"/>
<path d="M735.145 128.537L735.158 151.382" stroke="#C7DAE0" stroke-width="1.2" stroke-miterlimit="10"/>
<path d="M728.195 128.55L728.209 151.395" stroke="#C7DAE0" stroke-width="1.2" stroke-miterlimit="10"/>
<path d="M721.238 128.55L721.251 151.408" stroke="#C7DAE0" stroke-width="1.2" stroke-miterlimit="10"/>
<path d="M714.285 128.563L714.298 151.408" stroke="#C7DAE0" stroke-width="1.2" stroke-miterlimit="10"/>
<path d="M707.332 128.576L707.345 151.421" stroke="#C7DAE0" stroke-width="1.2" stroke-miterlimit="10"/>
<path d="M700.379 128.576L700.392 151.421" stroke="#C7DAE0" stroke-width="1.2" stroke-miterlimit="10"/>
<path d="M693.426 128.59L693.439 151.434" stroke="#C7DAE0" stroke-width="1.2" stroke-miterlimit="10"/>
<path d="M686.473 128.59L686.486 151.434" stroke="#C7DAE0" stroke-width="1.2" stroke-miterlimit="10"/>
<path d="M679.52 128.603L679.533 151.448" stroke="#C7DAE0" stroke-width="1.2" stroke-miterlimit="10"/>
<path d="M672.566 128.603L672.58 151.448" stroke="#C7DAE0" stroke-width="1.2" stroke-miterlimit="10"/>
<path d="M665.613 128.616L665.626 151.461" stroke="#C7DAE0" stroke-width="1.2" stroke-miterlimit="10"/>
<path d="M658.66 128.616L658.673 151.461" stroke="#C7DAE0" stroke-width="1.2" stroke-miterlimit="10"/>
<path d="M651.703 128.629L651.716 151.474" stroke="#C7DAE0" stroke-width="1.2" stroke-miterlimit="10"/>
<path d="M644.75 128.629L644.763 151.474" stroke="#C7DAE0" stroke-width="1.2" stroke-miterlimit="10"/>
<path d="M637.801 128.643L637.814 151.487" stroke="#C7DAE0" stroke-width="1.2" stroke-miterlimit="10"/>
<path d="M630.844 128.643L630.857 151.487" stroke="#C7DAE0" stroke-width="1.2" stroke-miterlimit="10"/>
<path d="M623.891 128.656L623.904 151.5" stroke="#C7DAE0" stroke-width="1.2" stroke-miterlimit="10"/>
<path d="M616.938 128.656L616.951 151.5" stroke="#C7DAE0" stroke-width="1.2" stroke-miterlimit="10"/>
<path d="M609.984 128.669L609.998 151.513" stroke="#C7DAE0" stroke-width="1.2" stroke-miterlimit="10"/>
<path d="M603.031 128.669L603.044 151.513" stroke="#C7DAE0" stroke-width="1.2" stroke-miterlimit="10"/>
<path d="M1207.52 168.32L1207.55 197.255" stroke="#C7DAE0" stroke-width="1.2" stroke-miterlimit="10"/>
<path d="M1200.57 168.32L1200.59 197.255" stroke="#C7DAE0" stroke-width="1.2" stroke-miterlimit="10"/>
<path d="M1193.61 168.334L1193.64 197.268" stroke="#C7DAE0" stroke-width="1.2" stroke-miterlimit="10"/>
<path d="M1186.66 168.334L1186.69 197.268" stroke="#C7DAE0" stroke-width="1.2" stroke-miterlimit="10"/>
<path d="M1179.7 168.347L1179.73 197.281" stroke="#C7DAE0" stroke-width="1.2" stroke-miterlimit="10"/>
<path d="M1172.75 168.347L1172.78 197.281" stroke="#C7DAE0" stroke-width="1.2" stroke-miterlimit="10"/>
<path d="M1165.8 168.36L1165.82 197.295" stroke="#C7DAE0" stroke-width="1.2" stroke-miterlimit="10"/>
<path d="M1158.84 168.36L1158.87 197.295" stroke="#C7DAE0" stroke-width="1.2" stroke-miterlimit="10"/>
<path d="M1151.89 168.373L1151.92 197.308" stroke="#C7DAE0" stroke-width="1.2" stroke-miterlimit="10"/>
<path d="M1144.94 168.373L1144.96 197.308" stroke="#C7DAE0" stroke-width="1.2" stroke-miterlimit="10"/>
<path d="M1137.98 168.386L1138.01 197.321" stroke="#C7DAE0" stroke-width="1.2" stroke-miterlimit="10"/>
<path d="M1131.03 168.386L1131.06 197.321" stroke="#C7DAE0" stroke-width="1.2" stroke-miterlimit="10"/>
<path d="M1124.08 168.4L1124.1 197.334" stroke="#C7DAE0" stroke-width="1.2" stroke-miterlimit="10"/>
<path d="M1117.12 168.4L1117.15 197.334" stroke="#C7DAE0" stroke-width="1.2" stroke-miterlimit="10"/>
<path d="M1110.17 168.413L1110.19 197.348" stroke="#C7DAE0" stroke-width="1.2" stroke-miterlimit="10"/>
<path d="M1103.21 168.426L1103.24 197.348" stroke="#C7DAE0" stroke-width="1.2" stroke-miterlimit="10"/>
<path d="M1096.27 168.426L1096.29 197.361" stroke="#C7DAE0" stroke-width="1.2" stroke-miterlimit="10"/>
<path d="M1089.31 168.439L1089.34 197.361" stroke="#C7DAE0" stroke-width="1.2" stroke-miterlimit="10"/>
<path d="M1082.36 168.439L1082.38 197.374" stroke="#C7DAE0" stroke-width="1.2" stroke-miterlimit="10"/>
<path d="M1075.4 168.452L1075.43 197.387" stroke="#C7DAE0" stroke-width="1.2" stroke-miterlimit="10"/>
<path d="M1068.45 168.452L1068.48 197.387" stroke="#C7DAE0" stroke-width="1.2" stroke-miterlimit="10"/>
<path d="M1061.5 168.465L1061.52 197.4" stroke="#C7DAE0" stroke-width="1.2" stroke-miterlimit="10"/>
<path d="M440.427 136.927L440.414 125.05L435.875 125.055L435.888 136.932L440.427 136.927Z" stroke="#C7DAE0" stroke-width="1.2" stroke-miterlimit="10"/>
<path d="M449.622 136.924L449.609 125.047L445.071 125.052L445.083 136.929L449.622 136.924Z" stroke="#C7DAE0" stroke-width="1.2" stroke-miterlimit="10"/>
<path d="M440.466 176.276L440.453 164.399L435.914 164.404L435.927 176.281L440.466 176.276Z" stroke="#C7DAE0" stroke-width="1.2" stroke-miterlimit="10"/>
<path d="M449.688 176.272L449.676 164.395L445.137 164.4L445.149 176.277L449.688 176.272Z" stroke="#C7DAE0" stroke-width="1.2" stroke-miterlimit="10"/>
<path d="M657.454 93.9829L657.441 82.1058L652.903 82.1106L652.915 93.9877L657.454 93.9829Z" stroke="#C7DAE0" stroke-width="1.2" stroke-miterlimit="10"/>
<path d="M666.665 93.9662L666.652 82.0891L662.113 82.0939L662.126 93.9709L666.665 93.9662Z" stroke="#C7DAE0" stroke-width="1.2" stroke-miterlimit="10"/>
<path d="M804.29 424.533L804.277 412.656L799.738 412.661L799.751 424.538L804.29 424.533Z" stroke="#C7DAE0" stroke-width="1.2" stroke-miterlimit="10"/>
<path d="M813.501 424.53L813.488 412.653L808.949 412.657L808.962 424.534L813.501 424.53Z" stroke="#C7DAE0" stroke-width="1.2" stroke-miterlimit="10"/>
<path d="M848.981 424.487L848.969 412.61L844.43 412.615L844.442 424.492L848.981 424.487Z" stroke="#C7DAE0" stroke-width="1.2" stroke-miterlimit="10"/>
<path d="M858.227 424.484L858.215 412.607L853.676 412.612L853.688 424.489L858.227 424.484Z" stroke="#C7DAE0" stroke-width="1.2" stroke-miterlimit="10"/>
<path d="M918.899 196.075L918.887 184.198L914.348 184.203L914.36 196.08L918.899 196.075Z" stroke="#C7DAE0" stroke-width="1.2" stroke-miterlimit="10"/>
<path d="M928.094 196.058L928.082 184.181L923.543 184.186L923.556 196.063L928.094 196.058Z" stroke="#C7DAE0" stroke-width="1.2" stroke-miterlimit="10"/>
<path d="M707.573 358.204L707.539 325.855L701.958 325.861L701.992 358.21L707.573 358.204Z" stroke="#C7DAE0" stroke-width="1.2" stroke-miterlimit="10"/>
<path d="M718.905 358.203L718.871 325.854L713.29 325.86L713.324 358.208L718.905 358.203Z" stroke="#C7DAE0" stroke-width="1.2" stroke-miterlimit="10"/>
<path d="M730.237 358.188L730.203 325.839L724.622 325.845L724.656 358.194L730.237 358.188Z" stroke="#C7DAE0" stroke-width="1.2" stroke-miterlimit="10"/>
<path d="M741.573 358.187L741.539 325.838L735.958 325.844L735.992 358.193L741.573 358.187Z" stroke="#C7DAE0" stroke-width="1.2" stroke-miterlimit="10"/>
<path d="M752.905 358.172L752.871 325.823L747.29 325.829L747.324 358.178L752.905 358.172Z" stroke="#C7DAE0" stroke-width="1.2" stroke-miterlimit="10"/>
<path d="M764.229 358.158L764.195 325.809L758.614 325.815L758.648 358.164L764.229 358.158Z" stroke="#C7DAE0" stroke-width="1.2" stroke-miterlimit="10"/>
<path d="M775.577 358.143L775.543 325.794L769.962 325.8L769.996 358.149L775.577 358.143Z" stroke="#C7DAE0" stroke-width="1.2" stroke-miterlimit="10"/>
<path d="M786.897 358.129L786.863 325.78L781.282 325.786L781.316 358.135L786.897 358.129Z" stroke="#C7DAE0" stroke-width="1.2" stroke-miterlimit="10"/>
<path d="M798.218 358.127L798.184 325.779L792.602 325.784L792.636 358.133L798.218 358.127Z" stroke="#C7DAE0" stroke-width="1.2" stroke-miterlimit="10"/>
<path d="M809.577 358.113L809.543 325.764L803.962 325.77L803.996 358.119L809.577 358.113Z" stroke="#C7DAE0" stroke-width="1.2" stroke-miterlimit="10"/>
<path d="M820.897 358.112L820.863 325.763L815.282 325.769L815.316 358.117L820.897 358.112Z" stroke="#C7DAE0" stroke-width="1.2" stroke-miterlimit="10"/>
<path d="M211.555 419.334L489.137 419.057L508.361 438.224L735.462 438L768.527 470.968L1259 470.481" stroke="#C7DAE0" stroke-width="1.2" stroke-miterlimit="10"/>
<path d="M274.398 391.375L512.266 391.137L536.068 414.852L762.984 414.628L782.024 433.623L1258.97 433.149" stroke="#C7DAE0" stroke-width="1.2" stroke-miterlimit="10"/>
<path d="M558.066 391.085L654.068 390.992L686.843 358.195L873.094 358.011L916.807 314.259L1025.82 314.154L1097 242.878L1237.47 242.747" stroke="#C7DAE0" stroke-width="1.2" stroke-miterlimit="10"/>
<path d="M1237.59 365.432L1058.16 365.604L1022.99 400.8L818.045 401.011L788.437 371.483L673.105 371.601" stroke="#C7DAE0" stroke-width="1.2" stroke-miterlimit="10"/>
<path d="M366.402 221.036L316.581 171.339L9.91797 171.603" stroke="#C7DAE0" stroke-width="1.2" stroke-miterlimit="10"/>
<path d="M331.586 186.314L565.244 186.09" stroke="#C7DAE0" stroke-width="1.2" stroke-miterlimit="10"/>
<path d="M924.51 89.2543L879.834 44.7119L718.547 44.8701L690.218 73.2248L405.01 73.5148L376.827 45.4238L51.6523 45.7401" stroke="#C7DAE0" stroke-width="1.2" stroke-miterlimit="10"/>
<path d="M431.332 51.8434L531.371 151.592L762.721 151.355" stroke="#C7DAE0" stroke-width="1.2" stroke-miterlimit="10"/>
<path d="M530.859 73.383L586.328 128.695L785.272 128.497" stroke="#C7DAE0" stroke-width="1.2" stroke-miterlimit="10"/>
<path d="M585.551 50.2089L642.247 105.785L908.31 105.521" stroke="#C7DAE0" stroke-width="1.2" stroke-miterlimit="10"/>
<path d="M841.9 105.587L798.966 62.7714L700.562 62.8769" stroke="#C7DAE0" stroke-width="1.2" stroke-miterlimit="10"/>
<path d="M478.29 98.6661L234.156 98.9035L199.653 133.454L105.062 133.651" stroke="#C7DAE0" stroke-width="1.2" stroke-miterlimit="10"/>
<path d="M980.426 314.194L1003.46 337.157L1116.89 337.051L1145.45 365.525" stroke="#C7DAE0" stroke-width="1.2" stroke-miterlimit="10"/>
<path d="M873.094 358.011L916.002 400.8" stroke="#C7DAE0" stroke-width="1.2" stroke-miterlimit="10"/>
<path d="M690.219 73.2249L722.796 105.706" stroke="#C7DAE0" stroke-width="1.2" stroke-miterlimit="10"/>
<path d="M475.23 419.097L440.674 453.647L339.342 453.753L306 487.235" stroke="#C7DAE0" stroke-width="1.2" stroke-miterlimit="10"/>
<path d="M302.979 494.67C305.447 494.67 307.439 492.666 307.439 490.214C307.439 487.749 305.433 485.759 302.979 485.759C300.512 485.759 298.52 487.762 298.52 490.214C298.52 492.679 300.525 494.67 302.979 494.67Z" stroke="#C7DAE0" stroke-width="1.2" stroke-miterlimit="10"/>
<path d="M100.604 138.107C103.072 138.107 105.064 136.103 105.064 133.651C105.064 131.186 103.058 129.196 100.604 129.196C98.1369 129.196 96.1445 131.2 96.1445 133.651C96.1445 136.117 98.1501 138.107 100.604 138.107Z" stroke="#C7DAE0" stroke-width="1.2" stroke-miterlimit="10"/>
<path d="M5.45968 176.072C7.92702 176.072 9.91937 174.068 9.91937 171.616C9.91937 169.151 7.91383 167.16 5.45968 167.16C2.99234 167.16 1 169.164 1 171.616C1 174.081 3.00554 176.072 5.45968 176.072Z" stroke="#C7DAE0" stroke-width="1.2" stroke-miterlimit="10"/>
<path d="M47.1941 49.9847C49.6614 49.9847 51.6537 47.9811 51.6537 45.5292C51.6537 43.0641 49.6482 41.0736 47.1941 41.0736C44.7267 41.0736 42.7344 43.0773 42.7344 45.5292C42.7344 47.9942 44.7399 49.9847 47.1941 49.9847Z" stroke="#C7DAE0" stroke-width="1.2" stroke-miterlimit="10"/>
<path d="M553.604 395.553C556.072 395.553 558.064 393.55 558.064 391.098C558.064 388.633 556.058 386.642 553.604 386.642C551.137 386.642 549.145 388.646 549.145 391.098C549.145 393.563 551.15 395.553 553.604 395.553Z" stroke="#C7DAE0" stroke-width="1.2" stroke-miterlimit="10"/>
<path d="M617.741 199.298C620.208 199.298 622.201 197.295 622.201 194.843C622.201 192.378 620.195 190.387 617.741 190.387C615.274 190.387 613.281 192.391 613.281 194.843C613.281 197.308 615.287 199.298 617.741 199.298Z" stroke="#C7DAE0" stroke-width="1.2" stroke-miterlimit="10"/>
<path d="M582.909 51.6984C585.376 51.6984 587.369 49.6948 587.369 47.243C587.369 44.7911 585.363 42.7874 582.909 42.7874C580.455 42.7874 578.449 44.7911 578.449 47.243C578.449 49.708 580.455 51.6984 582.909 51.6984Z" stroke="#C7DAE0" stroke-width="1.2" stroke-miterlimit="10"/>
<path d="M907.413 292.43C909.88 292.43 911.873 290.426 911.873 287.974C911.873 285.509 909.867 283.519 907.413 283.519C904.945 283.519 902.953 285.523 902.953 287.974C902.953 290.426 904.959 292.43 907.413 292.43Z" stroke="#C7DAE0" stroke-width="1.2" stroke-miterlimit="10"/>
<path d="M207.093 423.803C209.56 423.803 211.552 421.799 211.552 419.347C211.552 416.882 209.547 414.892 207.093 414.892C204.625 414.892 202.633 416.895 202.633 419.347C202.633 421.812 204.638 423.803 207.093 423.803Z" stroke="#C7DAE0" stroke-width="1.2" stroke-miterlimit="10"/>
<path d="M269.94 395.83C272.407 395.83 274.4 393.827 274.4 391.375C274.4 388.91 272.394 386.919 269.94 386.919C267.473 386.919 265.48 388.923 265.48 391.375C265.48 393.84 267.486 395.83 269.94 395.83Z" stroke="#C7DAE0" stroke-width="1.2" stroke-miterlimit="10"/>
<path d="M705.961 242.457C708.257 242.457 710.117 240.598 710.117 238.304C710.117 236.011 708.257 234.152 705.961 234.152C703.665 234.152 701.805 236.011 701.805 238.304C701.805 240.598 703.665 242.457 705.961 242.457Z" stroke="#C7DAE0" stroke-width="1.2" stroke-miterlimit="10"/>
<path d="M722.535 242.443C724.831 242.443 726.691 240.585 726.691 238.291C726.691 235.997 724.831 234.139 722.535 234.139C720.239 234.139 718.379 235.997 718.379 238.291C718.379 240.585 720.239 242.443 722.535 242.443Z" stroke="#C7DAE0" stroke-width="1.2" stroke-miterlimit="10"/>
<path d="M739.117 242.43C741.413 242.43 743.273 240.572 743.273 238.278C743.273 235.984 741.413 234.126 739.117 234.126C736.821 234.126 734.961 235.984 734.961 238.278C734.961 240.572 736.821 242.43 739.117 242.43Z" stroke="#C7DAE0" stroke-width="1.2" stroke-miterlimit="10"/>
<path d="M755.703 242.417C757.999 242.417 759.859 240.558 759.859 238.265C759.859 235.971 757.999 234.112 755.703 234.112C753.407 234.112 751.547 235.971 751.547 238.265C751.547 240.558 753.407 242.417 755.703 242.417Z" stroke="#C7DAE0" stroke-width="1.2" stroke-miterlimit="10"/>
<path d="M772.277 242.391C774.573 242.391 776.434 240.532 776.434 238.238C776.434 235.945 774.573 234.086 772.277 234.086C769.982 234.086 768.121 235.945 768.121 238.238C768.121 240.532 769.982 242.391 772.277 242.391Z" stroke="#C7DAE0" stroke-width="1.2" stroke-miterlimit="10"/>
<path d="M320.578 297.861C322.874 297.861 324.734 296.002 324.734 293.709C324.734 291.415 322.874 289.556 320.578 289.556C318.282 289.556 316.422 291.415 316.422 293.709C316.422 296.002 318.282 297.861 320.578 297.861Z" stroke="#C7DAE0" stroke-width="1.2" stroke-miterlimit="10"/>
<path d="M337.152 297.848C339.448 297.848 341.309 295.989 341.309 293.695C341.309 291.402 339.448 289.543 337.152 289.543C334.856 289.543 332.996 291.402 332.996 293.695C332.996 295.989 334.856 297.848 337.152 297.848Z" stroke="#C7DAE0" stroke-width="1.2" stroke-miterlimit="10"/>
<path d="M353.734 297.821C356.03 297.821 357.891 295.963 357.891 293.669C357.891 291.375 356.03 289.517 353.734 289.517C351.439 289.517 349.578 291.375 349.578 293.669C349.578 295.963 351.439 297.821 353.734 297.821Z" stroke="#C7DAE0" stroke-width="1.2" stroke-miterlimit="10"/>
<path d="M370.309 297.808C372.604 297.808 374.465 295.949 374.465 293.656C374.465 291.362 372.604 289.503 370.309 289.503C368.013 289.503 366.152 291.362 366.152 293.656C366.152 295.949 368.013 297.808 370.309 297.808Z" stroke="#C7DAE0" stroke-width="1.2" stroke-miterlimit="10"/>
<path d="M386.894 297.795C389.19 297.795 391.051 295.936 391.051 293.643C391.051 291.349 389.19 289.49 386.894 289.49C384.599 289.49 382.738 291.349 382.738 293.643C382.738 295.936 384.599 297.795 386.894 297.795Z" stroke="#C7DAE0" stroke-width="1.2" stroke-miterlimit="10"/>
<path d="M540.316 249.918L642.375 351.67" stroke="#C7DAE0" stroke-width="1.2" stroke-miterlimit="10"/>
<path d="M622.348 194.843L767.657 194.698" stroke="#C7DAE0" stroke-width="1.2" stroke-miterlimit="10"/>
<path d="M1052.11 287.829L911.871 287.961" stroke="#C7DAE0" stroke-width="1.2" stroke-miterlimit="10"/>
<path d="M447.655 268.874C450.122 268.874 452.115 266.87 452.115 264.418C452.115 261.953 450.109 259.962 447.655 259.962C445.188 259.962 443.195 261.966 443.195 264.418C443.195 266.883 445.201 268.874 447.655 268.874Z" stroke="#C7DAE0" stroke-width="1.2" stroke-miterlimit="10"/>
<path d="M554.873 264.418L452.023 264.523" stroke="#C7DAE0" stroke-width="1.2" stroke-miterlimit="10"/>
<path d="M219.022 268.874C221.49 268.874 223.482 266.87 223.482 264.418C223.482 261.953 221.476 259.962 219.022 259.962C216.555 259.962 214.562 261.966 214.562 264.418C214.562 266.883 216.568 268.874 219.022 268.874Z" stroke="#C7DAE0" stroke-width="1.2" stroke-miterlimit="10"/>
<path d="M326.252 264.418L223.402 264.523" stroke="#C7DAE0" stroke-width="1.2" stroke-miterlimit="10"/>
<path d="M442.694 156.021C445.161 156.021 447.154 154.018 447.154 151.566C447.154 149.101 445.148 147.11 442.694 147.11C440.227 147.11 438.234 149.114 438.234 151.566C438.234 154.018 440.24 156.021 442.694 156.021Z" stroke="#C7DAE0" stroke-width="1.2" stroke-miterlimit="10"/>
<path d="M531.835 151.592L447.074 151.685" stroke="#C7DAE0" stroke-width="1.2" stroke-miterlimit="10"/>
<path d="M914.311 362.4C916.779 362.4 918.771 360.397 918.771 357.945C918.771 355.48 916.765 353.489 914.311 353.489C911.844 353.489 909.852 355.493 909.852 357.945C909.852 360.41 911.857 362.4 914.311 362.4Z" stroke="#C7DAE0" stroke-width="1.2" stroke-miterlimit="10"/>
<path d="M918.691 358.05L1021.54 357.945L1043.71 380.064" stroke="#C7DAE0" stroke-width="1.2" stroke-miterlimit="10"/>
<path d="M861.667 456.56C864.134 456.56 866.126 454.557 866.126 452.105C866.126 449.64 864.121 447.649 861.667 447.649C859.199 447.649 857.207 449.653 857.207 452.105C857.207 454.557 859.213 456.56 861.667 456.56Z" stroke="#C7DAE0" stroke-width="1.2" stroke-miterlimit="10"/>
<path d="M880.576 433.399L864.809 449.191" stroke="#C7DAE0" stroke-width="1.2" stroke-miterlimit="10"/>
<path d="M955.135 456.468C957.603 456.468 959.595 454.464 959.595 452.012C959.595 449.547 957.59 447.557 955.135 447.557C952.668 447.557 950.676 449.561 950.676 452.012C950.676 454.478 952.681 456.468 955.135 456.468Z" stroke="#C7DAE0" stroke-width="1.2" stroke-miterlimit="10"/>
<path d="M974.045 433.307L958.277 449.099" stroke="#C7DAE0" stroke-width="1.2" stroke-miterlimit="10"/>
<path d="M1048.62 456.376C1051.08 456.376 1053.08 454.372 1053.08 451.92C1053.08 449.455 1051.07 447.465 1048.62 447.465C1046.15 447.465 1044.16 449.468 1044.16 451.92C1044.16 454.385 1046.16 456.376 1048.62 456.376Z" stroke="#C7DAE0" stroke-width="1.2" stroke-miterlimit="10"/>
<path d="M1067.51 433.215L1051.74 449.007" stroke="#C7DAE0" stroke-width="1.2" stroke-miterlimit="10"/>
<path d="M306.393 192.589C308.861 192.589 310.853 194.579 310.853 197.044C310.853 199.509 308.861 201.5 306.393 201.5C303.926 201.5 301.934 199.509 301.934 197.044C301.934 194.579 303.926 192.589 306.393 192.589Z" stroke="#C7DAE0" stroke-width="1.2" stroke-miterlimit="10"/>
<path d="M309.547 199.958L359.817 250.089" stroke="#C7DAE0" stroke-width="1.2" stroke-miterlimit="10"/>
<path d="M247.561 192.655C250.029 192.655 252.021 194.645 252.021 197.11C252.021 199.575 250.029 201.566 247.561 201.566C245.094 201.566 243.102 199.575 243.102 197.11C243.102 194.645 245.094 192.655 247.561 192.655Z" stroke="#C7DAE0" stroke-width="1.2" stroke-miterlimit="10"/>
<path d="M250.715 200.023L300.985 250.155" stroke="#C7DAE0" stroke-width="1.2" stroke-miterlimit="10"/>
<path d="M188.729 192.707C191.197 192.707 193.189 194.698 193.189 197.163C193.189 199.628 191.197 201.619 188.729 201.619C186.262 201.619 184.27 199.628 184.27 197.163C184.27 194.698 186.262 192.707 188.729 192.707Z" stroke="#C7DAE0" stroke-width="1.2" stroke-miterlimit="10"/>
<path d="M191.871 200.076L242.155 250.208" stroke="#C7DAE0" stroke-width="1.2" stroke-miterlimit="10"/>
<path d="M249.503 455.453C251.97 455.453 253.962 453.449 253.962 450.997C253.962 448.532 251.957 446.542 249.503 446.542C247.035 446.542 245.043 448.545 245.043 450.997C245.043 453.462 247.049 455.453 249.503 455.453Z" stroke="#C7DAE0" stroke-width="1.2" stroke-miterlimit="10"/>
<path d="M252.645 448.084L263.385 437.328L289.378 437.301L335.307 391.309" stroke="#C7DAE0" stroke-width="1.2" stroke-miterlimit="10"/>
<path d="M45.9909 208.302C48.4583 208.302 50.4506 206.298 50.4506 203.846C50.4506 201.381 48.4451 199.391 45.9909 199.391C43.5236 199.391 41.5312 201.394 41.5312 203.846C41.5312 206.311 43.5368 208.302 45.9909 208.302Z" stroke="#C7DAE0" stroke-width="1.2" stroke-miterlimit="10"/>
<path d="M49.1328 200.92L59.873 190.163L85.8658 190.137L105.064 170.865" stroke="#C7DAE0" stroke-width="1.2" stroke-miterlimit="10"/>
<path d="M300.143 455.387C302.611 455.387 304.603 453.383 304.603 450.931C304.603 448.466 302.597 446.476 300.143 446.476C297.676 446.476 295.684 448.48 295.684 450.931C295.684 453.396 297.689 455.387 300.143 455.387Z" stroke="#C7DAE0" stroke-width="1.2" stroke-miterlimit="10"/>
<path d="M303.285 448.005L314.039 437.248L340.018 437.222L385.961 391.243" stroke="#C7DAE0" stroke-width="1.2" stroke-miterlimit="10"/>
<path d="M752.891 296.358L781.944 267.278" stroke="#C7DAE0" stroke-width="1.2" stroke-miterlimit="10"/>
<path d="M713.332 296.398L742.386 267.318" stroke="#C7DAE0" stroke-width="1.2" stroke-miterlimit="10"/>
<path d="M673.777 296.437L702.831 267.358" stroke="#C7DAE0" stroke-width="1.2" stroke-miterlimit="10"/>
<path d="M1127.5 139.346L1156.56 110.267" stroke="#C7DAE0" stroke-width="1.2" stroke-miterlimit="10"/>
<path d="M1087.95 139.386L1117 110.306" stroke="#C7DAE0" stroke-width="1.2" stroke-miterlimit="10"/>
<path d="M1048.39 139.425L1077.44 110.346" stroke="#C7DAE0" stroke-width="1.2" stroke-miterlimit="10"/>
<path d="M331.77 186.38L419.354 98.7057" stroke="#C7DAE0" stroke-width="1.2" stroke-miterlimit="10"/>
<path d="M288.926 171.379L361.323 98.9035" stroke="#C7DAE0" stroke-width="1.2" stroke-miterlimit="10"/>
<path d="M231.043 171.431L303.559 98.8375" stroke="#C7DAE0" stroke-width="1.2" stroke-miterlimit="10"/>
<path d="M1099.49 280.026C1101.96 280.026 1103.95 282.016 1103.95 284.481C1103.95 286.946 1101.96 288.937 1099.49 288.937C1097.03 288.937 1095.04 286.946 1095.04 284.481C1095.04 282.016 1097.03 280.026 1099.49 280.026Z" stroke="#C7DAE0" stroke-width="1.2" stroke-miterlimit="10"/>
<path d="M1102.64 287.394L1133.67 318.333L1169.9 318.293L1217.19 365.446" stroke="#C7DAE0" stroke-width="1.2" stroke-miterlimit="10"/>
<path d="M1123.8 410.251C1126.26 410.251 1128.26 408.248 1128.26 405.796C1128.26 403.331 1126.25 401.34 1123.8 401.34C1121.33 401.34 1119.34 403.344 1119.34 405.796C1119.34 408.261 1121.34 410.251 1123.8 410.251Z" stroke="#C7DAE0" stroke-width="1.2" stroke-miterlimit="10"/>
<path d="M1126.94 402.883L1145.05 384.744L1181.28 384.704L1200.21 365.762" stroke="#C7DAE0" stroke-width="1.2" stroke-miterlimit="10"/>
<path d="M1052.02 410.331C1054.49 410.331 1056.48 408.327 1056.48 405.875C1056.48 403.41 1054.48 401.419 1052.02 401.419C1049.55 401.419 1047.56 403.423 1047.56 405.875C1047.56 408.34 1049.57 410.331 1052.02 410.331Z" stroke="#C7DAE0" stroke-width="1.2" stroke-miterlimit="10"/>
<path d="M1055.15 402.949L1073.28 384.81L1109.51 384.771L1128.43 365.828" stroke="#C7DAE0" stroke-width="1.2" stroke-miterlimit="10"/>
<path d="M186.116 78.8667C188.583 78.8667 190.576 76.863 190.576 74.4111C190.576 71.9461 188.57 69.9556 186.116 69.9556C183.649 69.9556 181.656 71.9593 181.656 74.4111C181.656 76.863 183.662 78.8667 186.116 78.8667Z" stroke="#C7DAE0" stroke-width="1.2" stroke-miterlimit="10"/>
<path d="M215.211 45.5159L189.258 71.4978" stroke="#C7DAE0" stroke-width="1.2" stroke-miterlimit="10"/>
<path d="M269.624 78.7876C272.091 78.7876 274.083 76.7839 274.083 74.332C274.083 71.867 272.078 69.8765 269.624 69.8765C267.156 69.8765 265.164 71.8802 265.164 74.332C265.164 76.7971 267.17 78.7876 269.624 78.7876Z" stroke="#C7DAE0" stroke-width="1.2" stroke-miterlimit="10"/>
<path d="M298.719 45.4368L272.766 71.4188" stroke="#C7DAE0" stroke-width="1.2" stroke-miterlimit="10"/>
<path d="M384.757 1.00014C387.224 1.00014 389.216 2.99065 389.216 5.4557C389.216 7.92075 387.224 9.91125 384.757 9.91125C382.289 9.91125 380.297 7.92075 380.297 5.4557C380.297 2.99065 382.289 1.00014 384.757 1.00014Z" stroke="#C7DAE0" stroke-width="1.2" stroke-miterlimit="10"/>
<path d="M513.216 73.3962C512.728 73.014 494.044 54.269 494.044 54.269L433.931 54.3348L387.883 8.40843" stroke="#C7DAE0" stroke-width="1.2" stroke-miterlimit="10"/>
<path d="M947.561 33.9157C950.029 33.9157 952.021 35.9062 952.021 38.3712C952.021 40.8363 950.029 42.8268 947.561 42.8268C945.094 42.8268 943.102 40.8363 943.102 38.3712C943.102 35.9062 945.094 33.9157 947.561 33.9157Z" stroke="#C7DAE0" stroke-width="1.2" stroke-miterlimit="10"/>
<path d="M1050.94 81.3186C1050.45 80.9363 1031.77 62.1914 1031.77 62.1914L971.652 62.2572L950.66 41.3372" stroke="#C7DAE0" stroke-width="1.2" stroke-miterlimit="10"/>
<path d="M1054.16 8.79067C1056.63 8.79067 1058.62 10.7812 1058.62 13.2462C1058.62 15.7113 1056.63 17.7018 1054.16 17.7018C1051.69 17.7018 1049.7 15.7113 1049.7 13.2462C1049.7 10.7812 1051.69 8.79067 1054.16 8.79067Z" stroke="#C7DAE0" stroke-width="1.2" stroke-miterlimit="10"/>
<path d="M1182.61 81.1868C1182.12 80.8045 1163.43 62.0595 1163.43 62.0595L1103.32 62.1253L1057.27 16.199" stroke="#C7DAE0" stroke-width="1.2" stroke-miterlimit="10"/>
<path d="M340.596 250.115L311.344 279.393" stroke="#C7DAE0" stroke-width="1.2" stroke-miterlimit="10"/>
<path d="M784.979 379.405L756.282 408.076H560.57L569.265 399.389H660.029L679.029 380.42L784.979 379.405Z" stroke="#C7DAE0" stroke-width="1.2" stroke-miterlimit="10"/>
<path d="M754.727 404.346H569.598L570.812 403.12H661.589L680.588 384.138L775.865 383.228L754.727 404.346Z" stroke="#C7DAE0" stroke-width="1.2" stroke-miterlimit="10"/>
<path d="M542.338 192.589L521.755 213.153H374.467L353.805 192.51L542.338 192.589Z" stroke="#C7DAE0" stroke-width="1.2" stroke-miterlimit="10"/>
<path d="M533.312 196.319L520.197 209.422H376.009L362.828 196.253L533.312 196.319Z" stroke="#C7DAE0" stroke-width="1.2" stroke-miterlimit="10"/>
<path d="M524.299 200.05L518.652 205.692H377.565L371.852 199.984L524.299 200.05Z" stroke="#C7DAE0" stroke-width="1.2" stroke-miterlimit="10"/>
<path d="M788.437 371.483L780.441 379.484" stroke="#C7DAE0" stroke-width="1.2" stroke-miterlimit="10"/>
<path d="M560.571 408.076L553.895 414.747" stroke="#C7DAE0" stroke-width="1.2" stroke-miterlimit="10"/>
<path d="M521.754 213.153L513.93 220.97" stroke="#C7DAE0" stroke-width="1.2" stroke-miterlimit="10"/>
<path d="M353.804 192.51L347.695 186.406" stroke="#C7DAE0" stroke-width="1.2" stroke-miterlimit="10"/>
<path d="M855.859 412.374V400.8" stroke="#C7DAE0" stroke-width="1.2" stroke-miterlimit="10"/>
<path d="M846.637 412.374V400.8" stroke="#C7DAE0" stroke-width="1.2" stroke-miterlimit="10"/>
<path d="M811.16 433.623V424.475" stroke="#C7DAE0" stroke-width="1.2" stroke-miterlimit="10"/>
<path d="M801.938 433.623V424.475" stroke="#C7DAE0" stroke-width="1.2" stroke-miterlimit="10"/>
<path d="M446.891 125.03V98.6662" stroke="#C7DAE0" stroke-width="1.2" stroke-miterlimit="10"/>
<path d="M438.035 125.03V98.6662" stroke="#C7DAE0" stroke-width="1.2" stroke-miterlimit="10"/>
<path d="M447.312 176.256V186.195" stroke="#C7DAE0" stroke-width="1.2" stroke-miterlimit="10"/>
<path d="M438.223 176.256V186.195" stroke="#C7DAE0" stroke-width="1.2" stroke-miterlimit="10"/>
<path d="M925.75 196.016V206.825" stroke="#C7DAE0" stroke-width="1.2" stroke-miterlimit="10"/>
<path d="M916.527 196.016V206.825" stroke="#C7DAE0" stroke-width="1.2" stroke-miterlimit="10"/>
<path d="M1255.68 433.149L1233.73 455.071H1082.57L1067.23 470.388" stroke="#C7DAE0" stroke-width="1.2" stroke-miterlimit="10"/>
<path d="M664.293 82.0568V73.383" stroke="#C7DAE0" stroke-width="1.2" stroke-miterlimit="10"/>
<path d="M654.727 93.947V105.785" stroke="#C7DAE0" stroke-width="1.2" stroke-miterlimit="10"/>
</svg>
