<svg width="593" height="345" viewBox="0 0 593 345" fill="none" xmlns="http://www.w3.org/2000/svg">
<path opacity="0.0344828" d="M79.1798 95.5045C166.136 73.8637 247.01 60.5402 307.455 56.4827C337.687 54.4533 362.745 54.7462 380.881 57.4512C389.95 58.8039 397.23 60.7513 402.552 63.28C407.865 65.8049 411.17 68.8805 412.428 72.4887C413.686 76.0969 412.883 80.1947 410.038 84.75C407.189 89.3121 402.32 94.283 395.568 99.5729C382.064 110.152 361.196 121.876 334.489 134.017C281.093 158.291 204.585 184.134 117.629 205.775C30.6723 227.416 -50.2001 240.74 -110.646 244.797C-140.877 246.827 -165.937 246.533 -184.073 243.828C-193.141 242.476 -200.422 240.528 -205.743 237.999C-211.057 235.475 -214.361 232.399 -215.619 228.791C-216.877 225.183 -216.074 221.085 -213.229 216.529C-210.38 211.967 -205.512 206.996 -198.76 201.707C-185.256 191.127 -164.386 179.404 -137.68 167.263C-84.2834 142.989 -7.7765 117.145 79.1798 95.5045Z" stroke="url(#paint0_linear_375_9794)" stroke-width="2"/>
<path opacity="0.0689655" d="M87.6543 95.2303C176.307 79.4845 257.996 71.6484 318.391 71.6972C348.597 71.7216 373.414 73.7186 391.096 77.6591C399.938 79.6294 406.939 82.0739 411.933 84.9663C416.919 87.8544 419.849 91.1559 420.691 94.8491C421.534 98.5421 420.279 102.586 416.948 106.951C413.612 111.323 408.228 115.968 400.939 120.803C386.362 130.473 364.353 140.787 336.51 151.121C280.84 171.785 202.078 192.447 113.425 208.192C24.7717 223.938 -56.9172 231.774 -117.312 231.725C-147.518 231.701 -172.335 229.704 -190.017 225.764C-198.859 223.793 -205.86 221.349 -210.854 218.456C-215.84 215.568 -218.771 212.268 -219.613 208.575C-220.456 204.881 -219.201 200.837 -215.869 196.471C-212.533 192.099 -207.149 187.455 -199.86 182.62C-185.283 172.95 -163.274 162.636 -135.431 152.301C-79.7615 131.638 -0.998576 110.976 87.6543 95.2303Z" stroke="url(#paint1_linear_375_9794)" stroke-width="2"/>
<path opacity="0.103448" d="M96.2215 95.394C185.896 85.6631 267.78 83.3752 327.664 87.5301C357.615 89.6082 382.002 93.2939 399.095 98.4398C407.642 101.013 414.312 103.935 418.94 107.169C423.56 110.399 426.094 113.9 426.515 117.65C426.936 121.4 425.242 125.36 421.449 129.503C417.651 133.651 411.79 137.932 404.02 142.276C388.481 150.963 365.5 159.79 336.732 168.24C279.213 185.134 198.794 200.457 109.119 210.188C19.4441 219.919 -62.439 222.208 -122.323 218.053C-152.275 215.975 -176.661 212.288 -193.754 207.142C-202.301 204.569 -208.97 201.647 -213.598 198.413C-218.219 195.184 -220.753 191.682 -221.174 187.932C-221.596 184.182 -219.9 180.222 -216.107 176.08C-212.309 171.931 -206.45 167.649 -198.68 163.306C-183.14 154.619 -160.16 145.793 -131.391 137.343C-73.8719 120.449 6.54652 105.125 96.2215 95.394Z" stroke="url(#paint2_linear_375_9794)" stroke-width="2"/>
<path opacity="0.137931" d="M104.84 95.9894C194.855 92.3477 276.309 95.6244 335.228 103.854C364.695 107.97 388.465 113.317 404.84 119.63C413.027 122.786 419.314 126.164 423.54 129.715C427.761 133.261 429.879 136.936 429.877 140.714C429.874 144.492 427.751 148.339 423.526 152.227C419.295 156.12 413.004 160.007 404.812 163.826C388.429 171.463 364.651 178.734 335.177 185.235C276.246 198.232 194.783 208.1 104.768 211.742C14.754 215.383 -66.7007 212.107 -125.619 203.877C-155.087 199.761 -178.856 194.414 -195.231 188.102C-203.419 184.945 -209.705 181.567 -213.932 178.016C-218.152 174.47 -220.27 170.795 -220.268 167.017C-220.266 163.239 -218.143 159.392 -213.918 155.504C-209.686 151.611 -203.396 147.724 -195.203 143.905C-178.82 136.268 -155.043 128.997 -125.568 122.496C-66.637 109.499 14.8258 99.6311 104.84 95.9894Z" stroke="url(#paint3_linear_375_9794)" stroke-width="2"/>
<path opacity="0.172414" d="M113.455 97.028C203.124 99.5032 283.53 108.32 341.033 120.562C369.793 126.685 392.765 133.653 408.296 141.083C416.063 144.799 421.918 148.607 425.711 152.448C429.499 156.284 431.187 160.104 430.762 163.882C430.336 167.659 427.802 171.363 423.176 174.967C418.545 178.576 411.871 182.038 403.318 185.304C386.216 191.834 361.822 197.493 331.866 201.995C271.971 210.996 190.085 215.333 100.416 212.858C10.7472 210.383 -69.6585 201.566 -127.162 189.324C-155.922 183.201 -178.894 176.234 -194.425 168.803C-202.191 165.088 -208.047 161.279 -211.84 157.438C-215.628 153.602 -217.315 149.781 -216.89 146.004C-216.465 142.226 -213.93 138.522 -209.305 134.919C-204.673 131.31 -197.999 127.848 -189.447 124.583C-172.345 118.053 -147.951 112.393 -117.995 107.891C-58.1 98.8897 23.7865 94.5527 113.455 97.028Z" stroke="url(#paint4_linear_375_9794)" stroke-width="2"/>
<path opacity="0.206897" d="M122.022 98.5049C210.662 107.078 289.407 121.369 345.058 137.53C372.892 145.613 394.892 154.148 409.461 162.64C416.746 166.887 422.126 171.097 425.457 175.199C428.783 179.295 430.027 183.231 429.183 186.98C428.339 190.729 425.413 194.262 420.422 197.554C415.425 200.85 408.419 203.862 399.572 206.549C381.88 211.921 357.056 215.927 326.846 218.396C266.444 223.332 184.756 222.105 96.1155 213.532C7.47504 204.958 -71.2694 190.668 -126.92 174.507C-154.754 166.424 -176.754 157.889 -191.323 149.397C-198.608 145.15 -203.988 140.94 -207.319 136.838C-210.645 132.741 -211.889 128.805 -211.045 125.056C-210.201 121.308 -207.274 117.775 -202.284 114.483C-197.287 111.186 -190.281 108.175 -181.434 105.488C-163.742 100.116 -138.918 96.1101 -108.708 93.6413C-48.3057 88.7053 33.3812 89.9315 122.022 98.5049Z" stroke="url(#paint5_linear_375_9794)" stroke-width="2"/>
<path opacity="0.241379" d="M130.491 100.417C217.429 115.024 293.913 134.679 347.287 154.636C373.983 164.617 394.843 174.654 408.339 184.145C415.088 188.89 419.951 193.47 422.794 197.801C425.634 202.127 426.425 206.15 425.169 209.841C423.913 213.532 420.617 216.868 415.3 219.824C409.975 222.783 402.69 225.321 393.616 227.408C375.469 231.582 350.403 233.903 320.169 234.32C259.72 235.153 178.854 228.372 91.9163 213.766C4.9787 199.159 -71.5057 179.504 -124.88 159.547C-151.575 149.566 -172.436 139.529 -185.932 130.038C-192.681 125.293 -197.544 120.713 -200.387 116.382C-203.227 112.056 -204.018 108.033 -202.762 104.342C-201.506 100.65 -198.21 97.3148 -192.893 94.3593C-187.568 91.4 -180.283 88.8619 -171.208 86.7746C-153.062 82.6006 -127.996 80.2796 -97.7623 79.8628C-37.3124 79.0295 43.5533 85.8107 130.491 100.417Z" stroke="url(#paint6_linear_375_9794)" stroke-width="2"/>
<path opacity="0.275862" d="M138.807 102.763C223.381 123.291 297.023 148.162 347.715 171.764C373.068 183.568 392.629 195.031 404.949 205.446C411.11 210.655 415.419 215.568 417.754 220.096C420.085 224.619 420.419 228.697 418.76 232.304C417.102 235.911 413.461 239.024 407.857 241.621C402.245 244.22 394.737 246.265 385.504 247.737C367.042 250.68 341.926 251.299 311.899 249.661C251.861 246.385 172.432 234.101 87.8586 213.573C3.28563 193.044 -70.3559 168.173 -121.048 144.572C-146.401 132.768 -165.963 121.305 -178.283 110.889C-184.444 105.681 -188.753 100.768 -191.088 96.2394C-193.419 91.7169 -193.752 87.6388 -192.093 84.0319C-190.435 80.425 -186.795 77.3111 -181.191 74.7149C-175.579 72.1153 -168.071 70.071 -158.838 68.5989C-140.376 65.6552 -115.259 65.0367 -85.2315 66.675C-25.1942 69.9508 54.2345 82.2347 138.807 102.763Z" stroke="url(#paint7_linear_375_9794)" stroke-width="2"/>
<path opacity="0.310345" d="M146.933 105.532C228.498 131.826 298.736 161.722 346.359 188.788C370.178 202.326 388.291 215.128 399.341 226.389C404.867 232.021 408.591 237.23 410.398 241.921C412.203 246.605 412.076 250.708 410.028 254.204C407.981 257.699 404.024 260.568 398.175 262.785C392.319 265.005 384.644 266.541 375.324 267.386C356.686 269.077 331.71 267.989 302.117 264.308C242.95 256.948 165.563 239.253 83.9982 212.959C2.43369 186.665 -67.8053 156.77 -115.428 129.704C-139.247 116.166 -157.36 103.364 -168.41 92.1026C-173.936 86.4711 -177.66 81.2609 -179.467 76.5704C-181.272 71.8859 -181.145 67.7828 -179.097 64.2873C-177.049 60.7919 -173.092 57.9234 -167.244 55.7062C-161.388 53.4861 -153.713 51.9513 -144.393 51.1057C-125.755 49.4149 -100.779 50.503 -71.1864 54.1841C-12.0188 61.5442 65.3684 79.2379 146.933 105.532Z" stroke="url(#paint8_linear_375_9794)" stroke-width="2"/>
<path opacity="0.344828" d="M154.819 108.706C232.754 140.565 299.055 175.26 343.247 205.585C365.349 220.752 381.877 234.795 391.573 246.817C396.421 252.828 399.529 258.295 400.796 263.112C402.061 267.923 401.475 272.02 399.054 275.378C396.632 278.736 392.387 281.338 386.339 283.159C380.284 284.983 372.502 285.998 363.165 286.21C344.493 286.635 319.848 283.848 290.916 278.152C233.069 266.764 158.312 243.795 80.3767 211.936C2.44135 180.076 -63.86 145.381 -108.052 115.056C-130.154 99.8894 -146.681 85.8458 -156.377 73.8245C-161.226 67.8129 -164.334 62.3456 -165.601 57.5286C-166.866 52.7176 -166.28 48.6206 -163.859 45.2625C-161.437 41.9044 -157.193 39.3032 -151.145 37.4818C-145.089 35.6581 -137.306 34.6433 -127.969 34.4308C-109.298 34.0058 -84.6532 36.7928 -55.7211 42.4886C2.12634 53.877 76.8837 76.8461 154.819 108.706Z" stroke="url(#paint9_linear_375_9794)" stroke-width="2"/>
<path opacity="0.37931" d="M162.422 112.271C236.135 149.454 297.992 188.683 338.416 222.036C358.634 238.717 373.45 253.895 381.718 266.585C385.853 272.931 388.322 278.613 389.038 283.52C389.754 288.421 388.714 292.481 385.937 295.677C383.159 298.873 378.659 301.187 372.458 302.598C366.249 304.012 358.418 304.499 349.135 304.077C330.573 303.233 306.446 298.768 278.394 291.1C222.307 275.77 150.751 247.701 77.0383 210.519C3.32563 173.336 -58.5326 134.107 -98.9566 100.755C-119.175 84.0738 -133.99 68.8956 -142.258 56.2057C-146.392 49.8598 -148.862 44.1766 -149.578 39.2697C-150.294 34.3691 -149.254 30.3092 -146.477 27.1135C-143.7 23.9177 -139.199 21.6029 -132.998 20.1913C-126.789 18.7779 -118.957 18.2917 -109.675 18.7138C-91.1122 19.5579 -66.9864 24.0227 -38.9347 31.6899C17.1522 47.0199 88.7091 75.0884 162.422 112.271Z" stroke="url(#paint10_linear_375_9794)" stroke-width="2"/>
<path opacity="0.413793" d="M169.702 116.21C238.631 158.433 295.576 201.898 331.924 238.024C350.104 256.093 363.095 272.29 369.871 285.552C373.26 292.183 375.072 298.038 375.233 302.997C375.393 307.951 373.907 311.943 370.795 314.953C367.683 317.963 362.961 319.973 356.653 320.964C350.338 321.957 342.518 321.911 333.36 320.858C315.048 318.751 291.624 312.643 264.667 303.062C210.767 283.907 142.955 250.952 74.0261 208.729C5.09694 166.507 -51.8481 123.042 -88.1965 86.9153C-106.376 68.8469 -119.366 52.6499 -126.143 39.3883C-129.532 32.7565 -131.344 26.9014 -131.505 21.942C-131.666 16.9889 -130.18 12.9962 -127.067 9.98649C-123.955 6.97682 -119.233 4.96636 -112.925 3.97526C-106.61 2.98292 -98.7894 3.02852 -89.6319 4.08204C-71.3196 6.18878 -47.8963 12.297 -20.939 21.8772C32.9603 41.0321 100.773 73.9878 169.702 116.21Z" stroke="url(#paint11_linear_375_9794)" stroke-width="2"/>
<path opacity="0.448276" d="M176.618 120.505C240.239 167.446 291.836 214.815 323.832 253.44C339.835 272.759 350.901 289.852 356.136 303.584C358.753 310.451 359.895 316.434 359.499 321.408C359.103 326.376 357.182 330.271 353.757 333.072C350.333 335.873 345.425 337.564 339.059 338.127C332.685 338.691 324.935 338.114 315.973 336.437C298.05 333.084 275.507 325.378 249.849 313.958C198.548 291.124 134.997 253.533 71.3761 206.591C7.75538 159.65 -43.8426 112.281 -75.8387 73.656C-91.8416 54.3376 -102.908 37.2448 -108.142 23.5124C-110.76 16.6451 -111.901 10.6622 -111.505 5.68811C-111.109 0.720473 -109.188 -3.1749 -105.763 -5.97595C-102.339 -8.77696 -97.4307 -10.4683 -91.0651 -11.0314C-84.6914 -11.5951 -76.9422 -11.0173 -67.9797 -9.34041C-50.057 -5.98713 -27.5141 1.71827 -1.8558 13.1387C49.4454 35.9726 112.997 73.5633 176.618 120.505Z" stroke="url(#paint12_linear_375_9794)" stroke-width="2"/>
<path opacity="0.482759" d="M183.133 125.122C240.961 176.425 286.819 227.339 314.219 268.169C327.923 288.59 336.982 306.447 340.634 320.546C342.46 327.596 342.921 333.66 341.971 338.611C341.022 343.556 338.681 347.325 334.97 349.897C331.259 352.468 326.2 353.826 319.825 353.957C313.441 354.088 305.822 352.983 297.123 350.696C279.726 346.122 258.236 336.878 234.073 323.705C185.76 297.366 126.953 255.425 69.1244 204.123C11.2963 152.82 -34.5608 101.907 -61.961 61.0766C-75.6653 40.6554 -84.7247 22.7975 -88.3763 8.69895C-90.2022 1.64885 -90.6637 -4.41576 -89.7134 -9.36669C-88.7644 -14.3112 -86.4227 -18.0799 -82.7117 -20.6514C-79.0007 -23.2229 -73.9426 -24.5817 -67.5675 -24.7124C-61.1841 -24.8433 -53.5644 -23.7388 -44.8652 -21.4514C-27.4689 -16.8772 -5.97868 -7.63289 18.1849 5.5406C66.4975 31.8796 125.305 73.8195 183.133 125.122Z" stroke="url(#paint13_linear_375_9794)" stroke-width="2"/>
<path opacity="0.517241" d="M189.215 130.04C240.81 185.313 280.579 239.383 303.175 282.107C314.476 303.475 321.458 321.962 323.5 336.319C324.521 343.499 324.298 349.6 322.801 354.49C321.306 359.373 318.562 362.987 314.592 365.31C310.621 367.632 305.452 368.648 299.116 368.345C292.771 368.042 285.339 366.419 276.969 363.539C260.231 357.778 239.958 347.066 217.473 332.24C172.517 302.596 118.902 256.626 67.3061 201.353C15.7106 146.08 -24.0581 92.0098 -46.654 49.286C-57.9552 27.9178 -64.9377 9.43068 -66.9791 -4.92643C-67.9999 -12.1059 -67.7774 -18.2066 -66.2805 -23.0968C-64.7854 -27.9805 -62.0413 -31.5943 -58.0711 -33.9168C-54.1008 -36.2393 -48.9312 -37.2548 -42.5949 -36.9521C-36.2502 -36.6491 -28.8181 -35.0261 -20.4482 -32.1456C-3.71076 -26.3853 16.5631 -15.6733 39.0479 -0.847065C84.0041 28.7965 137.619 74.7668 189.215 130.04Z" stroke="url(#paint14_linear_375_9794)" stroke-width="2"/>
<path opacity="0.551724" d="M194.836 135.233C239.806 194.056 273.183 250.871 290.803 295.164C299.615 317.316 304.467 336.292 304.883 350.798C305.091 358.052 304.187 364.142 302.155 368.934C300.125 373.719 296.999 377.151 292.799 379.207C288.599 381.263 283.356 381.927 277.107 381.194C270.849 380.459 263.662 378.33 255.685 374.878C239.734 367.976 220.831 355.878 200.196 339.512C158.938 306.789 110.923 257.139 65.9527 198.315C20.9826 139.492 -12.3941 82.6774 -30.0136 38.3852C-38.8261 16.2325 -43.6785 -2.74281 -44.0942 -17.2492C-44.3021 -24.5031 -43.398 -30.5928 -41.3658 -35.385C-39.3361 -40.1707 -36.2092 -43.6028 -32.009 -45.6586C-27.8089 -47.7143 -22.567 -48.3785 -16.3179 -47.6448C-10.0604 -46.9102 -2.87312 -44.7809 5.10343 -41.3293C21.0546 -34.427 39.9576 -22.3289 60.5927 -5.96277C101.85 26.7595 149.866 76.4094 194.836 135.233Z" stroke="url(#paint15_linear_375_9794)" stroke-width="2"/>
<path opacity="0.586207" d="M199.966 140.664C237.968 202.589 264.701 261.716 277.21 307.24C283.466 330.008 286.151 349.328 284.938 363.873C284.331 371.146 282.754 377.179 280.202 381.836C277.653 386.488 274.167 389.711 269.768 391.485C265.369 393.258 260.094 393.566 253.98 392.407C247.857 391.246 240.968 388.626 233.446 384.63C218.402 376.638 201.014 363.246 182.386 345.465C145.14 309.913 103.091 256.961 65.0887 195.035C27.0861 133.11 0.353943 73.9828 -12.1554 28.4593C-18.4118 5.69088 -21.0973 -13.6282 -19.8843 -28.1732C-19.2778 -35.4464 -17.6994 -41.4795 -15.1473 -46.1372C-12.5986 -50.7885 -9.11243 -54.0123 -4.71369 -55.7855C-0.314978 -57.5587 4.96051 -57.8669 11.0749 -56.7079C17.1976 -55.5472 24.0852 -52.9269 31.6076 -48.9307C46.651 -40.9389 64.0405 -27.5475 82.6687 -9.76625C119.914 25.7857 161.963 78.7382 199.966 140.664Z" stroke="url(#paint16_linear_375_9794)" stroke-width="2"/>
<path opacity="0.62069" d="M204.582 146.304C235.328 210.86 255.211 271.85 262.515 318.258C266.168 341.469 266.666 360.985 263.834 375.458C262.418 382.695 260.177 388.625 257.125 393.112C254.076 397.594 250.257 400.585 245.693 402.062C241.128 403.538 235.86 403.487 229.927 401.912C223.986 400.334 217.449 397.244 210.438 392.733C196.417 383.713 180.675 369.13 164.195 350.069C131.246 311.958 95.4816 256.106 64.7357 191.55C33.9898 126.994 14.1067 66.0043 6.8027 19.5961C3.14964 -3.61496 2.65162 -23.1308 5.48396 -37.6038C6.90026 -44.841 9.14058 -50.7708 12.1932 -55.2586C15.2416 -59.7401 19.0608 -62.731 23.6253 -64.2078C28.1897 -65.6846 33.4577 -65.6337 39.3908 -64.0582C45.3322 -62.4803 51.8685 -59.3901 58.8797 -54.8797C72.901 -45.8595 88.6434 -31.2759 105.123 -12.2148C138.072 25.896 173.836 81.7473 204.582 146.304Z" stroke="url(#paint17_linear_375_9794)" stroke-width="2"/>
<path opacity="0.655172" d="M208.666 152.115C231.922 218.811 244.804 281.198 246.847 328.138C247.869 351.615 246.177 371.179 241.747 385.47C239.532 392.616 236.646 398.398 233.116 402.681C229.591 406.959 225.468 409.694 220.772 410.862C216.076 412.031 210.856 411.622 205.149 409.642C199.434 407.659 193.299 404.122 186.853 399.131C173.96 389.152 159.984 373.487 145.778 353.291C117.375 312.911 88.1691 254.587 64.9139 187.891C41.6587 121.195 28.7751 58.8081 26.7319 11.8686C25.7099 -11.6083 27.4029 -31.1728 31.8328 -45.4636C34.0479 -52.6092 36.9336 -58.3908 40.4633 -62.6744C43.9881 -66.952 48.1122 -69.6878 52.8081 -70.8564C57.5039 -72.025 62.724 -71.6147 68.4307 -69.6346C74.1455 -67.6517 80.281 -64.1155 86.7276 -59.1253C99.6201 -49.1455 113.596 -33.4804 127.801 -13.2846C156.204 27.0948 185.411 85.4194 208.666 152.115Z" stroke="url(#paint18_linear_375_9794)" stroke-width="2"/>
<path opacity="0.689655" d="M212.208 158.06C227.796 226.388 233.581 289.698 230.349 336.812C228.732 360.375 224.862 379.839 218.868 393.839C215.871 400.839 212.361 406.429 208.381 410.476C204.407 414.517 200.009 416.976 195.217 417.827C190.426 418.678 185.293 417.912 179.856 415.542C174.411 413.169 168.724 409.213 162.89 403.781C151.225 392.918 139.122 376.291 127.298 355.115C103.658 312.774 81.231 252.419 65.6433 184.092C50.0555 115.764 44.2701 52.4539 47.5029 5.34025C49.1198 -18.2235 52.9898 -37.687 58.9832 -51.6867C61.9802 -58.6871 65.4901 -64.277 69.4704 -68.3241C73.4447 -72.365 77.8414 -74.8243 82.6331 -75.6754C87.4249 -76.5265 92.5584 -75.76 97.9953 -73.3904C103.44 -71.0174 109.128 -67.061 114.961 -61.6291C126.627 -50.7657 138.73 -34.1392 150.554 -12.9627C174.194 29.3779 196.621 89.7326 212.208 158.06Z" stroke="url(#paint19_linear_375_9794)" stroke-width="2"/>
<path opacity="0.724138" d="M215.186 164.112C222.988 233.552 221.631 297.304 213.147 344.233C208.904 367.704 202.886 386.919 195.375 400.521C191.619 407.322 187.513 412.678 183.113 416.457C178.719 420.231 174.081 422.394 169.229 422.921C164.378 423.447 159.371 422.33 154.245 419.59C149.112 416.845 143.916 412.498 138.741 406.666C128.391 395.002 118.253 377.541 108.901 355.545C90.2028 311.565 74.7255 249.64 66.9237 180.2C59.122 110.761 60.4791 47.0098 68.9632 0.0806456C73.2066 -23.3911 79.2239 -42.6059 86.7352 -56.2082C90.491 -63.0095 94.597 -68.365 98.9974 -72.1446C103.391 -75.9184 108.029 -78.0818 112.881 -78.6082C117.732 -79.1347 122.739 -78.0179 127.865 -75.277C132.998 -72.532 138.194 -68.1859 143.369 -62.3537C153.719 -50.6896 163.857 -33.2278 173.209 -11.2313C191.907 32.7482 207.385 94.6728 215.186 164.112Z" stroke="url(#paint20_linear_375_9794)" stroke-width="2"/>
<path opacity="0.758621" d="M217.604 170.219C217.561 240.242 209.073 303.949 195.402 350.337C188.565 373.538 180.445 392.357 171.473 405.458C162.449 418.636 152.793 425.704 143.031 426.099C133.27 426.494 123.623 420.207 114.614 407.758C105.658 395.382 97.5614 377.219 90.7525 354.571C77.1388 309.287 68.7298 246.263 68.7733 176.24C68.8168 106.218 77.3045 42.5098 90.9752 -3.87779C97.8126 -27.0785 105.933 -45.8974 114.904 -58.9986C123.929 -72.1766 133.584 -79.2449 143.345 -79.6399C153.107 -80.0348 162.754 -73.7475 171.763 -61.299C180.719 -48.923 188.816 -30.7601 195.625 -8.1116C209.239 37.1721 217.648 100.196 217.604 170.219Z" stroke="url(#paint21_linear_375_9794)" stroke-width="2"/>
<path opacity="0.793103" d="M219.455 176.351C211.567 246.424 196.013 309.603 177.26 355.096C167.881 377.849 157.72 396.13 147.356 408.631C136.933 421.203 126.565 427.623 116.835 427.354C107.105 427.086 98.2426 420.135 90.7059 407.067C83.2119 394.073 77.2177 375.346 73.0035 352.218C64.5776 305.974 63.3003 242.331 71.1886 172.258C79.0769 102.185 94.6309 39.0063 113.384 -6.48674C122.763 -29.2401 132.923 -47.5213 143.287 -60.022C153.71 -72.594 164.078 -79.0141 173.808 -78.7457C183.538 -78.4771 192.401 -71.5262 199.938 -58.4582C207.432 -45.4645 213.426 -26.7375 217.64 -3.60881C226.066 42.6344 227.343 106.278 219.455 176.351Z" stroke="url(#paint22_linear_375_9794)" stroke-width="2"/>
<path opacity="0.827586" d="M220.742 182.467C205.069 252.057 182.567 314.227 158.874 358.479C147.025 380.612 134.902 398.215 123.225 410.02C111.482 421.891 100.481 427.615 90.857 426.684C81.2326 425.753 73.2228 418.191 67.2143 404.603C61.2392 391.09 57.3943 371.942 55.8067 348.51C52.6324 301.659 58.4963 237.88 74.1693 168.29C89.8422 98.6999 112.344 36.5307 136.036 -7.72156C147.886 -29.8542 160.008 -47.4578 171.685 -59.2629C183.428 -71.1342 194.429 -76.8574 204.054 -75.9265C213.678 -74.9955 221.687 -67.4336 227.695 -53.8455C233.67 -40.333 237.516 -21.1852 239.104 2.24729C242.278 49.0981 236.415 112.877 220.742 182.467Z" stroke="url(#paint23_linear_375_9794)" stroke-width="2"/>
<path opacity="0.862069" d="M221.468 188.531C198.13 257.109 168.851 317.795 140.4 360.47C126.17 381.814 112.178 398.607 99.2762 409.627C86.3041 420.707 74.7522 425.69 65.3079 424.103C55.8638 422.516 48.7699 414.401 44.3348 400.396C39.9239 386.468 38.2556 367.044 39.3066 343.485C41.4081 296.383 54.3677 232.955 77.7059 164.377C101.044 95.7997 130.323 35.1132 158.774 -7.56178C173.004 -28.9057 186.997 -45.6977 199.899 -56.7176C212.871 -67.7979 224.422 -72.7803 233.866 -71.1936C243.31 -69.6069 250.405 -61.4919 254.84 -47.4869C259.251 -33.5584 260.919 -14.1349 259.868 9.42299C257.766 56.525 244.807 119.953 221.468 188.531Z" stroke="url(#paint24_linear_375_9794)" stroke-width="2"/>
<path opacity="0.896552" d="M221.648 194.506C190.822 261.549 154.99 320.292 121.996 361.065C105.495 381.457 89.7374 397.31 75.7102 407.461C61.6071 417.667 49.5926 421.87 40.4015 419.639C31.2105 417.408 25.0863 408.802 22.2578 394.487C19.4445 380.248 19.9659 360.697 23.6474 337.193C31.0084 290.198 50.9663 227.602 81.7921 160.559C112.618 93.5152 148.45 34.7727 181.444 -6.00034C197.946 -26.393 213.703 -42.2466 227.73 -52.3975C241.833 -62.603 253.846 -66.8055 263.037 -64.5748C272.228 -62.3438 278.354 -53.7385 281.182 -39.4231C283.996 -25.1844 283.474 -5.6328 279.792 17.8718C272.431 64.8666 252.474 127.462 221.648 194.506Z" stroke="url(#paint25_linear_375_9794)" stroke-width="2"/>
<path opacity="0.931035" d="M221.296 200.349C183.217 265.348 141.104 321.699 103.819 360.259C85.1706 379.546 67.7703 394.34 52.7235 403.545C37.5967 412.799 25.2116 416.189 16.3448 413.331C7.47801 410.473 2.3683 401.443 1.16749 386.925C-0.0268943 372.484 2.68174 352.954 8.96579 329.682C21.5302 283.152 48.3328 221.865 86.4116 156.866C124.49 91.867 166.604 35.5163 203.889 -3.04465C222.537 -22.3308 239.937 -37.1255 254.984 -46.3303C270.111 -55.5843 282.497 -58.9743 291.364 -56.1159C300.23 -53.2574 305.339 -44.2276 306.54 -29.7102C307.734 -15.2697 305.026 4.26105 298.742 27.5331C286.177 74.0632 259.375 135.35 221.296 200.349Z" stroke="url(#paint26_linear_375_9794)" stroke-width="2"/>
<path opacity="0.965517" d="M220.425 206.027C175.383 268.487 127.309 322.018 86.0168 358.073C65.3643 376.106 46.4529 389.729 30.5012 397.918C14.4652 406.15 1.80302 408.702 -6.67079 405.238C-15.1446 401.774 -19.199 392.389 -18.7633 377.779C-18.3298 363.246 -13.4562 343.885 -4.61751 321.022C13.0546 275.311 46.4999 215.8 91.5419 153.34C136.584 90.8796 184.657 37.3483 225.949 1.29277C246.602 -16.7405 265.514 -30.363 281.466 -38.5518C297.502 -46.784 310.164 -49.3353 318.638 -45.8713C327.112 -42.4072 331.166 -33.0222 330.731 -18.4127C330.297 -3.88016 325.423 15.481 316.584 38.3436C298.912 84.0551 265.467 143.566 220.425 206.027Z" stroke="url(#paint27_linear_375_9794)" stroke-width="2"/>
<path d="M219.068 211.504C167.406 270.949 113.738 321.253 68.7515 354.529C46.2518 371.172 25.9724 383.519 9.23708 390.629C-7.58648 397.778 -20.4284 399.471 -28.4437 395.428C-36.4588 391.385 -39.4278 381.716 -37.3589 367.125C-35.3008 352.611 -28.2986 333.566 -16.9726 311.287C5.67284 266.742 45.5044 209.459 97.1667 150.013C148.829 90.5673 202.498 40.2632 247.484 6.98734C269.984 -9.65551 290.263 -22.0028 306.998 -29.1134C323.822 -36.2616 336.665 -37.9543 344.68 -33.9112C352.695 -29.8681 355.663 -20.1999 353.594 -5.60917C351.536 8.90502 344.534 27.9496 333.208 50.2288C310.563 94.7739 270.731 152.058 219.068 211.504Z" stroke="url(#paint28_linear_375_9794)" stroke-width="2"/>
<defs>
<linearGradient id="paint0_linear_375_9794" x1="78.8929" y1="94.6812" x2="107.397" y2="209.216" gradientUnits="userSpaceOnUse">
<stop stop-color="#3898EC"/>
<stop offset="0.53" stop-color="#6299BC"/>
<stop offset="1" stop-color="#FA9E0B"/>
</linearGradient>
<linearGradient id="paint1_linear_375_9794" x1="87.4607" y1="94.3835" x2="108.002" y2="210.037" gradientUnits="userSpaceOnUse">
<stop stop-color="#3898EC"/>
<stop offset="0.53" stop-color="#6299BC"/>
<stop offset="1" stop-color="#FA9E0B"/>
</linearGradient>
<linearGradient id="paint2_linear_375_9794" x1="96.1246" y1="94.5297" x2="108.774" y2="211.1" gradientUnits="userSpaceOnUse">
<stop stop-color="#3898EC"/>
<stop offset="0.53" stop-color="#6299BC"/>
<stop offset="1" stop-color="#FA9E0B"/>
</linearGradient>
<linearGradient id="paint3_linear_375_9794" x1="104.841" y1="95.1144" x2="109.587" y2="212.422" gradientUnits="userSpaceOnUse">
<stop stop-color="#3898EC"/>
<stop offset="0.53" stop-color="#6299BC"/>
<stop offset="1" stop-color="#FA9E0B"/>
</linearGradient>
<linearGradient id="paint4_linear_375_9794" x1="113.554" y1="96.149" x2="110.301" y2="214.013" gradientUnits="userSpaceOnUse">
<stop stop-color="#3898EC"/>
<stop offset="0.53" stop-color="#6299BC"/>
<stop offset="1" stop-color="#FA9E0B"/>
</linearGradient>
<linearGradient id="paint5_linear_375_9794" x1="122.219" y1="97.6291" x2="110.785" y2="215.845" gradientUnits="userSpaceOnUse">
<stop stop-color="#3898EC"/>
<stop offset="0.53" stop-color="#6299BC"/>
<stop offset="1" stop-color="#FA9E0B"/>
</linearGradient>
<linearGradient id="paint6_linear_375_9794" x1="130.785" y1="99.5514" x2="110.906" y2="217.872" gradientUnits="userSpaceOnUse">
<stop stop-color="#3898EC"/>
<stop offset="0.53" stop-color="#6299BC"/>
<stop offset="1" stop-color="#FA9E0B"/>
</linearGradient>
<linearGradient id="paint7_linear_375_9794" x1="139.198" y1="101.915" x2="110.531" y2="220.019" gradientUnits="userSpaceOnUse">
<stop stop-color="#3898EC"/>
<stop offset="0.53" stop-color="#6299BC"/>
<stop offset="1" stop-color="#FA9E0B"/>
</linearGradient>
<linearGradient id="paint8_linear_375_9794" x1="147.416" y1="104.708" x2="109.548" y2="222.176" gradientUnits="userSpaceOnUse">
<stop stop-color="#3898EC"/>
<stop offset="0.53" stop-color="#6299BC"/>
<stop offset="1" stop-color="#FA9E0B"/>
</linearGradient>
<linearGradient id="paint9_linear_375_9794" x1="155.39" y1="107.913" x2="107.855" y2="224.195" gradientUnits="userSpaceOnUse">
<stop stop-color="#3898EC"/>
<stop offset="0.53" stop-color="#6299BC"/>
<stop offset="1" stop-color="#FA9E0B"/>
</linearGradient>
<linearGradient id="paint10_linear_375_9794" x1="163.078" y1="111.516" x2="105.38" y2="225.901" gradientUnits="userSpaceOnUse">
<stop stop-color="#3898EC"/>
<stop offset="0.53" stop-color="#6299BC"/>
<stop offset="1" stop-color="#FA9E0B"/>
</linearGradient>
<linearGradient id="paint11_linear_375_9794" x1="170.437" y1="115.5" x2="102.088" y2="227.08" gradientUnits="userSpaceOnUse">
<stop stop-color="#3898EC"/>
<stop offset="0.53" stop-color="#6299BC"/>
<stop offset="1" stop-color="#FA9E0B"/>
</linearGradient>
<linearGradient id="paint12_linear_375_9794" x1="177.425" y1="119.844" x2="97.9998" y2="227.492" gradientUnits="userSpaceOnUse">
<stop stop-color="#3898EC"/>
<stop offset="0.53" stop-color="#6299BC"/>
<stop offset="1" stop-color="#FA9E0B"/>
</linearGradient>
<linearGradient id="paint13_linear_375_9794" x1="184.006" y1="124.517" x2="93.2067" y2="226.866" gradientUnits="userSpaceOnUse">
<stop stop-color="#3898EC"/>
<stop offset="0.53" stop-color="#6299BC"/>
<stop offset="1" stop-color="#FA9E0B"/>
</linearGradient>
<linearGradient id="paint14_linear_375_9794" x1="190.146" y1="129.495" x2="87.8903" y2="224.947" gradientUnits="userSpaceOnUse">
<stop stop-color="#3898EC"/>
<stop offset="0.53" stop-color="#6299BC"/>
<stop offset="1" stop-color="#FA9E0B"/>
</linearGradient>
<linearGradient id="paint15_linear_375_9794" x1="195.817" y1="134.753" x2="82.3358" y2="221.509" gradientUnits="userSpaceOnUse">
<stop stop-color="#3898EC"/>
<stop offset="0.53" stop-color="#6299BC"/>
<stop offset="1" stop-color="#FA9E0B"/>
</linearGradient>
<linearGradient id="paint16_linear_375_9794" x1="200.989" y1="140.251" x2="76.9176" y2="216.392" gradientUnits="userSpaceOnUse">
<stop stop-color="#3898EC"/>
<stop offset="0.53" stop-color="#6299BC"/>
<stop offset="1" stop-color="#FA9E0B"/>
</linearGradient>
<linearGradient id="paint17_linear_375_9794" x1="205.639" y1="145.962" x2="72.0948" y2="209.564" gradientUnits="userSpaceOnUse">
<stop stop-color="#3898EC"/>
<stop offset="0.53" stop-color="#6299BC"/>
<stop offset="1" stop-color="#FA9E0B"/>
</linearGradient>
<linearGradient id="paint18_linear_375_9794" x1="209.749" y1="151.846" x2="68.3589" y2="201.145" gradientUnits="userSpaceOnUse">
<stop stop-color="#3898EC"/>
<stop offset="0.53" stop-color="#6299BC"/>
<stop offset="1" stop-color="#FA9E0B"/>
</linearGradient>
<linearGradient id="paint19_linear_375_9794" x1="213.307" y1="157.865" x2="66.1738" y2="191.431" gradientUnits="userSpaceOnUse">
<stop stop-color="#3898EC"/>
<stop offset="0.53" stop-color="#6299BC"/>
<stop offset="1" stop-color="#FA9E0B"/>
</linearGradient>
<linearGradient id="paint20_linear_375_9794" x1="216.293" y1="163.992" x2="65.8808" y2="180.891" gradientUnits="userSpaceOnUse">
<stop stop-color="#3898EC"/>
<stop offset="0.53" stop-color="#6299BC"/>
<stop offset="1" stop-color="#FA9E0B"/>
</linearGradient>
<linearGradient id="paint21_linear_375_9794" x1="218.711" y1="170.174" x2="67.6698" y2="170.08" gradientUnits="userSpaceOnUse">
<stop stop-color="#3898EC"/>
<stop offset="0.53" stop-color="#6299BC"/>
<stop offset="1" stop-color="#FA9E0B"/>
</linearGradient>
<linearGradient id="paint22_linear_375_9794" x1="220.554" y1="176.381" x2="71.511" y2="159.603" gradientUnits="userSpaceOnUse">
<stop stop-color="#3898EC"/>
<stop offset="0.53" stop-color="#6299BC"/>
<stop offset="1" stop-color="#FA9E0B"/>
</linearGradient>
<linearGradient id="paint23_linear_375_9794" x1="221.824" y1="182.572" x2="77.1829" y2="149.996" gradientUnits="userSpaceOnUse">
<stop stop-color="#3898EC"/>
<stop offset="0.53" stop-color="#6299BC"/>
<stop offset="1" stop-color="#FA9E0B"/>
</linearGradient>
<linearGradient id="paint24_linear_375_9794" x1="222.527" y1="188.709" x2="84.3139" y2="141.673" gradientUnits="userSpaceOnUse">
<stop stop-color="#3898EC"/>
<stop offset="0.53" stop-color="#6299BC"/>
<stop offset="1" stop-color="#FA9E0B"/>
</linearGradient>
<linearGradient id="paint25_linear_375_9794" x1="222.675" y1="194.755" x2="92.4556" y2="134.881" gradientUnits="userSpaceOnUse">
<stop stop-color="#3898EC"/>
<stop offset="0.53" stop-color="#6299BC"/>
<stop offset="1" stop-color="#FA9E0B"/>
</linearGradient>
<linearGradient id="paint26_linear_375_9794" x1="222.285" y1="200.668" x2="101.15" y2="129.702" gradientUnits="userSpaceOnUse">
<stop stop-color="#3898EC"/>
<stop offset="0.53" stop-color="#6299BC"/>
<stop offset="1" stop-color="#FA9E0B"/>
</linearGradient>
<linearGradient id="paint27_linear_375_9794" x1="221.37" y1="206.413" x2="109.975" y2="126.082" gradientUnits="userSpaceOnUse">
<stop stop-color="#3898EC"/>
<stop offset="0.53" stop-color="#6299BC"/>
<stop offset="1" stop-color="#FA9E0B"/>
</linearGradient>
<linearGradient id="paint28_linear_375_9794" x1="219.961" y1="211.954" x2="118.605" y2="123.868" gradientUnits="userSpaceOnUse">
<stop stop-color="#3898EC"/>
<stop offset="0.53" stop-color="#6299BC"/>
<stop offset="1" stop-color="#FA9E0B"/>
</linearGradient>
</defs>
</svg>
