<svg width="471" height="400" viewBox="0 0 471 400" fill="none" xmlns="http://www.w3.org/2000/svg">
<path opacity="0.0344828" d="M496.538 338.556C413.596 365.895 336.04 383.314 277.711 389.388C248.539 392.425 224.234 392.619 206.488 389.823C197.615 388.425 190.434 386.288 185.117 383.422C179.807 380.56 176.409 377.004 174.966 372.773C173.523 368.542 174.055 363.691 176.537 358.261C179.023 352.823 183.442 346.863 189.665 340.489C202.111 327.742 221.623 313.492 246.763 298.628C297.028 268.909 369.592 236.847 452.534 209.509C535.476 182.17 613.031 164.751 671.359 158.677C700.532 155.639 724.837 155.447 742.583 158.242C751.456 159.64 758.636 161.777 763.954 164.643C769.264 167.505 772.662 171.061 774.105 175.292C775.548 179.523 775.016 184.374 772.534 189.804C770.047 195.242 765.629 201.203 759.406 207.577C746.96 220.324 727.447 234.573 702.308 249.437C652.042 279.156 579.48 311.218 496.538 338.556Z" stroke="url(#paint0_linear_375_9826)" stroke-width="2"/>
<path opacity="0.0689655" d="M488.341 339.067C403.397 359.503 324.716 370.48 266.188 371.719C236.916 372.339 212.742 370.521 195.362 366.262C186.671 364.132 179.732 361.403 174.71 358.102C169.696 354.805 166.645 350.973 165.6 346.629C164.555 342.285 165.529 337.485 168.495 332.268C171.465 327.043 176.405 321.458 183.176 315.608C196.716 303.909 217.418 291.295 243.769 278.532C296.456 253.015 371.52 227.004 456.464 206.568C541.409 186.132 620.088 175.155 678.616 173.916C707.889 173.296 732.063 175.114 749.443 179.374C758.133 181.504 765.072 184.232 770.094 187.533C775.109 190.83 778.159 194.662 779.204 199.006C780.249 203.35 779.276 208.15 776.309 213.367C773.339 218.592 768.4 224.178 761.629 230.028C748.088 241.726 727.387 254.34 701.035 267.102C648.348 292.62 573.285 318.63 488.341 339.067Z" stroke="url(#paint1_linear_375_9826)" stroke-width="2"/>
<path opacity="0.103448" d="M480.025 339.063C393.725 352.441 314.519 356.892 256.236 353.288C227.087 351.485 203.228 347.67 186.347 341.979C177.905 339.133 171.259 335.834 166.572 332.122C161.891 328.415 159.211 324.336 158.571 319.912C157.932 315.488 159.341 310.775 162.768 305.812C166.2 300.841 171.623 295.672 178.889 290.391C193.422 279.83 215.155 268.947 242.517 258.383C297.225 237.262 374.218 217.5 460.518 204.122C546.819 190.743 626.024 186.292 684.306 189.897C713.456 191.7 737.314 195.515 754.196 201.207C762.637 204.053 769.283 207.351 773.971 211.063C778.652 214.77 781.331 218.848 781.971 223.272C782.611 227.696 781.202 232.409 777.774 237.373C774.342 242.344 768.92 247.513 761.653 252.794C747.121 263.355 725.387 274.238 698.026 284.801C643.317 305.922 566.326 325.684 480.025 339.063Z" stroke="url(#paint2_linear_375_9826)" stroke-width="2"/>
<path opacity="0.137931" d="M471.633 338.552C384.634 344.77 305.506 342.662 247.913 334.241C219.108 330.029 195.746 324.246 179.49 317.166C171.362 313.626 165.06 309.782 160.742 305.688C156.431 301.599 154.142 297.304 153.913 292.834C153.684 288.363 155.517 283.774 159.38 279.101C163.247 274.422 169.111 269.709 176.818 265.037C192.232 255.694 214.833 246.625 242.997 238.341C299.31 221.777 377.645 208.414 464.644 202.195C551.644 195.976 630.772 198.084 688.365 206.506C717.17 210.718 740.531 216.502 756.786 223.581C764.915 227.121 771.217 230.964 775.534 235.059C779.846 239.148 782.135 243.442 782.364 247.913C782.593 252.383 780.76 256.972 776.897 261.645C773.029 266.325 767.166 271.038 759.458 275.71C744.045 285.053 721.445 294.122 693.28 302.406C636.968 318.969 558.633 332.333 471.633 338.552Z" stroke="url(#paint3_linear_375_9826)" stroke-width="2"/>
<path opacity="0.172414" d="M463.216 337.517C376.179 336.529 297.73 327.878 241.264 314.704C213.023 308.115 190.337 300.408 174.832 291.993C167.079 287.786 161.168 283.426 157.253 278.981C153.344 274.541 151.464 270.064 151.647 265.581C151.83 261.098 154.074 256.667 158.342 252.321C162.616 247.968 168.877 243.748 176.966 239.72C193.143 231.666 216.438 224.48 245.19 218.538C302.679 206.658 381.761 199.795 468.798 200.783C555.835 201.771 634.283 210.423 690.749 223.597C718.99 230.186 741.676 237.894 757.181 246.308C764.934 250.515 770.845 254.874 774.76 259.32C778.669 263.759 780.549 268.237 780.366 272.72C780.183 277.202 777.939 281.633 773.671 285.98C769.397 290.332 763.136 294.554 755.047 298.581C738.87 306.636 715.575 313.821 686.823 319.763C629.334 331.643 550.253 338.506 463.216 337.517Z" stroke="url(#paint4_linear_375_9826)" stroke-width="2"/>
<path opacity="0.206897" d="M454.82 335.968C368.409 327.781 291.236 312.651 236.328 294.825C208.865 285.909 187.026 276.336 172.39 266.652C165.071 261.809 159.597 256.967 156.115 252.204C152.638 247.448 151.181 242.821 151.774 238.36C152.368 233.899 155.005 229.661 159.646 225.673C164.294 221.681 170.904 217.985 179.314 214.632C196.132 207.928 219.943 202.68 249.065 199.125C307.293 192.019 386.52 191.709 472.932 199.897C559.343 208.084 636.514 223.213 691.423 241.04C718.886 249.955 740.724 259.529 755.361 269.214C762.68 274.056 768.153 278.898 771.636 283.661C775.113 288.417 776.57 293.043 775.976 297.505C775.383 301.966 772.746 306.204 768.104 310.191C763.457 314.184 756.847 317.881 748.437 321.233C731.619 327.938 707.807 333.185 678.685 336.739C620.458 343.846 541.232 344.156 454.82 335.968Z" stroke="url(#paint5_linear_375_9826)" stroke-width="2"/>
<path opacity="0.241379" d="M446.49 333.9C361.361 318.575 286.054 297.084 233.12 274.741C206.646 263.566 185.82 252.201 172.163 241.319C165.334 235.878 160.339 230.59 157.315 225.546C154.296 220.509 153.273 215.769 154.273 211.364C155.273 206.958 158.283 202.944 163.262 199.347C168.248 195.744 175.158 192.6 183.823 189.949C201.154 184.646 225.303 181.375 254.572 180.236C313.095 177.957 391.864 184.202 476.992 199.527C562.121 214.852 637.428 236.343 690.362 258.686C716.836 269.861 737.661 281.227 751.318 292.109C758.147 297.55 763.142 302.837 766.166 307.881C769.185 312.918 770.208 317.658 769.208 322.064C768.208 326.469 765.198 330.483 760.219 334.08C755.233 337.683 748.323 340.827 739.657 343.479C722.327 348.782 698.179 352.052 668.91 353.191C610.387 355.47 531.618 349.225 446.49 333.9Z" stroke="url(#paint6_linear_375_9826)" stroke-width="2"/>
<path opacity="0.275862" d="M438.282 331.319C355.084 308.974 282.213 281.283 231.657 254.594C206.372 241.245 186.719 228.173 174.145 216.178C167.858 210.18 163.38 204.487 160.839 199.2C158.301 193.92 157.72 189.103 159.118 184.786C160.517 180.47 163.877 176.711 169.156 173.531C174.443 170.347 181.599 167.779 190.455 165.848C208.166 161.987 232.466 160.719 261.661 162.002C320.033 164.569 397.745 177.322 480.943 199.667C564.141 222.012 637.011 249.703 687.567 276.392C712.852 289.741 732.505 302.813 745.078 314.809C751.365 320.807 755.844 326.499 758.385 331.786C760.923 337.066 761.504 341.883 760.106 346.2C758.707 350.516 755.346 354.275 750.067 357.455C744.781 360.64 737.625 363.208 728.769 365.139C711.057 369 686.758 370.267 657.563 368.984C599.191 366.417 521.48 353.664 438.282 331.319Z" stroke="url(#paint7_linear_375_9826)" stroke-width="2"/>
<path opacity="0.310345" d="M430.233 328.234C349.599 299.038 279.719 265.359 231.926 234.526C208.023 219.105 189.691 204.427 178.297 191.409C172.6 184.9 168.672 178.844 166.632 173.355C164.595 167.873 164.46 163.014 166.247 158.82C168.033 154.626 171.719 151.15 177.257 148.412C182.804 145.669 190.152 143.697 199.131 142.502C217.088 140.112 241.356 140.856 270.253 144.553C328.031 151.945 404.094 171.109 484.728 200.304C565.362 229.5 635.24 263.179 683.034 294.012C706.937 309.433 725.268 324.112 736.662 337.13C742.359 343.639 746.287 349.694 748.327 355.183C750.365 360.665 750.499 365.524 748.713 369.718C746.926 373.912 743.241 377.388 737.702 380.126C732.156 382.869 724.808 384.841 715.828 386.037C697.871 388.427 673.604 387.682 644.707 383.985C586.928 376.593 510.866 357.429 430.233 328.234Z" stroke="url(#paint8_linear_375_9826)" stroke-width="2"/>
<path opacity="0.344828" d="M422.392 324.667C344.936 288.843 278.58 249.432 233.913 214.691C211.574 197.315 194.704 181.141 184.576 167.2C179.512 160.229 176.164 153.857 174.641 148.207C173.12 142.565 173.432 137.702 175.593 133.662C177.754 129.622 181.736 126.456 187.493 124.18C193.257 121.9 200.741 120.539 209.775 120.089C227.842 119.187 251.891 121.938 280.272 128.021C337.016 140.182 410.851 165.611 488.307 201.435C565.763 237.259 632.119 276.669 676.785 311.411C699.125 328.787 715.994 344.961 726.122 358.902C731.187 365.873 734.535 372.244 736.058 377.894C737.579 383.536 737.266 388.399 735.105 392.44C732.944 396.48 728.962 399.645 723.206 401.922C717.441 404.201 709.957 405.563 700.923 406.014C682.856 406.915 658.807 404.163 630.427 398.081C573.683 385.919 499.848 360.491 422.392 324.667Z" stroke="url(#paint9_linear_375_9826)" stroke-width="2"/>
<path opacity="0.37931" d="M414.801 320.631C341.112 278.451 278.784 233.608 237.584 195.222C216.978 176.024 201.697 158.478 192.913 143.719C188.52 136.339 185.779 129.7 184.784 123.932C183.791 118.173 184.548 113.343 187.067 109.487C189.586 105.632 193.834 102.8 199.764 101.004C205.703 99.2044 213.266 98.4645 222.286 98.762C240.324 99.3569 263.974 104.094 291.621 112.515C346.899 129.353 417.944 160.853 491.634 203.033C565.322 245.212 627.649 290.054 668.849 328.44C689.456 347.639 704.735 365.185 713.52 379.944C717.913 387.324 720.655 393.962 721.649 399.73C722.643 405.49 721.885 410.32 719.366 414.175C716.847 418.031 712.599 420.862 706.669 422.659C700.73 424.458 693.167 425.199 684.147 424.901C666.109 424.306 642.46 419.569 614.813 411.148C559.534 394.309 488.49 362.81 414.801 320.631Z" stroke="url(#paint10_linear_375_9826)" stroke-width="2"/>
<path opacity="0.413793" d="M407.501 316.147C338.14 267.933 280.315 217.999 242.895 176.261C224.179 155.386 210.605 136.602 203.23 121.138C199.542 113.405 197.428 106.549 196.969 100.708C196.511 94.8743 197.708 90.1141 200.565 86.4727C203.423 82.8313 207.906 80.3555 213.964 79.052C220.032 77.7467 227.616 77.6335 236.553 78.6768C254.426 80.7633 277.495 87.4495 304.199 98.146C357.591 119.533 425.306 156.864 494.667 205.078C564.028 253.292 621.851 303.225 659.272 344.964C677.987 365.839 691.561 384.623 698.936 400.087C702.624 407.82 704.739 414.675 705.198 420.517C705.655 426.35 704.459 431.11 701.601 434.752C698.744 438.393 694.261 440.869 688.202 442.172C682.135 443.478 674.55 443.592 665.613 442.548C647.74 440.462 624.671 433.775 597.968 423.078C544.576 401.691 476.862 364.361 407.501 316.147Z" stroke="url(#paint11_linear_375_9826)" stroke-width="2"/>
<path opacity="0.448276" d="M400.534 311.237C336.029 257.355 283.148 202.711 249.792 157.938C233.109 135.545 221.344 115.666 215.435 99.6145C212.481 91.5883 211.009 84.5671 211.09 78.6962C211.171 72.8336 212.797 68.1794 215.972 64.7798C219.147 61.3802 223.829 59.2788 229.971 58.4785C236.121 57.6771 243.669 58.1916 252.455 59.9727C270.027 63.5349 292.34 72.1199 317.897 85.01C368.996 110.783 432.865 153.661 497.37 207.543C561.875 261.425 614.756 316.068 648.112 360.841C664.794 383.234 676.559 403.114 682.467 419.166C685.422 427.192 686.894 434.212 686.813 440.083C686.732 445.946 685.106 450.6 681.931 454C678.757 457.399 674.074 459.501 667.933 460.301C661.783 461.102 654.234 460.589 645.448 458.807C627.876 455.245 605.564 446.66 580.007 433.769C528.908 407.997 465.039 365.119 400.534 311.237Z" stroke="url(#paint12_linear_375_9826)" stroke-width="2"/>
<path opacity="0.482759" d="M393.936 305.936C334.778 246.796 287.242 187.857 258.205 140.391C243.682 116.651 233.815 95.8269 229.418 79.3103C227.219 71.0516 226.401 63.9189 227.021 58.0634C227.64 52.2161 229.684 47.7033 233.152 44.5713C236.62 41.4393 241.466 39.7285 247.643 39.4374C253.829 39.146 261.284 40.2843 269.853 42.7897C286.989 47.8004 308.376 58.2188 332.592 73.2043C381.009 103.167 440.546 151.267 499.705 210.406C558.863 269.545 606.398 328.484 635.435 375.95C649.958 399.69 659.824 420.515 664.222 437.031C666.42 445.29 667.239 452.422 666.619 458.278C666 464.125 663.956 468.638 660.488 471.77C657.02 474.902 652.174 476.612 645.997 476.904C639.811 477.195 632.356 476.057 623.787 473.552C606.65 468.541 585.264 458.122 561.048 443.137C512.631 413.174 453.095 365.075 393.936 305.936Z" stroke="url(#paint13_linear_375_9826)" stroke-width="2"/>
<path opacity="0.517241" d="M387.742 300.272C334.381 236.325 292.552 173.54 268.054 123.741C255.802 98.8343 247.909 77.2248 245.056 60.3687C243.63 51.9401 243.472 44.7503 244.627 38.9546C245.779 33.1672 248.225 28.8301 251.959 25.9896C255.693 23.1492 260.668 21.8418 266.833 22.0622C273.008 22.283 280.312 24.0364 288.598 27.247C305.169 33.6681 325.468 45.8407 348.158 62.8076C393.525 96.732 448.277 149.687 501.638 213.633C555 277.58 596.828 340.365 621.325 390.164C633.578 415.071 641.469 436.681 644.323 453.537C645.749 461.965 645.907 469.155 644.753 474.95C643.601 480.738 641.155 485.075 637.42 487.915C633.686 490.756 628.712 492.063 622.546 491.843C616.371 491.622 609.067 489.869 600.781 486.658C584.209 480.237 563.912 468.064 541.222 451.097C495.855 417.173 441.103 364.219 387.742 300.272Z" stroke="url(#paint14_linear_375_9826)" stroke-width="2"/>
<path opacity="0.551724" d="M381.978 294.274C334.819 226.007 299.016 159.853 279.245 108.1C269.356 82.2164 263.497 59.9857 262.21 42.9183C261.567 34.3841 262.071 27.1919 263.751 21.5002C265.428 15.8166 268.258 11.6882 272.23 9.16087C276.202 6.63354 281.266 5.73962 287.374 6.46988C293.49 7.20118 300.588 9.55625 308.528 13.4477C324.408 21.2304 343.463 35.0644 364.455 53.8836C406.426 91.5115 455.976 148.918 503.135 217.186C550.293 285.453 586.096 351.606 605.867 403.359C615.756 429.243 621.614 451.474 622.901 468.541C623.544 477.076 623.041 484.267 621.361 489.959C619.684 495.643 616.854 499.771 612.882 502.298C608.91 504.826 603.846 505.72 597.738 504.989C591.622 504.258 584.523 501.904 576.583 498.012C560.703 490.229 541.649 476.395 520.657 457.576C478.686 419.948 429.136 362.542 381.978 294.274Z" stroke="url(#paint15_linear_375_9826)" stroke-width="2"/>
<path opacity="0.586207" d="M376.677 287.986C336.081 215.917 306.576 146.899 291.681 93.5865C284.231 66.9227 280.451 44.2399 280.74 27.0911C280.885 18.5163 282.047 11.3763 284.239 5.83196C286.428 0.295483 289.619 -3.59273 293.799 -5.78775C297.98 -7.98273 303.094 -8.4564 309.098 -7.22188C315.109 -5.98562 321.948 -3.04674 329.481 1.49592C344.548 10.5809 362.215 25.9711 381.349 46.4994C419.605 87.5444 463.577 148.966 504.173 221.035C544.769 293.104 574.274 362.122 589.169 415.434C596.619 442.098 600.398 464.781 600.109 481.93C599.964 490.505 598.803 497.644 596.611 503.189C594.422 508.725 591.23 512.613 587.05 514.808C582.87 517.003 577.756 517.477 571.752 516.242C565.741 515.006 558.902 512.068 551.368 507.525C536.301 498.44 518.635 483.049 499.501 462.521C461.245 421.476 417.274 360.055 376.677 287.986Z" stroke="url(#paint16_linear_375_9826)" stroke-width="2"/>
<path opacity="0.62069" d="M371.861 281.441C338.135 206.119 315.153 134.761 305.247 80.2942C300.293 53.0533 298.62 30.0911 300.484 12.9915C301.415 4.44116 303.226 -2.59216 305.914 -7.947C308.599 -13.2942 312.128 -16.9127 316.484 -18.7587C320.84 -20.6046 325.967 -20.6544 331.82 -18.925C337.681 -17.1932 344.207 -13.6929 351.277 -8.53361C365.417 1.78455 381.561 18.6138 398.691 40.6949C432.942 84.8447 471 149.814 504.725 225.136C538.45 300.457 561.433 371.815 571.338 426.281C576.292 453.522 577.964 476.485 576.101 493.584C575.169 502.135 573.359 509.168 570.671 514.522C567.986 519.87 564.457 523.488 560.101 525.334C555.745 527.18 550.619 527.23 544.766 525.5C538.904 523.769 532.377 520.269 525.307 515.109C511.168 504.791 495.024 487.962 477.894 465.881C443.644 421.731 405.586 356.762 371.861 281.441Z" stroke="url(#paint17_linear_375_9826)" stroke-width="2"/>
<path opacity="0.655172" d="M367.553 274.683C340.955 196.681 324.67 123.527 319.83 68.3207C317.409 40.71 317.856 17.6431 321.279 0.722767C322.99 -7.73789 325.437 -14.611 328.6 -19.7356C331.759 -24.8529 335.599 -28.1741 340.098 -29.6569C344.597 -31.1397 349.697 -30.7653 355.355 -28.5543C361.021 -26.3401 367.186 -22.3049 373.738 -16.5683C386.843 -5.09552 401.342 13.0447 416.338 36.5106C446.322 83.4292 478.177 151.452 504.774 229.453C531.372 307.454 547.657 380.608 552.497 435.814C554.918 463.425 554.469 486.492 551.047 503.412C549.335 511.873 546.89 518.746 543.726 523.87C540.567 528.988 536.727 532.309 532.229 533.792C527.73 535.274 522.63 534.9 516.972 532.689C511.306 530.475 505.14 526.44 498.587 520.703C485.483 509.23 470.984 491.09 455.988 467.624C426.005 420.705 394.15 352.684 367.553 274.683Z" stroke="url(#paint18_linear_375_9826)" stroke-width="2"/>
<path opacity="0.689655" d="M363.761 267.755C344.493 187.668 335.029 113.274 335.291 57.7484C335.422 29.978 337.986 6.98202 342.943 -9.63028C345.421 -17.9369 348.483 -24.5976 352.098 -29.4529C355.708 -34.3013 359.83 -37.2999 364.437 -38.4084C369.045 -39.5168 374.079 -38.721 379.499 -36.045C384.927 -33.3653 390.683 -28.8261 396.668 -22.5558C408.638 -10.0156 421.382 9.29755 434.13 33.9696C459.618 83.2999 485.028 153.858 504.295 233.945C523.563 314.032 533.027 388.426 532.765 443.951C532.634 471.722 530.069 494.718 525.112 511.33C522.634 519.637 519.572 526.297 515.957 531.152C512.347 536.001 508.226 538.999 503.619 540.108C499.011 541.216 493.977 540.42 488.557 537.744C483.129 535.065 477.372 530.526 471.386 524.255C459.416 511.715 446.674 492.402 433.926 467.73C408.437 418.4 383.028 347.842 363.761 267.755Z" stroke="url(#paint19_linear_375_9826)" stroke-width="2"/>
<path opacity="0.724138" d="M360.51 260.691C348.719 179.127 346.149 104.059 351.511 48.6372C354.193 20.9184 358.854 -1.83166 365.306 -18.0095C368.533 -26.0989 372.188 -32.4964 376.227 -37.0455C380.261 -41.588 384.632 -44.2413 389.313 -44.9669C393.994 -45.6925 398.924 -44.4814 404.065 -41.361C409.214 -38.2361 414.517 -33.2274 419.89 -26.4711C430.634 -12.9591 441.525 7.38009 451.928 33.0706C472.727 84.4371 491.498 156.994 503.288 238.557C515.079 320.121 517.649 395.188 512.287 450.61C509.606 478.329 504.944 501.079 498.491 517.257C495.265 525.346 491.61 531.743 487.571 536.292C483.538 540.835 479.166 543.488 474.485 544.214C469.804 544.94 464.874 543.728 459.733 540.608C454.585 537.483 449.28 532.475 443.908 525.718C433.163 512.206 422.274 491.867 411.871 466.176C391.071 414.81 372.301 342.254 360.51 260.691Z" stroke="url(#paint20_linear_375_9826)" stroke-width="2"/>
<path opacity="0.758621" d="M357.799 253.552C353.575 171.132 357.918 95.9622 368.339 41.0652C373.551 13.609 380.274 -8.72205 388.173 -24.3423C392.123 -32.1528 396.344 -38.2385 400.776 -42.4467C405.202 -46.649 409.79 -48.9366 414.509 -49.2739C419.228 -49.6112 424.017 -47.9939 428.84 -44.4527C433.669 -40.9066 438.48 -35.4664 443.199 -28.2755C452.635 -13.8944 461.591 7.31585 469.569 33.8292C485.521 86.8411 497.51 160.844 501.734 243.263C505.959 325.682 501.616 400.852 491.195 455.749C485.982 483.205 479.259 505.536 471.36 521.156C467.41 528.967 463.19 535.052 458.758 539.261C454.332 543.463 449.743 545.75 445.024 546.088C440.305 546.425 435.517 544.808 430.694 541.267C425.864 537.72 421.053 532.28 416.334 525.089C406.897 510.708 397.943 489.498 389.965 462.985C374.012 409.973 362.024 335.971 357.799 253.552Z" stroke="url(#paint21_linear_375_9826)" stroke-width="2"/>
<path opacity="0.793103" d="M355.636 246.371C359.01 163.724 370.233 89.023 385.634 35.0689C393.337 8.08425 402.07 -13.6578 411.355 -28.6015C415.999 -36.0738 420.753 -41.8013 425.545 -45.6367C430.329 -49.4665 435.1 -51.3712 439.821 -51.3176C444.542 -51.2639 449.152 -49.2529 453.62 -45.3179C458.094 -41.3774 462.376 -35.5471 466.405 -27.9765C474.462 -12.8358 481.414 9.08425 486.907 36.2188C497.891 90.4725 503.006 165.359 499.632 248.006C496.258 330.653 485.035 405.353 469.634 459.307C461.931 486.292 453.197 508.034 443.911 522.978C439.268 530.45 434.515 536.177 429.723 540.013C424.938 543.843 420.168 545.747 415.447 545.694C410.726 545.64 406.115 543.629 401.647 539.694C397.173 535.753 392.891 529.923 388.862 522.352C380.804 507.212 373.854 485.292 368.361 458.157C357.377 403.904 352.261 329.018 355.636 246.371Z" stroke="url(#paint22_linear_375_9826)" stroke-width="2"/>
<path opacity="0.827586" d="M354.02 239.196C364.967 156.949 382.984 83.287 403.248 30.6863C413.383 4.37864 424.06 -16.6089 434.662 -30.7624C439.963 -37.8396 445.215 -43.1653 450.329 -46.5986C455.436 -50.027 460.353 -51.5342 465.04 -51.0901C469.727 -50.6459 474.124 -48.2564 478.203 -43.9575C482.288 -39.6526 486.007 -33.4767 489.316 -25.5839C495.933 -9.7988 500.828 12.6641 503.794 40.2132C509.725 95.2959 507.929 170.495 496.982 252.742C486.035 334.989 468.017 408.65 447.754 461.251C437.619 487.559 426.941 508.546 416.339 522.699C411.038 529.777 405.787 535.102 400.673 538.536C395.565 541.964 390.649 543.471 385.962 543.027C381.275 542.583 376.878 540.194 372.799 535.895C368.714 531.59 364.994 525.414 361.685 517.521C355.068 501.736 350.174 479.273 347.208 451.724C341.277 396.641 343.073 321.443 354.02 239.196Z" stroke="url(#paint23_linear_375_9826)" stroke-width="2"/>
<path opacity="0.862069" d="M352.95 232.073C371.387 150.852 396.062 78.7891 421.034 27.9423C433.524 2.51177 446.064 -17.5616 457.901 -30.8172C463.82 -37.4454 469.528 -42.3288 474.927 -45.3339C480.318 -48.3347 485.342 -49.4329 489.96 -48.6017C494.577 -47.7704 498.728 -45.0205 502.387 -40.3905C506.051 -35.7541 509.18 -29.2795 511.743 -21.1245C516.869 -4.8152 519.67 18.0197 520.087 45.7737C520.921 101.266 512.226 176.206 493.789 257.427C475.353 338.647 450.678 410.709 425.706 461.556C413.216 486.987 400.675 507.06 388.838 520.315C382.919 526.943 377.212 531.827 371.813 534.832C366.422 537.833 361.398 538.931 356.78 538.1C352.163 537.269 348.012 534.519 344.353 529.889C340.689 525.252 337.559 518.778 334.996 510.623C329.87 494.313 327.07 471.479 326.653 443.725C325.819 388.232 334.513 313.293 352.95 232.073Z" stroke="url(#paint24_linear_375_9826)" stroke-width="2"/>
<path opacity="0.896552" d="M352.415 225.042C378.201 145.467 409.345 75.5508 438.836 26.8448C453.586 2.485 467.893 -16.5214 480.875 -28.7782C487.367 -34.9069 493.489 -39.3109 499.131 -41.8649C504.764 -44.4153 509.859 -45.0962 514.372 -43.8842C518.884 -42.6721 522.757 -39.5829 525.968 -34.657C529.183 -29.7242 531.699 -23.0002 533.497 -14.6452C537.093 2.06427 537.778 25.0973 535.643 52.8451C531.373 108.325 515.846 182.436 490.06 262.011C464.274 341.587 433.13 411.502 403.639 460.208C388.889 484.568 374.581 503.574 361.599 515.83C355.107 521.959 348.986 526.363 343.345 528.918C337.711 531.468 332.616 532.149 328.104 530.937C323.591 529.725 319.718 526.635 316.507 521.71C313.292 516.777 310.776 510.053 308.978 501.697C305.382 484.988 304.697 461.955 306.833 434.208C311.103 378.728 326.629 304.618 352.415 225.042Z" stroke="url(#paint25_linear_375_9826)" stroke-width="2"/>
<path opacity="0.931035" d="M352.402 218.156C385.341 140.83 422.718 73.594 456.503 27.3994C473.4 4.2957 489.366 -13.499 503.395 -24.6638C510.409 -30.2464 516.899 -34.1374 522.74 -36.221C528.573 -38.3015 533.699 -38.56 538.073 -36.9763C542.447 -35.3927 546.012 -31.9875 548.75 -26.8032C551.493 -21.6117 553.375 -14.6895 554.394 -6.19797C556.433 10.7844 554.998 33.8403 550.326 61.3706C540.985 116.416 518.744 189.133 485.805 266.458C452.866 343.783 415.489 411.019 381.704 457.213C364.807 480.317 348.841 498.111 334.812 509.276C327.797 514.859 321.309 518.75 315.467 520.834C309.634 522.914 304.508 523.173 300.134 521.589C295.761 520.006 292.196 516.6 289.457 511.416C286.714 506.224 284.832 499.302 283.812 490.81C281.774 473.828 283.209 450.773 287.881 423.242C297.223 368.197 319.463 295.481 352.402 218.156Z" stroke="url(#paint26_linear_375_9826)" stroke-width="2"/>
<path opacity="0.965517" d="M352.902 211.453C392.743 136.966 436.069 72.9208 473.891 29.5893C492.807 7.91749 510.309 -8.53021 525.278 -18.5179C532.762 -23.512 539.569 -26.8604 545.566 -28.4576C551.555 -30.0524 556.673 -29.8864 560.874 -27.9433C565.076 -26.0001 568.306 -22.305 570.552 -16.9017C572.8 -11.4909 574.035 -4.42324 574.268 4.14017C574.733 21.2663 571.189 44.1696 564.016 71.2729C549.675 125.464 520.889 196.234 481.048 270.721C441.207 345.207 397.882 409.252 360.06 452.583C341.143 474.255 323.64 490.702 308.672 500.69C301.187 505.684 294.381 509.033 288.384 510.63C282.395 512.225 277.277 512.059 273.076 510.116C268.875 508.173 265.644 504.478 263.399 499.074C261.15 493.663 259.915 486.596 259.682 478.032C259.216 460.906 262.762 438.003 269.934 410.9C284.276 356.708 313.061 285.939 352.902 211.453Z" stroke="url(#paint27_linear_375_9826)" stroke-width="2"/>
<path d="M353.885 204.975C400.325 133.894 449.269 73.5277 490.84 33.3891C511.631 13.3141 530.538 -1.66136 546.332 -10.3959C554.229 -14.7635 561.302 -17.5438 567.409 -18.6425C573.507 -19.7396 578.579 -19.1503 582.576 -16.8625C586.573 -14.5745 589.444 -10.6176 591.179 -5.03653C592.917 0.552387 593.494 7.71179 592.939 16.2819C591.828 33.4213 586.201 55.9977 576.582 82.4678C557.35 135.393 522.239 203.678 475.798 274.758C429.358 345.839 380.414 406.205 338.844 446.344C318.052 466.419 299.145 481.393 283.351 490.128C275.454 494.496 268.382 497.276 262.275 498.375C256.176 499.472 251.105 498.883 247.108 496.595C243.111 494.307 240.24 490.35 238.505 484.769C236.767 479.18 236.189 472.021 236.744 463.45C237.855 446.311 243.483 423.735 253.101 397.265C272.334 344.34 307.444 276.056 353.885 204.975Z" stroke="url(#paint28_linear_375_9826)" stroke-width="2"/>
<defs>
<linearGradient id="paint0_linear_375_9826" x1="496.851" y1="339.475" x2="453.564" y2="208.147" gradientUnits="userSpaceOnUse">
<stop stop-color="#3898EC"/>
<stop offset="0.53" stop-color="#6299BC"/>
<stop offset="1" stop-color="#FA9E0B"/>
</linearGradient>
<linearGradient id="paint1_linear_375_9826" x1="488.568" y1="340.01" x2="456.237" y2="205.625" gradientUnits="userSpaceOnUse">
<stop stop-color="#3898EC"/>
<stop offset="0.53" stop-color="#6299BC"/>
<stop offset="1" stop-color="#FA9E0B"/>
</linearGradient>
<linearGradient id="paint2_linear_375_9826" x1="480.164" y1="340.023" x2="458.981" y2="203.378" gradientUnits="userSpaceOnUse">
<stop stop-color="#3898EC"/>
<stop offset="0.53" stop-color="#6299BC"/>
<stop offset="1" stop-color="#FA9E0B"/>
</linearGradient>
<linearGradient id="paint3_linear_375_9826" x1="471.683" y1="339.522" x2="461.812" y2="201.424" gradientUnits="userSpaceOnUse">
<stop stop-color="#3898EC"/>
<stop offset="0.53" stop-color="#6299BC"/>
<stop offset="1" stop-color="#FA9E0B"/>
</linearGradient>
<linearGradient id="paint4_linear_375_9826" x1="463.176" y1="338.491" x2="464.751" y2="199.764" gradientUnits="userSpaceOnUse">
<stop stop-color="#3898EC"/>
<stop offset="0.53" stop-color="#6299BC"/>
<stop offset="1" stop-color="#FA9E0B"/>
</linearGradient>
<linearGradient id="paint5_linear_375_9826" x1="454.691" y1="336.937" x2="467.815" y2="198.431" gradientUnits="userSpaceOnUse">
<stop stop-color="#3898EC"/>
<stop offset="0.53" stop-color="#6299BC"/>
<stop offset="1" stop-color="#FA9E0B"/>
</linearGradient>
<linearGradient id="paint6_linear_375_9826" x1="446.272" y1="334.857" x2="471.007" y2="197.454" gradientUnits="userSpaceOnUse">
<stop stop-color="#3898EC"/>
<stop offset="0.53" stop-color="#6299BC"/>
<stop offset="1" stop-color="#FA9E0B"/>
</linearGradient>
<linearGradient id="paint7_linear_375_9826" x1="437.978" y1="332.256" x2="474.339" y2="196.875" gradientUnits="userSpaceOnUse">
<stop stop-color="#3898EC"/>
<stop offset="0.53" stop-color="#6299BC"/>
<stop offset="1" stop-color="#FA9E0B"/>
</linearGradient>
<linearGradient id="paint8_linear_375_9826" x1="429.844" y1="329.144" x2="477.785" y2="196.74" gradientUnits="userSpaceOnUse">
<stop stop-color="#3898EC"/>
<stop offset="0.53" stop-color="#6299BC"/>
<stop offset="1" stop-color="#FA9E0B"/>
</linearGradient>
<linearGradient id="paint9_linear_375_9826" x1="421.923" y1="325.544" x2="481.324" y2="197.111" gradientUnits="userSpaceOnUse">
<stop stop-color="#3898EC"/>
<stop offset="0.53" stop-color="#6299BC"/>
<stop offset="1" stop-color="#FA9E0B"/>
</linearGradient>
<linearGradient id="paint10_linear_375_9826" x1="414.254" y1="321.468" x2="484.907" y2="198.033" gradientUnits="userSpaceOnUse">
<stop stop-color="#3898EC"/>
<stop offset="0.53" stop-color="#6299BC"/>
<stop offset="1" stop-color="#FA9E0B"/>
</linearGradient>
<linearGradient id="paint11_linear_375_9826" x1="406.88" y1="316.937" x2="488.476" y2="199.553" gradientUnits="userSpaceOnUse">
<stop stop-color="#3898EC"/>
<stop offset="0.53" stop-color="#6299BC"/>
<stop offset="1" stop-color="#FA9E0B"/>
</linearGradient>
<linearGradient id="paint12_linear_375_9826" x1="399.845" y1="311.975" x2="491.954" y2="201.705" gradientUnits="userSpaceOnUse">
<stop stop-color="#3898EC"/>
<stop offset="0.53" stop-color="#6299BC"/>
<stop offset="1" stop-color="#FA9E0B"/>
</linearGradient>
<linearGradient id="paint13_linear_375_9826" x1="393.183" y1="306.616" x2="495.247" y2="204.518" gradientUnits="userSpaceOnUse">
<stop stop-color="#3898EC"/>
<stop offset="0.53" stop-color="#6299BC"/>
<stop offset="1" stop-color="#FA9E0B"/>
</linearGradient>
<linearGradient id="paint14_linear_375_9826" x1="386.931" y1="300.889" x2="498.256" y2="207.992" gradientUnits="userSpaceOnUse">
<stop stop-color="#3898EC"/>
<stop offset="0.53" stop-color="#6299BC"/>
<stop offset="1" stop-color="#FA9E0B"/>
</linearGradient>
<linearGradient id="paint15_linear_375_9826" x1="381.115" y1="294.823" x2="500.864" y2="212.102" gradientUnits="userSpaceOnUse">
<stop stop-color="#3898EC"/>
<stop offset="0.53" stop-color="#6299BC"/>
<stop offset="1" stop-color="#FA9E0B"/>
</linearGradient>
<linearGradient id="paint16_linear_375_9826" x1="375.77" y1="288.463" x2="502.969" y2="216.811" gradientUnits="userSpaceOnUse">
<stop stop-color="#3898EC"/>
<stop offset="0.53" stop-color="#6299BC"/>
<stop offset="1" stop-color="#FA9E0B"/>
</linearGradient>
<linearGradient id="paint17_linear_375_9826" x1="370.915" y1="281.841" x2="504.465" y2="222.044" gradientUnits="userSpaceOnUse">
<stop stop-color="#3898EC"/>
<stop offset="0.53" stop-color="#6299BC"/>
<stop offset="1" stop-color="#FA9E0B"/>
</linearGradient>
<linearGradient id="paint18_linear_375_9826" x1="366.576" y1="275.004" x2="505.267" y2="227.712" gradientUnits="userSpaceOnUse">
<stop stop-color="#3898EC"/>
<stop offset="0.53" stop-color="#6299BC"/>
<stop offset="1" stop-color="#FA9E0B"/>
</linearGradient>
<linearGradient id="paint19_linear_375_9826" x1="362.76" y1="267.996" x2="505.295" y2="233.704" gradientUnits="userSpaceOnUse">
<stop stop-color="#3898EC"/>
<stop offset="0.53" stop-color="#6299BC"/>
<stop offset="1" stop-color="#FA9E0B"/>
</linearGradient>
<linearGradient id="paint20_linear_375_9826" x1="359.494" y1="260.848" x2="504.519" y2="239.883" gradientUnits="userSpaceOnUse">
<stop stop-color="#3898EC"/>
<stop offset="0.53" stop-color="#6299BC"/>
<stop offset="1" stop-color="#FA9E0B"/>
</linearGradient>
<linearGradient id="paint21_linear_375_9826" x1="356.775" y1="253.625" x2="502.91" y2="246.134" gradientUnits="userSpaceOnUse">
<stop stop-color="#3898EC"/>
<stop offset="0.53" stop-color="#6299BC"/>
<stop offset="1" stop-color="#FA9E0B"/>
</linearGradient>
<linearGradient id="paint22_linear_375_9826" x1="354.61" y1="246.359" x2="500.481" y2="252.314" gradientUnits="userSpaceOnUse">
<stop stop-color="#3898EC"/>
<stop offset="0.53" stop-color="#6299BC"/>
<stop offset="1" stop-color="#FA9E0B"/>
</linearGradient>
<linearGradient id="paint23_linear_375_9826" x1="353.002" y1="239.099" x2="497.272" y2="258.302" gradientUnits="userSpaceOnUse">
<stop stop-color="#3898EC"/>
<stop offset="0.53" stop-color="#6299BC"/>
<stop offset="1" stop-color="#FA9E0B"/>
</linearGradient>
<linearGradient id="paint24_linear_375_9826" x1="351.947" y1="231.892" x2="493.343" y2="263.988" gradientUnits="userSpaceOnUse">
<stop stop-color="#3898EC"/>
<stop offset="0.53" stop-color="#6299BC"/>
<stop offset="1" stop-color="#FA9E0B"/>
</linearGradient>
<linearGradient id="paint25_linear_375_9826" x1="351.435" y1="224.779" x2="488.769" y2="269.281" gradientUnits="userSpaceOnUse">
<stop stop-color="#3898EC"/>
<stop offset="0.53" stop-color="#6299BC"/>
<stop offset="1" stop-color="#FA9E0B"/>
</linearGradient>
<linearGradient id="paint26_linear_375_9826" x1="351.452" y1="217.812" x2="483.637" y2="274.12" gradientUnits="userSpaceOnUse">
<stop stop-color="#3898EC"/>
<stop offset="0.53" stop-color="#6299BC"/>
<stop offset="1" stop-color="#FA9E0B"/>
</linearGradient>
<linearGradient id="paint27_linear_375_9826" x1="351.99" y1="211.03" x2="478.048" y2="278.456" gradientUnits="userSpaceOnUse">
<stop stop-color="#3898EC"/>
<stop offset="0.53" stop-color="#6299BC"/>
<stop offset="1" stop-color="#FA9E0B"/>
</linearGradient>
<linearGradient id="paint28_linear_375_9826" x1="353.017" y1="204.478" x2="472.083" y2="282.27" gradientUnits="userSpaceOnUse">
<stop stop-color="#3898EC"/>
<stop offset="0.53" stop-color="#6299BC"/>
<stop offset="1" stop-color="#FA9E0B"/>
</linearGradient>
</defs>
</svg>
