<svg width="32" height="32" viewBox="0 0 32 32" fill="none" xmlns="http://www.w3.org/2000/svg">
<path d="M10 13H17V5H11L10 13Z" stroke="black" stroke-width="2" stroke-linecap="round" stroke-linejoin="round"/>
<path d="M11 4.99954H6C5.68512 4.99952 5.24791 4.82261 5 4.99954C4.75209 5.17647 5.07546 5.72094 5 5.99954L3 12.9995H10" stroke="black" stroke-width="2" stroke-linecap="round" stroke-linejoin="round"/>
<path d="M17 13C17 13.7956 16.6564 14.4374 16 15C15.3436 15.5626 14.9283 16 14 16C13.0717 16 11.6564 15.5626 11 15C10.3436 14.4374 10 13.7956 10 13" stroke="black" stroke-width="2" stroke-linecap="round" stroke-linejoin="round"/>
<path d="M10 13C10 13.7956 9.65638 14.4374 9 15C8.34362 15.5626 7.92826 16 7 16C6.07174 16 4.65638 15.5626 4 15C3.34362 14.4374 3 13.7956 3 13" stroke="black" stroke-width="2" stroke-linecap="round" stroke-linejoin="round"/>
<path d="M23 13H16V5H22L23 13Z" stroke="black" stroke-width="2" stroke-linecap="round" stroke-linejoin="round"/>
<path d="M21 4.99954H26C26.3149 4.99952 26.7521 4.82261 27 4.99954C27.2479 5.17647 26.9245 5.72094 27 5.99954L29 12.9995H22" stroke="black" stroke-width="2" stroke-linecap="round" stroke-linejoin="round"/>
<path d="M16 13C16 13.7956 16.3436 14.4374 17 15C17.6564 15.5626 19.0717 16 20 16C20.9283 16 21.3436 15.5626 22 15C22.6564 14.4374 23 13.7956 23 13" stroke="black" stroke-width="2" stroke-linecap="round" stroke-linejoin="round"/>
<path d="M23 13C23 13.7956 23.3436 14.4374 24 15C24.6564 15.5626 26.0717 16 27 16C27.9283 16 28.3436 15.5626 29 15C29.6564 14.4374 30 13.7956 30 13" stroke="black" stroke-width="2" stroke-linecap="round" stroke-linejoin="round"/>
<path d="M5.0001 16V26C5.0001 26.3447 4.75268 26.7563 5.0001 27C5.24753 27.2437 5.65019 27 6.0001 27H26.0001C26.35 27 26.7527 27.2437 27.0001 27C27.2475 26.7563 27.0001 26.3447 27.0001 26V16" stroke="black" stroke-width="2" stroke-linecap="round" stroke-linejoin="round"/>
<path d="M23 23.0003H25C25.0079 23.3207 25.1171 22.7012 25 23.0003C24.8829 23.2993 24.2243 23.7682 24 24.0003C23.7757 24.2324 24.2973 24.8705 24 25.0003C23.7027 25.1301 23.3251 24.9925 23 25.0003V25.0003C22.667 25.0003 22.3077 25.1259 22 25.0003C21.6923 24.8746 21.2355 24.2324 21 24.0003C20.7645 23.7681 20.1274 23.3036 20 23.0003C19.8726 22.697 20 23.3286 20 23.0003C20 22.672 19.8726 22.3036 20 22.0003C20.1274 21.697 20.7645 21.2324 21 21.0003C21.2355 20.7681 21.6923 20.1259 22 20.0003C22.3077 19.8746 22.667 20.0003 23 20.0003C23.4413 19.9984 23.6176 19.7831 24 20.0003" stroke="black" stroke-width="2" stroke-linecap="round" stroke-linejoin="round"/>
</svg>
