<svg width="27" height="27" viewBox="0 0 27 27" fill="none" xmlns="http://www.w3.org/2000/svg">
<path d="M19 0H8C3.08355 0 0 3.086 0 8V19C0 23.9275 3.08355 27 8 27H19C23.9165 27 27 23.914 27 19V8C27.0135 3.086 23.9165 0 19 0ZM14 19C11.1096 19 8 16.889 8 14C8 11.111 11.1096 8 14 8C16.8904 8 19 11.111 19 14C19 16.889 16.8904 19 14 19ZM22 7C21.9325 7.162 21.1216 6.865 21 7C20.8649 7.1215 21.1621 6.9325 21 7C20.8379 7.0675 20.1756 7 20 7C19.6353 7 19.2566 7.2565 19 7C18.8784 6.865 19.0675 7.162 19 7C18.9325 6.838 19 6.1755 19 6C18.9325 6.162 19 5.8245 19 6C19.0675 5.8245 18.8784 5.135 19 5C19.3107 4.6895 20.5678 4.9055 21 5C20.919 4.9595 21.0945 5.0135 21 5C20.919 4.946 21.081 5.027 21 5C20.9325 4.946 21.0675 5.0405 21 5C21.1216 5.135 21.9325 5.8245 22 6C22 5.8245 22.0675 6.162 22 6C22 6.1755 22.0675 6.838 22 7Z" fill="#00060F"/>
</svg>
