<svg width="32" height="26" viewBox="0 0 32 26" fill="none" xmlns="http://www.w3.org/2000/svg">
<path fill-rule="evenodd" clip-rule="evenodd" d="M10 26C22.0752 26 29 15.6747 29 7C29 6.71522 29.0192 6.28158 29 6C30.2848 5.07205 31.1184 4.31831 32 3C30.8032 3.53117 29.3008 3.84642 28 4C29.3696 3.17925 30.5088 1.52151 31 0C29.7104 0.764751 28.4704 1.7104 27 2C24.5136 -0.643048 20.6448 -0.486249 18 2C16.296 3.6031 15.4704 5.72014 16 8C10.7216 7.73442 5.3344 5.10054 2 1C0.2576 3.9998 1.1152 8.07372 4 10C2.9552 9.9696 1.9136 9.50876 1 9C1.0016 12.1246 3.9376 15.3809 7 16C6.0336 16.264 4.9824 16.1904 4 16C4.8592 18.675 7.192 19.9472 10 20C7.6752 21.8271 4.9568 23.0032 2 23C1.4784 22.9984 0.52 23.0624 0 23C3.0032 24.9263 6.432 26.0048 10 26Z" fill="#00060F"/>
</svg>
